<svg viewBox="0 0 330 200" xmlns="http://www.w3.org/2000/svg"><g><g><g><g><g><line x1="60" y1="178" x2="55" y2="178" style="visibility: inherit;" fill="rgb(0, 0, 0)" stroke="rgb(204, 204, 204)" stroke-width="1px"></line><line x1="60" y1="163.16666666666666" x2="55" y2="163.16666666666666" style="visibility: inherit;" fill="rgb(0, 0, 0)" stroke="rgb(204, 204, 204)" stroke-width="1px"></line><line x1="60" y1="148.33333333333334" x2="55" y2="148.33333333333334" style="visibility: inherit;" fill="rgb(0, 0, 0)" stroke="rgb(204, 204, 204)" stroke-width="1px"></line><line x1="60" y1="133.5" x2="55" y2="133.5" style="visibility: inherit;" fill="rgb(0, 0, 0)" stroke="rgb(204, 204, 204)" stroke-width="1px"></line><line x1="60" y1="118.66666666666667" x2="55" y2="118.66666666666667" style="visibility: inherit;" fill="rgb(0, 0, 0)" stroke="rgb(204, 204, 204)" stroke-width="1px"></line><line x1="60" y1="103.83333333333334" x2="55" y2="103.83333333333334" style="visibility: inherit;" fill="rgb(0, 0, 0)" stroke="rgb(204, 204, 204)" stroke-width="1px"></line><line x1="60" y1="89.00000000000001" x2="55" y2="89.00000000000001" style="visibility: inherit;" fill="rgb(0, 0, 0)" stroke="rgb(204, 204, 204)" stroke-width="1px"></line><line x1="60" y1="74.16666666666669" x2="55" y2="74.16666666666669" style="visibility: inherit;" fill="rgb(0, 0, 0)" stroke="rgb(204, 204, 204)" stroke-width="1px"></line><line x1="60" y1="59.33333333333336" x2="55" y2="59.33333333333336" style="visibility: inherit;" fill="rgb(0, 0, 0)" stroke="rgb(204, 204, 204)" stroke-width="1px"></line><line x1="60" y1="44.50000000000003" x2="55" y2="44.50000000000003" style="visibility: inherit;" fill="rgb(0, 0, 0)" stroke="rgb(204, 204, 204)" stroke-width="1px"></line><line x1="60" y1="29.666666666666686" x2="55" y2="29.666666666666686" style="visibility: inherit;" fill="rgb(0, 0, 0)" stroke="rgb(204, 204, 204)" stroke-width="1px"></line><line x1="60" y1="14.833333333333343" x2="55" y2="14.833333333333343" style="visibility: inherit;" fill="rgb(0, 0, 0)" stroke="rgb(204, 204, 204)" stroke-width="1px"></line><line x1="60" y1="0" x2="55" y2="0" style="visibility: inherit;" fill="rgb(0, 0, 0)" stroke="rgb(204, 204, 204)" stroke-width="1px"></line></g><g transform="translate(50, 0)"><text x="0" y="178" dx="0em" dy="0.3em" style="text-anchor: end; visibility: hidden; font-family: &quot;Helvetica Neue&quot;, sans-serif; font-size: 12px; font-weight: 200;" fill="rgb(50, 49, 63)" stroke="none" stroke-width="1px">-0.05</text><text x="0" y="163.16666666666666" dx="0em" dy="0.3em" style="text-anchor: end; visibility: inherit; font-family: &quot;Helvetica Neue&quot;, sans-serif; font-size: 12px; font-weight: 200;" fill="rgb(50, 49, 63)" stroke="none" stroke-width="1px">0</text><text x="0" y="148.33333333333334" dx="0em" dy="0.3em" style="text-anchor: end; visibility: hidden; font-family: &quot;Helvetica Neue&quot;, sans-serif; font-size: 12px; font-weight: 200;" fill="rgb(50, 49, 63)" stroke="none" stroke-width="1px">0.05</text><text x="0" y="133.5" dx="0em" dy="0.3em" style="text-anchor: end; visibility: inherit; font-family: &quot;Helvetica Neue&quot;, sans-serif; font-size: 12px; font-weight: 200;" fill="rgb(50, 49, 63)" stroke="none" stroke-width="1px">0.1</text><text x="0" y="118.66666666666667" dx="0em" dy="0.3em" style="text-anchor: end; visibility: hidden; font-family: &quot;Helvetica Neue&quot;, sans-serif; font-size: 12px; font-weight: 200;" fill="rgb(50, 49, 63)" stroke="none" stroke-width="1px">0.15</text><text x="0" y="103.83333333333334" dx="0em" dy="0.3em" style="text-anchor: end; visibility: inherit; font-family: &quot;Helvetica Neue&quot;, sans-serif; font-size: 12px; font-weight: 200;" fill="rgb(50, 49, 63)" stroke="none" stroke-width="1px">0.2</text><text x="0" y="89.00000000000001" dx="0em" dy="0.3em" style="text-anchor: end; visibility: hidden; font-family: &quot;Helvetica Neue&quot;, sans-serif; font-size: 12px; font-weight: 200;" fill="rgb(50, 49, 63)" stroke="none" stroke-width="1px">0.25</text><text x="0" y="74.16666666666669" dx="0em" dy="0.3em" style="text-anchor: end; visibility: inherit; font-family: &quot;Helvetica Neue&quot;, sans-serif; font-size: 12px; font-weight: 200;" fill="rgb(50, 49, 63)" stroke="none" stroke-width="1px">0.3</text><text x="0" y="59.33333333333336" dx="0em" dy="0.3em" style="text-anchor: end; visibility: hidden; font-family: &quot;Helvetica Neue&quot;, sans-serif; font-size: 12px; font-weight: 200;" fill="rgb(50, 49, 63)" stroke="none" stroke-width="1px">0.35</text><text x="0" y="44.50000000000003" dx="0em" dy="0.3em" style="text-anchor: end; visibility: inherit; font-family: &quot;Helvetica Neue&quot;, sans-serif; font-size: 12px; font-weight: 200;" fill="rgb(50, 49, 63)" stroke="none" stroke-width="1px">0.4</text><text x="0" y="29.666666666666686" dx="0em" dy="0.3em" style="text-anchor: end; visibility: hidden; font-family: &quot;Helvetica Neue&quot;, sans-serif; font-size: 12px; font-weight: 200;" fill="rgb(50, 49, 63)" stroke="none" stroke-width="1px">0.45</text><text x="0" y="14.833333333333343" dx="0em" dy="0.3em" style="text-anchor: end; visibility: inherit; font-family: &quot;Helvetica Neue&quot;, sans-serif; font-size: 12px; font-weight: 200;" fill="rgb(50, 49, 63)" stroke="none" stroke-width="1px">0.5</text><text x="0" y="0" dx="0em" dy="0.3em" style="text-anchor: end; visibility: hidden; font-family: &quot;Helvetica Neue&quot;, sans-serif; font-size: 12px; font-weight: 200;" fill="rgb(50, 49, 63)" stroke="none" stroke-width="1px">0.55</text></g><line x1="60" y1="0" x2="60" y2="178" fill="rgb(0, 0, 0)" stroke="rgb(204, 204, 204)" stroke-width="1px"></line></g></g><g transform="translate(60, 0)" clip-path="url(#clip_0)"><clipPath id="clip_0"><rect width="270" height="178"></rect></clipPath><g><g><g><line x1="0" y1="0" x2="0" y2="178" fill="rgb(0, 0, 0)" stroke="rgb(60, 60, 60)" stroke-width="1px" opacity="0.25"></line><line x1="24.545454545454547" y1="0" x2="24.545454545454547" y2="178" fill="rgb(0, 0, 0)" stroke="rgb(60, 60, 60)" stroke-width="1px" opacity="0.25"></line><line x1="49.09090909090909" y1="0" x2="49.09090909090909" y2="178" fill="rgb(0, 0, 0)" stroke="rgb(60, 60, 60)" stroke-width="1px" opacity="0.25"></line><line x1="73.63636363636363" y1="0" x2="73.63636363636363" y2="178" fill="rgb(0, 0, 0)" stroke="rgb(60, 60, 60)" stroke-width="1px" opacity="0.25"></line><line x1="98.18181818181819" y1="0" x2="98.18181818181819" y2="178" fill="rgb(0, 0, 0)" stroke="rgb(60, 60, 60)" stroke-width="1px" opacity="0.25"></line><line x1="122.72727272727272" y1="0" x2="122.72727272727272" y2="178" fill="rgb(0, 0, 0)" stroke="rgb(60, 60, 60)" stroke-width="1px" opacity="0.25"></line><line x1="147.27272727272725" y1="0" x2="147.27272727272725" y2="178" fill="rgb(0, 0, 0)" stroke="rgb(60, 60, 60)" stroke-width="1px" opacity="0.25"></line><line x1="171.8181818181818" y1="0" x2="171.8181818181818" y2="178" fill="rgb(0, 0, 0)" stroke="rgb(60, 60, 60)" stroke-width="1px" opacity="0.25"></line><line x1="196.36363636363637" y1="0" x2="196.36363636363637" y2="178" fill="rgb(0, 0, 0)" stroke="rgb(60, 60, 60)" stroke-width="1px" opacity="0.25"></line><line x1="220.90909090909093" y1="0" x2="220.90909090909093" y2="178" fill="rgb(0, 0, 0)" stroke="rgb(60, 60, 60)" stroke-width="1px" opacity="0.25"></line><line x1="245.45454545454544" y1="0" x2="245.45454545454544" y2="178" fill="rgb(0, 0, 0)" stroke="rgb(60, 60, 60)" stroke-width="1px" opacity="0.25"></line><line x1="270" y1="0" x2="270" y2="178" fill="rgb(0, 0, 0)" stroke="rgb(60, 60, 60)" stroke-width="1px" opacity="0.25"></line></g><g><line x1="0" y1="178" x2="270" y2="178" fill="rgb(0, 0, 0)" stroke="rgb(60, 60, 60)" stroke-width="1px" opacity="0.25"></line><line x1="0" y1="163.16666666666666" x2="270" y2="163.16666666666666" fill="rgb(0, 0, 0)" stroke="rgb(60, 60, 60)" stroke-width="1px" opacity="0.25"></line><line x1="0" y1="148.33333333333334" x2="270" y2="148.33333333333334" fill="rgb(0, 0, 0)" stroke="rgb(60, 60, 60)" stroke-width="1px" opacity="0.25"></line><line x1="0" y1="133.5" x2="270" y2="133.5" fill="rgb(0, 0, 0)" stroke="rgb(60, 60, 60)" stroke-width="1px" opacity="0.25"></line><line x1="0" y1="118.66666666666667" x2="270" y2="118.66666666666667" fill="rgb(0, 0, 0)" stroke="rgb(60, 60, 60)" stroke-width="1px" opacity="0.25"></line><line x1="0" y1="103.83333333333334" x2="270" y2="103.83333333333334" fill="rgb(0, 0, 0)" stroke="rgb(60, 60, 60)" stroke-width="1px" opacity="0.25"></line><line x1="0" y1="89.00000000000001" x2="270" y2="89.00000000000001" fill="rgb(0, 0, 0)" stroke="rgb(60, 60, 60)" stroke-width="1px" opacity="0.25"></line><line x1="0" y1="74.16666666666669" x2="270" y2="74.16666666666669" fill="rgb(0, 0, 0)" stroke="rgb(60, 60, 60)" stroke-width="1px" opacity="0.25"></line><line x1="0" y1="59.33333333333336" x2="270" y2="59.33333333333336" fill="rgb(0, 0, 0)" stroke="rgb(60, 60, 60)" stroke-width="1px" opacity="0.25"></line><line x1="0" y1="44.50000000000003" x2="270" y2="44.50000000000003" fill="rgb(0, 0, 0)" stroke="rgb(60, 60, 60)" stroke-width="1px" opacity="0.25"></line><line x1="0" y1="29.666666666666686" x2="270" y2="29.666666666666686" fill="rgb(0, 0, 0)" stroke="rgb(60, 60, 60)" stroke-width="1px" opacity="0.25"></line><line x1="0" y1="14.833333333333343" x2="270" y2="14.833333333333343" fill="rgb(0, 0, 0)" stroke="rgb(60, 60, 60)" stroke-width="1px" opacity="0.25"></line><line x1="0" y1="0" x2="270" y2="0" fill="rgb(0, 0, 0)" stroke="rgb(60, 60, 60)" stroke-width="1px" opacity="0.25"></line></g></g></g><g><g><line x1="0" y1="163.16666666666666" x2="270" y2="163.16666666666666" fill="rgb(0, 0, 0)" stroke="rgb(153, 153, 153)" stroke-width="1.5px"></line></g></g><g><g><line x1="24.545454545454547" y1="0" x2="24.545454545454547" y2="178" fill="rgb(0, 0, 0)" stroke="rgb(153, 153, 153)" stroke-width="1.5px"></line></g></g><g><g><g><g><g><path stroke="rgb(255, 112, 67)" stroke-width="2px" d="M25.15909090909091,143.0653097132842L25.281818181818185,139.82659819163382L25.772727272727273,140.11183862195534L25.895454545454545,139.18059860951467L26.14090909090909,137.0121860671431L26.263636363636365,135.76934156119705L26.386363636363637,136.85391758043775L26.509090909090908,137.01980001685186L26.631818181818183,137.70863793513777L26.754545454545454,137.25784440164978L26.87727272727273,137.24111548799016L27,135.01636205148577L27.490909090909092,135.7281688349532L27.613636363636367,134.9805947242519L28.595454545454547,134.5074597849267L28.71818181818182,134.9049418221524L28.96363636363636,131.68306621492002L29.331818181818182,130.7404260257688L29.454545454545453,130.8606699078951L29.7,130.5789763994073L29.822727272727274,130.56957630758106L29.94545454545455,128.95544451501928L30.068181818181817,128.99385913565348L30.313636363636363,129.2772108352796L30.55909090909091,130.7219314901267L30.68181818181818,134.44124561771454L31.05,134.44551786159457L31.172727272727272,130.89681325808772L31.295454545454543,129.10333895835595L31.418181818181818,129.85305526630282L31.540909090909093,129.3079423068677L31.90909090909091,126.96144336217073L32.03181818181818,124.67705451320903L32.27727272727273,125.32369155871626L32.52272727272727,127.54221813829497L32.64545454545455,127.78424260042453L32.768181818181816,127.71043302384442L32.89090909090909,125.80481733826966L33.25909090909091,125.82066636455514L33.38181818181818,126.38402924318393L33.50454545454545,127.18613591683237L33.627272727272725,131.19838361869017L33.872727272727275,129.34597327812526L34.24090909090909,127.17788958812355L34.85454545454545,124.5620751592655L34.97727272727273,122.13783429924266L35.1,121.64062116261617L35.222727272727276,121.83972032696235L35.34545454545455,123.19063389996657L35.46818181818182,126.25567468427099L36.08181818181818,125.11250282379913L37.06363636363636,123.2177176140865L37.30909090909091,124.7784130571186L37.43181818181818,123.26676504201927L37.554545454545455,125.30353565447004L38.413636363636364,125.4933502997904L38.78181818181818,122.67789637998374L39.027272727272724,122.49096309317524L39.15,123.4520340631806L39.27272727272727,124.59656929594702L39.763636363636365,124.39542558762884L39.88636363636364,125.60417157197074L40.009090909090915,122.9806991286123L40.377272727272725,121.38223827682202L40.5,123.4027605064845L40.86818181818182,118.88628739564433L41.3590909090909,121.27250964114359L41.60454545454545,121.9177212953724L41.85,118.89302396218922L41.972727272727276,119.7226143644707L42.095454545454544,119.69561292925218L42.21818181818182,120.87459359684829L42.34090909090909,121.5234327720756L42.46363636363637,126.73262959761351L42.709090909090904,124.81592787529783L42.95454545454545,121.80167517597928L43.32272727272728,119.67085083843543L43.445454545454545,119.56470054301386L43.56818181818182,119.205465065913L43.81363636363636,115.09690160004891L43.93636363636364,113.68534012902933L44.059090909090905,115.09899111749228L44.42727272727273,118.07598740753429L44.67272727272728,116.56131102778652L44.79545454545455,114.56335097633684L45.04090909090909,116.86124091992508L45.163636363636364,117.25608584274687L45.53181818181818,119.84367231323225L46.022727272727266,119.25950725353105L46.14545454545454,120.86949218596823L46.268181818181816,117.90643774640047L46.39090909090909,116.73578341308128L46.63636363636364,114.26951207023598L46.75909090909091,110.78731129547995L47.00454545454546,112.06144940444456L47.25,114.6871508017498L47.37272727272727,115.18744864793524L47.49545454545454,117.95189353663865L47.61818181818182,114.29519934757042L47.86363636363637,115.45416263324115L47.986363636363635,116.23806379387037L48.845454545454544,115.63585433254195L49.336363636363636,115.67890220218632L49.82727272727273,111.09617075920343L49.95,110.98588344017807L50.07272727272727,110.11081188456305L50.56363636363637,109.44606492242866L50.68636363636363,107.49374104731274L50.809090909090905,110.31570237393971L50.93181818181818,113.07790693153419L51.3,118.80425052350449L51.42272727272727,119.72722227874809L51.79090909090909,115.80642353397656L51.913636363636364,115.87208334745199L52.15909090909091,115.00699617549517L52.28181818181818,114.37844191442773L52.404545454545456,113.67808354169634L52.65,110.22005121869151L52.77272727272727,107.9872155803182L52.89545454545455,108.69250737931759L53.018181818181816,107.62909338458238L53.14090909090909,108.44403160562432L53.263636363636365,106.62599308659821L53.63181818181818,105.96278567733482L53.75454545454546,107.97654256595443L54,107.54041064604085L54.49090909090909,112.43038077050824L54.61363636363636,110.46415818668034L54.85909090909091,110.42922458412225L55.10454545454546,109.57718583362485L55.227272727272734,110.71248117139253L55.84090909090909,108.74867134720273L56.20909090909091,105.79824357885235L56.331818181818186,111.24588045870134L56.45454545454545,109.04398518440048L56.57727272727272,106.61650089603813L56.82272727272727,107.17062300949586L57.31363636363636,110.92061266805307L57.55909090909091,104.72309254510547L57.804545454545455,105.44755088629334L57.92727272727272,108.24680932368047L58.05,109.24568786624197L58.540909090909096,105.29669982435182L58.663636363636364,102.89484861438598L58.90909090909091,102.86551494764363L59.154545454545456,101.61710962871955L59.4,102.92063312463112L60.01363636363636,103.15478829184461L60.25909090909091,108.0619568246958L60.38181818181818,109.77128501047834L60.75,106.40092453148054L60.99545454545455,105.49099852712604L61.11818181818182,104.87926500681036L61.240909090909085,104.9806965011934L61.486363636363635,102.18056167474863L61.60909090909091,100.02249233709661L61.731818181818184,100.42976730338864L62.222727272727276,107.29416274590572L62.345454545454544,104.67861526944209L62.590909090909086,106.33395729306123L62.95909090909091,103.96210187977225L63.449999999999996,101.55669280075433L63.57272727272727,100.51628957698783L63.695454545454545,99.07920877045419L63.81818181818182,103.01647958699482L64.06363636363636,103.31711220866612L64.43181818181819,100.92707274830046L64.55454545454546,98.11929337864541L64.67727272727272,99.37582649003717L65.04545454545455,97.94273094263427L65.16818181818182,106.45672642346274L65.41363636363637,101.496955707606L66.15,105.30233878787539L66.39545454545454,97.78051583903739L66.51818181818182,96.24501028619831L66.64090909090909,95.65006968356745L66.76363636363637,99.72361473030395L66.88636363636364,98.75774405670094L67.13181818181818,98.64034693403202L67.25454545454545,96.6191926218857L67.86818181818181,97.68331179327505L67.9909090909091,94.95150273227735L68.23636363636363,95.01146237761206L68.48181818181818,97.18567228343345L68.60454545454546,99.96059524233891L68.72727272727272,94.54982624381238L69.09545454545454,100.24495493528916L69.21818181818182,102.41833456649984L69.3409090909091,94.63668468174104L69.58636363636364,95.46871196375348L69.7090909090909,99.75631130027409L69.95454545454545,101.80793645950736L70.07727272727273,98.81678582612227L70.32272727272726,97.57909201016159L70.56818181818181,96.60464830257574L70.81363636363636,96.9958414021616L70.93636363636364,95.2894729962042L71.05909090909091,103.87023585180984L71.30454545454546,100.19116226717162L71.42727272727272,99.74852696985599L71.79545454545455,95.69209608592946L71.91818181818182,97.57751386856056L72.0409090909091,101.79788822429389L72.16363636363636,102.81907211043642L72.4090909090909,97.24933365761166L72.53181818181818,95.64181090858932L72.65454545454546,98.21682789405598L72.77727272727273,97.01666258462518L73.88181818181818,93.20198459638108L74.00454545454546,101.00000106819243L74.25,95.2201414874858L74.61818181818182,87.6693159960707L75.47727272727272,88.14361152388652L75.60000000000001,92.07201741141876L76.09090909090908,90.06456993819953L76.21363636363637,90.42363154173898L76.33636363636363,88.99889800914731L76.58181818181818,83.63834391018912L76.82727272727273,83.40078794547617L77.07272727272728,84.72194079312901L77.31818181818183,89.20242382935616L78.42272727272727,86.59558155051033L78.54545454545455,88.2720487549573L78.66818181818182,86.38115438826897L78.79090909090908,88.78734729096107L79.03636363636363,86.68248945914594L79.1590909090909,86.85178596045309L79.52727272727273,81.83092642386198L79.89545454545454,93.6001335058179L80.63181818181819,88.05543184718887L80.75454545454545,89.30202132329185L80.87727272727273,95.40084478377209L81,97.34458696714385L81.12272727272727,85.08160170637376L81.36818181818182,83.69467862083201L81.49090909090908,86.59552371680947L81.61363636363636,85.07580033250777L81.85909090909091,82.67903940265255L81.98181818181818,81.58600083421594L82.10454545454544,82.88832931179361L82.35,84.3871528970712L82.59545454545454,85.18044626717848L82.7181818181818,82.29161452455372L83.2090909090909,84.48064498426349L84.06818181818181,78.11614514383771L84.19090909090909,78.05524065291742L84.43636363636364,83.33577607192115L84.55909090909091,83.254156451131L84.80454545454545,81.04679757398671L85.05,82.28956534490369L85.41818181818181,74.21513205781808L86.27727272727272,83.4344447971298L86.64545454545456,86.47422897344315L86.76818181818182,90.37730163450331L87.13636363636364,84.70081370342945L87.25909090909092,82.68213318150745L87.38181818181818,85.09539617515509L87.62727272727273,87.24785794466878L87.75,85.10358774056125L87.87272727272727,83.78268579278442L87.99545454545455,86.1175195513212L88.2409090909091,83.63212413021188L88.85454545454546,82.4038641597525L88.97727272727272,80.21244505320166L89.71363636363637,86.45991805359229L89.95909090909092,74.52548674244387L90.08181818181818,73.36104949811322L90.20454545454545,75.12258277236954L90.32727272727273,78.44756862659975L90.45,77.71600983822181L90.57272727272728,80.7289661464125L90.69545454545455,78.69283678712628L90.81818181818181,77.92740141500344L90.94090909090909,79.06097053179728L91.06363636363636,74.48132587287579L91.30909090909091,67.10168724545093L91.67727272727272,83.86822852266782L91.80000000000001,81.66108708842371L91.92272727272727,78.60605381288394L92.16818181818182,86.752538969268L92.29090909090908,76.32603326448776L92.65909090909092,83.16602362201004L92.90454545454546,69.31904214027756L93.14999999999999,71.81320035499276L93.27272727272728,76.69693179950282L93.64090909090909,76.78044512286881L93.76363636363637,76.4593399589167L93.88636363636364,77.50249325980185L94.13181818181818,76.31743158350054L94.25454545454546,66.06549673149784L94.37727272727273,69.87969654124856L94.62272727272727,83.47062353286276L94.86818181818182,81.4333459138461L94.99090909090908,82.36120764412013L95.35909090909091,76.06396079061945L95.48181818181818,78.2825203100752L95.60454545454544,84.66013737280636L95.72727272727273,86.7928736235269L95.85,71.61320192171544L95.97272727272727,69.88966730368183L96.09545454545454,70.76333071668176L96.21818181818182,75.255776734427L96.46363636363637,79.0531389621548L96.58636363636364,76.90482038106437L97.07727272727273,75.16271682885835L97.2,66.25998633091181L97.32272727272728,71.73310132613499L97.56818181818183,83.58883083536656L97.69090909090909,79.4450938106046L97.81363636363636,77.1113225420594L97.93636363636364,78.01171490750392L98.18181818181819,70.77621852478391L98.42727272727274,76.52049202395087L98.67272727272727,82.94179035031361L98.91818181818182,79.82940595628956L99.16363636363636,80.83486773937231L99.4090909090909,81.70430497945917L99.53181818181818,79.52932556045992L99.65454545454546,79.28117344124881L100.02272727272728,78.36219655678929L100.51363636363637,87.96256107016163L100.63636363636364,81.9907393729116L100.88181818181819,81.99435092660343L101.00454545454545,87.81750373235876L101.25,79.72992683365862L101.7409090909091,64.81198887575621L101.86363636363636,64.46018713642532L102.10909090909091,68.6029609477284L102.35454545454546,73.13260166063483L102.84545454545454,68.0821128540113L103.21363636363637,70.45573040562122L103.33636363636364,71.79815376232416L103.58181818181818,73.78185634074816L103.70454545454545,75.3174318487935L103.82727272727273,77.04258016042867L103.95,85.00536640858427L104.07272727272726,77.47898326144086L104.19545454545455,74.07535701091369L104.31818181818181,76.99232239581316L104.4409090909091,83.37919852171642L104.56363636363636,84.66461060663643L105.05454545454546,81.98561430506258L105.17727272727272,77.39092049915999L105.42272727272727,73.81412506452847L105.66818181818182,74.21110107313582L106.03636363636363,63.389578321442926L106.28181818181818,68.46534865232267L106.40454545454546,81.50302984197116L106.52727272727273,79.77450065143412L106.89545454545456,87.66363701220855L107.01818181818182,77.931780399858L107.14090909090909,72.88698089638096L107.26363636363637,75.02103389413402L107.38636363636363,82.53719602293519L107.63181818181818,65.45883852402419L107.75454545454546,64.78704755004279L107.87727272727273,66.8488226761184L108.12272727272727,67.71870271542242L108.24545454545454,71.34761042701348L108.36818181818182,70.58455711587555L108.49090909090908,70.00547477792274L108.61363636363636,73.4322798561488L108.73636363636363,68.6198284573218L108.98181818181818,59.77017175834541L109.10454545454546,63.75995962429742L109.47272727272727,64.88525341714643L109.96363636363637,61.558556279134095L110.33181818181818,75.1054467045812L110.45454545454547,80.21033598285207L110.57727272727273,64.2583215791064L110.69999999999999,63.33883210965462L110.82272727272728,65.29559724101503L110.94545454545454,71.13390995205889L111.06818181818183,72.14949533824992L111.19090909090909,75.58542089552604L111.43636363636364,73.15559585625486L111.55909090909091,74.51133141359422L111.68181818181819,69.03930448755068L112.17272727272727,69.24724260527556L112.66363636363637,72.4294240607341L112.78636363636363,82.16575344007336L113.03181818181818,73.3100404079822L113.15454545454544,75.34720249987049L113.27727272727273,81.89680554876567L113.39999999999999,83.27590700632238L113.52272727272728,64.60239290781364L113.64545454545454,63.50255347641834L114.01363636363637,67.64255813769019L114.13636363636364,72.64247124201964L114.2590909090909,70.23756401225077L114.87272727272727,57.52172501375763L115.11818181818182,61.849380617283714L115.24090909090908,75.45498600300726L115.36363636363636,71.97027341542588L115.48636363636363,69.7619442463991L115.73181818181818,80.3177447271989L116.1,78.48109094814339L116.22272727272728,83.33740318526355L116.5909090909091,73.6600055339507L116.71363636363635,70.77880018805892L116.83636363636364,74.14708667907377L117.08181818181819,75.18639932024435L117.32727272727273,71.97307904132975L117.69545454545455,70.92293092947467L117.81818181818181,57.49685767496386L118.06363636363636,61.55086489044484L118.43181818181819,63.91009108735834L118.55454545454545,68.2536433091584L118.67727272727274,78.5890539616837L118.92272727272727,69.8669301905529L119.04545454545455,72.88343292703011L119.16818181818181,80.04948970613745L119.2909090909091,82.27709372602622L119.41363636363636,62.86241799054177L119.53636363636365,61.70741402382235L119.6590909090909,63.02456457977246L119.7818181818182,68.55567114888481L120.15,67.7619907061588L120.27272727272727,68.36851960819946L120.76363636363637,56.08813485941482L120.88636363636364,59.15303256575979L121.13181818181818,73.33781740545066L121.37727272727273,70.09099736300408L121.62272727272727,79.12963184011362L121.74545454545455,66.99533904567787L121.86818181818181,62.65813907568911L121.9909090909091,66.80649826875484L122.11363636363636,76.47071949214433L122.23636363636363,77.66827087146459L122.48181818181817,69.6164668989723L122.72727272727272,72.40267215128016L122.97272727272727,75.1800245083686L123.3409090909091,75.53684017880657L123.46363636363637,68.35046027793827L123.58636363636363,68.43930747525499L123.70909090909092,56.60009063730601L123.83181818181818,61.880573114454535L124.07727272727273,74.6502494657237L124.32272727272728,70.50650430386456L124.56818181818181,81.53843181529757L124.69090909090909,69.74907247145444L124.93636363636364,70.82900101295792L125.30454545454546,54.47318516384574L125.55000000000001,56.61263556208817L125.67272727272727,63.47931067303783L125.79545454545453,64.28903438343187L126.16363636363637,62.71930293456862L126.53181818181818,64.33915137578735L126.65454545454546,52.771528414863496L126.89999999999999,59.37406894285172L127.14545454545454,61.99377607932898L127.39090909090909,66.77112933574844L127.51363636363637,77.61912814326324L128.00454545454545,83.36536580849034L128.25,62.10415588137512L128.37272727272727,59.030793839595745L128.49545454545455,59.53360483680291L128.61818181818182,64.35334441046392L128.86363636363637,68.89504523861692L128.98636363636365,65.28087739818268L129.10909090909092,64.25400436325654L129.23181818181817,67.2066654547281L129.72272727272727,66.49413824384771L129.96818181818182,76.18492217643278L130.0909090909091,70.36853083640268L130.21363636363637,67.44549765986163L130.33636363636364,68.24536540588912L130.4590909090909,79.01059775241917L130.95,84.01350930147592L131.19545454545454,62.89031237848536L131.3181818181818,62.59814695410691L131.68636363636364,64.64974116420407L131.8090909090909,70.17868932367759L131.9318181818182,67.39398089417655L132.05454545454546,66.99659397225881L132.17727272727274,69.29101570062619L132.4227272727273,66.88116367427179L132.54545454545453,55.301870614892266L132.66818181818184,58.92501251137618L132.79090909090908,60.23436160228468L133.03636363636363,61.04805120234778L133.40454545454546,74.39859665078973L133.65,67.30812012737825L133.77272727272728,67.97610335897903L134.0181818181818,72.0461902778437L134.1409090909091,54.21061448421621L134.26363636363635,53.99219561517167L134.5090909090909,60.526094147959924L134.63181818181818,61.95681715174493L134.87727272727273,61.28321023879832L135,61.13388225296174L135.61363636363637,63.24651508048595L135.8590909090909,75.05443361112727L135.9818181818182,68.54278534278824L136.10454545454547,64.59920731559727L136.22727272727272,64.60180821046433L136.35,76.1238584996772L136.47272727272727,64.17656912494772L136.59545454545454,58.978679041598696L136.8409090909091,71.07608250014054L136.96363636363637,74.08806213080129L137.08636363636361,55.34176105860416L137.45454545454544,61.41660803916183L137.5772727272727,62.62779869851744L137.7,68.03406580816076L137.8227272727273,64.23862163541934L138.0681818181818,67.948636295308L138.80454545454543,76.7493494601504L138.92727272727274,71.25358652183151L139.05,68.26201137170436L139.29545454545453,78.23739152510112L139.78636363636363,82.6556891442884L140.15454545454546,71.0443162028918L140.52272727272728,68.535891018605L140.8909090909091,64.62664497035492L141.01363636363635,66.35763423524944L141.3818181818182,53.51357006758043L141.50454545454545,57.73917050995186L141.62727272727273,61.777635501848195L141.87272727272727,63.670077550625734L141.99545454545455,64.36176331135589L142.11818181818182,66.39420883234119L142.36363636363635,60.471201135967846L142.48636363636362,58.83806432540497L142.60909090909092,63.19435414426694L142.7318181818182,74.66846429955861L142.85454545454544,77.34368828724962L143.1,71.16786386842217L143.22272727272727,62.6147458688896L143.46818181818182,62.95067354062088L143.71363636363634,60.01284158241086L143.83636363636364,60.99841768748364L144.0818181818182,56.50880248073817L144.3272727272727,47.36808657680402L144.45000000000002,53.00608596822292L144.57272727272726,57.327901229981606L144.69545454545454,70.5083935255154L145.06363636363636,70.99315073456432L145.18636363636364,80.4783023140792L145.3090909090909,69.43965456934556L145.4318181818182,62.61762737066617L145.67727272727274,74.46630892056866L145.8,78.42701208332366L146.78181818181818,72.29751583579691L147.15,69.65728044098724L147.27272727272725,55.33197475822435L147.51818181818183,57.770152465611716L147.76363636363635,59.02617490457099L147.88636363636363,59.51252125998302L148.25454545454545,54.93970910290854L148.37727272727273,53.64661949225254L148.62272727272727,69.10784816750677L148.74545454545455,71.90229792600151L148.86818181818182,54.34717318537997L148.99090909090907,54.5055677719305L149.35909090909092,58.61990955436569L150.34090909090907,58.37185603160269L150.46363636363637,60.034065988333666L150.58636363636364,71.87417058547635L150.83181818181816,67.34830175479433L151.07727272727274,77.52092713499178L151.20000000000002,66.19842026859983L151.32272727272726,59.54742111899735L151.56818181818184,71.46357334139911L151.81363636363636,52.06682558347565L151.93636363636364,53.5770787288136L152.0590909090909,53.70826103822708L152.42727272727274,63.5232622297783L152.54999999999998,61.00320008231277L152.67272727272726,62.069698191680985L153.28636363636363,59.71078605075586L153.53181818181818,71.68923318358209L153.65454545454546,65.27234094920921L153.89999999999998,65.26833677440783L154.02272727272728,77.67377253462811L154.26818181818183,66.12033811463877L155.00454545454545,58.457804659529316L155.12727272727273,62.91040231755801L155.37272727272727,67.30143129411199L155.61818181818182,64.16354526430085L156.1090909090909,51.81226308355561L156.23181818181817,56.76860875612398L156.35454545454544,60.208440478995854L156.47727272727275,73.15316072087809L156.6,69.90544792203899L156.84545454545454,67.97405381315231L157.0909090909091,59.41445804822415L157.21363636363637,54.55831730279111L157.33636363636364,58.28161927012276L157.4590909090909,70.10009678968393L157.58181818181816,71.07631430289311L157.70454545454547,52.078813401427865L157.82727272727274,51.418464649260244L158.3181818181818,59.01231580686979L158.56363636363636,58.16800818669249L158.68636363636364,61.32647320724L159.4227272727273,71.58535795070611L159.6681818181818,67.43748926713795L159.91363636363636,79.2513141409242L160.03636363636366,66.50148314092661L160.1590909090909,58.52553656411632L160.40454545454546,70.8558835787324L160.89545454545456,60.66921717739591L161.26363636363638,66.38094613641394L161.5090909090909,64.11675337368187L161.87727272727273,64.46894808260961L162.24545454545455,61.52285412737747L162.3681818181818,72.1907059259555L162.61363636363637,65.42492676818419L162.73636363636365,63.846888294085176L162.8590909090909,74.57639976954322L162.98181818181817,62.93732730914668L163.10454545454547,55.75251665335604L163.22727272727272,58.21677523427233L163.35,69.82877588414965L163.59545454545454,50.03299116379313L163.71818181818182,50.38949156971549L163.8409090909091,49.12460788789457L164.2090909090909,60.41815710486809L164.3318181818182,58.84962067060775L164.5772727272727,61.8661760551916L165.5590909090909,59.56722717661776L165.6818181818182,60.430177711521324L165.80454545454546,70.14789844934627L165.9272727272727,59.51352183849306L166.05,52.40519571799453L166.29545454545456,65.52806272803794L166.4181818181818,68.23788307527136L166.54090909090908,49.40253360124092L166.66363636363639,50.8813761813541L166.9090909090909,58.07988187132872L167.03181818181818,59.690552690378425L167.15454545454546,64.96213306908902L167.4,62.30852671022275L167.52272727272728,62.82247990501956L167.7681818181818,62.51937659263433L168.99545454545452,54.221401220638484L169.36363636363637,61.268981595483794L169.48636363636362,43.69129867930059L169.6090909090909,46.690830514304906L169.7318181818182,43.984092962030445L169.97727272727272,49.56732196685704L170.1,58.19162666247507L170.22272727272727,56.13152266808086L170.46818181818182,61.293153627322525L170.83636363636361,47.319914672934885L170.95909090909092,48.546751221516075L171.0818181818182,51.66193463832042L171.20454545454544,66.03465251781485L171.3272727272727,59.93923681174482L171.45,56.886004049746774L171.5727272727273,58.4293438588591L171.69545454545454,68.2968441165494L171.9409090909091,57.85453421574876L172.18636363636364,69.84454245588408L172.3090909090909,70.50452034009234L172.55454545454543,61.7479710757697L172.8,63.06592018882223L173.04545454545453,65.6401785263208L173.1681818181818,60.52670822434351L173.2909090909091,59.881624312556156L173.41363636363636,64.17466777047895L173.53636363636363,57.435598731923406L173.6590909090909,60.12460560851592L174.15,71.83788284015635L174.76363636363635,61.81704894911438L174.88636363636363,54.33520725694015L175.1318181818182,67.39326493338771L175.25454545454545,68.11193286813914L175.37727272727273,49.213465226318164L175.74545454545455,56.44233488994384L175.86818181818182,58.063556869571684L175.9909090909091,63.76342694744187L176.23636363636362,59.8423501856211L176.4818181818182,53.42914179605742L176.60454545454544,56.62140789613626L176.97272727272727,56.42273576449652L177.21818181818182,55.04805998439373L177.46363636363634,58.39128175835681L177.58636363636364,70.43802413619085L177.8318181818182,58.61791699693515L177.95454545454544,58.911330613886804L178.32272727272726,44.95225437883269L178.44545454545454,49.15350972257298L178.5681818181818,48.406978853398016L178.81363636363636,54.641813139828145L178.93636363636364,62.441681063599646L179.0590909090909,59.156841832256674L179.30454545454546,62.71282531292621L179.42727272727274,55.4647503702127L179.55,57.01812211721837L179.67272727272726,43.55131141374329L179.79545454545453,46.17618986783319L179.91818181818184,50.71865784019964L180.16363636363636,51.09426543846173L180.53181818181818,64.87222577175166L180.65454545454546,56.26545509322882L180.9,56.71723788951476L181.3909090909091,54.798247190165384L181.51363636363635,50.100358683972274L181.75909090909093,55.032785486643746L181.88181818181818,61.51323011207498L182.25,64.12429587058972L182.49545454545455,63.434621365941055L182.74090909090907,58.813410023099095L182.98636363636365,70.91217407340561L183.10909090909092,63.31450159204854L183.23181818181817,59.370315735655154L183.35454545454544,59.759081855486116L183.60000000000002,53.196090468806204L183.96818181818182,66.34548149647843L184.09090909090907,67.34170916562795L184.33636363636364,60.1364967359236L184.45909090909092,53.55356828767843L184.58181818181816,57.87312761385515L184.82727272727274,63.40964292350972L185.31818181818184,56.87217095015585L185.56363636363636,44.27495984942601L185.68636363636364,48.87045930650362L185.93181818181816,64.8673743019096L186.05454545454546,61.520523167228234L186.17727272727274,61.100733735109685L186.42272727272726,72.78069213108937L186.54545454545456,62.05562558418545L187.03636363636363,64.44717977034666L187.15909090909093,45.64699357502235L187.28181818181818,45.85669741085712L187.40454545454546,43.050885325977475L187.52727272727273,51.71624375560441L187.77272727272728,58.8434826285356L188.01818181818183,56.855955355408625L188.14090909090908,59.039910272584066L188.26363636363635,51.88986623038396L188.38636363636365,54.38496490170286L188.50909090909093,40.42497910568949L188.63181818181818,43.28985536203686L189,45.77183961931411L189.36818181818182,59.70384130515781L189.61363636363637,51.3169205922174L189.8590909090909,65.85499570796617L189.98181818181817,67.40653941251674L190.10454545454544,48.11996244520648L190.22727272727275,47.4533757714274L190.35,45.74762273318623L190.8409090909091,48.73794832519923L191.33181818181816,53.31518670733115L191.57727272727274,51.46931193360891L191.7,51.386227874492846L191.82272727272726,63.830521481356186L192.0681818181818,57.94539161748955L192.1909090909091,58.05718917187416L192.31363636363636,72.03108355126597L192.6818181818182,65.47408084504893L193.04999999999998,45.71127094685889L193.1727272727273,45.70648320829784L193.29545454545456,43.54122009465647L193.54090909090908,48.94523856593898L193.66363636363636,58.03189536067087L193.78636363636366,54.13116039513892L194.03181818181818,57.88209162759392L194.15454545454546,51.83819976612496L194.4,40.493962386237996L194.52272727272728,43.215487229220514L194.64545454545456,47.836119008496865L194.7681818181818,62.60249016628792L194.89090909090908,58.1902815934785L195.01363636363638,57.42031222403652L195.2590909090909,67.920051982923L195.38181818181818,58.00143329158843L195.75,69.29335640185327L196.36363636363637,68.0847095388964L196.85454545454547,62.32674593958032L197.83636363636364,57.8778316054708L197.9590909090909,53.657889589109004L198.0818181818182,55.51812242534041L198.20454545454547,67.65907542148996L198.3272727272727,57.45945973539213L198.69545454545457,68.65527315543412L198.8181818181818,68.36324957771888L199.06363636363636,59.02735124288276L199.1863636363636,52.67039974287117L199.4318181818182,55.92685899588446L199.55454545454546,62.15524000398108L199.6772727272727,56.91193746609562L199.8,54.50664228051748L200.04545454545456,48.578676910300146L200.29090909090908,37.796745394328696L200.41363636363639,41.67675399064589L200.53636363636363,46.57650438515091L200.78181818181818,47.55742850046005L200.90454545454546,46.6757185745675L201.02727272727273,51.71131100784375L201.27272727272728,48.08961134670557L201.5181818181818,50.36236467471748L202.25454545454548,55.96846337225655L202.5,62.1842378245192L202.9909090909091,55.427281784995245L203.11363636363637,59.00865496475528L203.23636363636362,43.49403467145979L203.72727272727272,44.60873275419527L204.3409090909091,40.02935472381387L204.46363636363637,45.854260360711464L204.95454545454544,45.79762410850148L205.3227272727273,49.44370457170896L205.44545454545454,57.5354651489168L205.8136363636364,58.886434086857804L206.1818181818182,44.98425698798809L206.30454545454543,48.520937159788105L206.42727272727274,51.86343782452633L206.79545454545453,52.42187354549503L206.9181818181818,55.01360612860165L207.28636363636363,48.671133043870384L207.4090909090909,51.38183439721966L207.53181818181818,66.87256181806508L207.65454545454546,68.36525166374555L207.77727272727273,47.000089726897755L208.63636363636363,48.3894860756711L208.7590909090909,51.17979369236923L208.8818181818182,47.77312702540894L209.00454545454545,51.5343682126463L209.25,51.37562627134287L209.37272727272727,52.865558369184924L209.49545454545455,65.04924269312149L209.61818181818182,58.58792432820913L209.7409090909091,57.111412831203836L209.86363636363635,58.77558631185097L209.98636363636362,68.81939136078002L210.10909090909092,58.96606917633639L210.2318181818182,51.27034651112969L210.6,57.926504271462065L210.84545454545454,55.64861159557174L211.45909090909092,54.357020439907345L211.5818181818182,55.889684324783744L211.70454545454544,59.81047729173662L211.95000000000002,59.92485937785723L212.44090909090912,68.57727082557452L212.8090909090909,65.30154590598924L213.05454545454546,56.191475117954724L213.54545454545453,61.981638362856586L213.66818181818184,45.063163668425034L213.7909090909091,45.388169322715896L213.91363636363636,45.75111603397528L214.28181818181818,56.39005203043462L214.52727272727273,55.48225177324838L214.65,57.71573775408882L214.77272727272725,52.279464261123834L214.89545454545456,55.161402592891065L215.01818181818183,41.48854919066048L215.26363636363635,47.78660196338109L215.38636363636363,63.59106362426688L215.75454545454545,61.37964731393899L216.12272727272727,50.53955544196755L216.24545454545455,52.33488085963245L216.36818181818182,65.71683124163498L216.98181818181817,64.19301218663902L217.10454545454544,60.53883061533324L217.22727272727272,64.4768221878518L218.20909090909092,59.83748980185446L218.33181818181816,70.35236436419322L218.45454545454544,63.462450112656555L218.70000000000002,62.11905266786961L218.82272727272726,70.39907381104639L218.94545454545454,59.63654300272789L219.06818181818184,50.92124996602732L219.1909090909091,52.38400427909809L219.31363636363636,65.31512298829628L219.43636363636364,66.41578659205004L219.68181818181816,59.53256329370558L219.92727272727274,59.3728931137305L220.04999999999998,56.82673404544879L220.17272727272726,62.40707830149108L220.41818181818184,59.623306065151155L220.54090909090908,60.7495458301002L220.78636363636363,59.56444249408014L221.03181818181818,55.07115464522384L221.15454545454546,54.50103992490338L221.39999999999998,53.32989241839471L221.52272727272728,51.42299359338098L222.01363636363635,44.95264483271012L222.13636363636365,48.87305924561403L222.25909090909093,64.01983168880214L222.38181818181818,66.81801682607376L222.50454545454545,46.62499842184408L222.62727272727273,45.9247992027062L222.75,41.206383895174156L222.99545454545455,46.787799726702076L223.11818181818182,55.86474781678754L223.24090909090907,52.645903635700364L223.36363636363637,51.84263386449008L223.85454545454544,38.728224401399274L224.1,44.63057366493828L224.22272727272727,60.48048001617285L224.34545454545454,55.889381079416054L224.5909090909091,57.985729536537676L224.83636363636364,51.58911020822784L225.08181818181816,51.748899026319165L225.32727272727274,57.52662000870991L225.45,40.49470746805048L225.57272727272726,43.74128409399455L225.8181818181818,54.10825890803656L225.9409090909091,57.34542345109179L226.06363636363636,63.550723261252614L226.18636363636364,56.59921107289131L226.30909090909088,53.687705359440656L226.4318181818182,54.31934586460288L226.67727272727274,54.25715713080703L226.79999999999998,39.66881504283512L227.1681818181818,57.72445873395304L227.29090909090908,53.95471929694632L227.53636363636366,56.01988459737352L227.6590909090909,67.93006150590132L228.02727272727273,63.76599429845861L228.15,72.86117411534025L228.27272727272728,70.66362726418197L228.39545454545456,48.69311760104512L228.5181818181818,46.84061650178916L228.76363636363638,54.53677530929697L229.25454545454545,57.63384583698861L229.5,53.0196110751658L229.62272727272727,55.23731541314301L229.74545454545455,41.75703697013009L230.11363636363637,59.57047709985861L230.23636363636365,55.5408280203598L230.48181818181817,56.3103649641985L230.60454545454547,66.74106927072492L230.72727272727272,57.53082224143836L230.97272727272727,55.53426697500524L231.09545454545454,66.88511036225943L231.21818181818182,66.78575745258009L231.3409090909091,47.31175236125753L231.58636363636364,42.66048503847895L231.8318181818182,47.25757556517112L232.0772727272727,47.329599698538715L232.2,48.407507419678666L232.44545454545457,45.44741748179581L232.5681818181818,48.79823578043138L232.6909090909091,36.05823339209968L232.81363636363636,40.86455116978891L233.0590909090909,57.220781880487664L233.4272727272727,57.82567548624856L233.55,70.72946280562192L233.6727272727273,59.75667540027683L233.79545454545456,49.688971279823704L233.9181818181818,51.26062162643508L234.16363636363639,57.07390441850329L234.28636363636363,40.57289519124532L234.4090909090909,42.048005745092865L234.65454545454546,50.99616915699633L234.77727272727273,53.443324526449786L234.9,59.98259849566267L235.02272727272728,53.874842106608824L235.2681818181818,57.153835339928634L235.3909090909091,51.148192248891775L235.51363636363638,52.95451715915462L236.00454545454548,64.80750058886845L236.37272727272727,63.35590015330378L236.49545454545452,70.73394592490871L236.61818181818182,59.503461074156036L236.98636363636362,69.4472203520869L237.1090909090909,68.12957458503654L237.2318181818182,47.472468071029255L237.35454545454547,46.721346505192315L237.47727272727272,44.95619032047634L237.72272727272727,51.03668580012986L237.84545454545454,59.60784990921101L237.96818181818182,55.973571948217256L238.33636363636361,50.12125383139069L238.45909090909092,51.79944518995532L238.70454545454544,48.450436272972354L238.8272727272727,47.69152043586186L238.95,61.34934402103352L239.3181818181818,58.94815086878418L239.5636363636364,50.67542594009883L239.68636363636364,43.30949209531693L239.8090909090909,45.38357860883406L239.9318181818182,61.04187335396013L240.05454545454543,62.3285596479428L240.4227272727273,49.423125098712376L240.7909090909091,57.80562707020867L240.91363636363636,52.98341785411456L241.28181818181818,47.8901720675255L241.40454545454546,50.344797545617354L241.89545454545453,65.17437501784893L242.26363636363635,62.406953573445875L242.38636363636363,70.55238105469171L242.6318181818182,55.12234727708433L242.75454545454545,55.331102467584216L242.87727272727273,66.02777001282035L243.12272727272727,44.96302834960099L243.24545454545455,44.597852276636814L243.36818181818182,38.6986106277746L243.4909090909091,46.97450124668532L243.9818181818182,46.432023124580326L244.10454545454544,49.53937294285578L244.22727272727272,45.714564988222236L244.47272727272727,33.44882017128063L244.59545454545454,39.26108699094689L244.71818181818182,43.206973932493355L245.20909090909092,48.953806612278214L245.3318181818182,63.89491173429401" style="fill: none;" fill="none"></path></g></g></g></g><g opacity="0.2"><g><g><g><path stroke="rgb(255, 112, 67)" stroke-width="2px" d="M25.15909090909091,143.0653097132842L25.281818181818185,137.8833712786436L25.772727272727273,140.38566943506402L25.895454545454545,138.08546035488448L26.14090909090909,134.18110665182274L26.263636363636365,134.0500401854515L26.386363636363637,138.4048786411683L26.509090909090908,137.26165820161503L26.631818181818183,138.72454006473225L26.754545454545454,136.58846854170164L26.87727272727273,137.2161738475164L27,131.69133890668553L27.490909090909092,136.79355483750504L27.613636363636367,133.86069813370705L28.595454545454547,133.79831352829933L28.71818181818182,135.5008845428626L28.96363636363636,126.85161619385084L29.331818181818182,129.32670507828396L29.454545454545453,131.04101741313934L29.7,130.15646188457808L29.822727272727274,130.55547668536505L29.94545454545455,126.53429993987083L30.068181818181817,129.0514803081751L30.313636363636363,129.7022350281477L30.55909090909091,132.88900220394135L30.68181818181818,140.0202009479205L31.05,134.45192621648312L31.172727272727272,125.57376180092496L31.295454545454543,126.41312916080159L31.418181818181818,130.97762931386632L31.540909090909093,128.49027304848036L31.90909090909091,123.44169541200003L32.03181818181818,121.25047151247662L32.27727272727273,126.29364708065987L32.52272727272727,130.87000791231793L32.64545454545455,128.147279287378L32.768181818181816,127.5997186601162L32.89090909090909,122.94639382759732L33.25909090909091,125.84443990389508L33.38181818181818,127.22907355924448L33.50454545454545,128.3892959256967L33.627272727272725,137.21675516664982L33.872727272727275,126.5673577686151L34.24090909090909,123.92576405405998L34.85454545454545,120.63835351665816L34.97727272727273,118.50147300958633L35.1,120.89480145772299L35.222727272727276,122.13836907347044L35.34545454545455,125.2170042594274L35.46818181818182,130.85323586066565L36.08181818181818,123.39774503310522L37.06363636363636,120.37553979953131L37.30909090909091,127.11945622165999L37.43181818181818,120.99929301937422L37.554545454545455,128.358691573143L38.413636363636364,125.77807226777077L38.78181818181818,118.45471550027531L39.027272727272724,122.21056316296261L39.15,124.89364051818848L39.27272727272727,126.31337214509648L39.763636363636365,124.09371002515158L39.88636363636364,127.41729054848355L40.009090909090915,119.04549046357474L40.377272727272725,118.98454699913663L40.5,126.43354385097823L40.86818181818182,112.11157772938412L41.3590909090909,124.85184300939244L41.60454545454545,122.8855387767156L41.85,114.35597796241444L41.972727272727276,120.96699996789297L42.095454545454544,119.65511077642441L42.21818181818182,122.64306459824246L42.34090909090909,122.49669153491658L42.46363636363637,134.54642483592033L42.709090909090904,121.94087529182434L42.95454545454545,117.28029612700146L43.32272727272728,116.47461433211964L43.445454545454545,119.4054750998815L43.56818181818182,118.66661185026169L43.81363636363636,108.93405640125276L43.93636363636364,111.56799792249998L44.059090909090905,117.21946760018668L44.42727272727273,122.54148184259734L44.67272727272728,114.28929645816487L44.79545454545455,111.5664108991623L45.04090909090909,120.30807583530745L45.163636363636364,117.84835322697958L45.53181818181818,123.72505201896033L46.022727272727266,118.38325966397923L46.14545454545454,123.28446958462399L46.268181818181816,113.46185608704886L46.39090909090909,114.97980191310248L46.63636363636364,110.57010505596799L46.75909090909091,105.56401013334593L47.00454545454546,113.97265656789145L47.25,118.62570289770764L47.37272727272727,115.93789541721344L47.49545454545454,122.09856086969376L47.61818181818182,108.81015806396803L47.86363636363637,117.19260756174725L47.986363636363635,117.41391553481421L48.845454545454544,114.73254014054936L49.336363636363636,115.74347400665283L49.82727272727273,104.22207359472912L49.95,110.82045246164006L50.07272727272727,108.79820455114049L50.56363636363637,108.44894447922708L50.68636363636363,104.56525523463887L50.809090909090905,114.54864436388016L50.93181818181818,117.22121376792592L51.3,127.39376591145992L51.42272727272727,121.11167991161346L51.79090909090909,109.92522541681927L51.913636363636364,115.9705730676651L52.15909090909091,113.70936541755995L52.28181818181818,113.43561052282652L52.404545454545456,112.62754598259927L52.65,105.03300273418428L52.77272727272727,104.63796212275824L52.89545454545455,109.75044507781666L53.018181818181816,106.0339723924796L53.14090909090909,109.66643893718721L53.263636363636365,103.89893530805907L53.63181818181818,104.9679745634397L53.75454545454546,110.99717789888383L54,106.88621276617052L54.49090909090909,119.76533595720929L54.61363636363636,107.51482431093854L54.85909090909091,110.37682418028515L55.10454545454546,108.29912770787877L55.227272727272734,112.41542417804402L55.84090909090909,105.80295661091806L56.20909090909091,101.37260192632677L56.331818181818186,119.41733577847481L56.45454545454545,105.74114227294923L56.57727272727272,102.97527446349463L56.82272727272727,108.00180617968243L57.31363636363636,116.54559715588888L57.55909090909091,95.4268123606841L57.804545454545455,106.53423839807512L57.92727272727272,112.44569697976114L58.05,110.74400568008424L58.540909090909096,99.37321776151659L58.663636363636364,99.29207179943722L58.90909090909091,102.82151444753012L59.154545454545456,99.74450165033342L59.4,104.8759183684985L60.01363636363636,103.50602104266486L60.25909090909091,115.4227096239726L60.38181818181818,112.33527728915216L60.75,101.34538381298384L60.99545454545455,104.1261095205943L61.11818181818182,103.9616647263368L61.240909090909085,105.13284374276799L61.486363636363635,97.9803594350815L61.60909090909091,96.78538833061856L61.731818181818184,101.0406797528267L62.222727272727276,117.59075590968132L62.345454545454544,100.75529405474664L62.590909090909086,108.81697032848996L62.95909090909091,100.40431875983876L63.449999999999996,97.94857918222746L63.57272727272727,98.9556847413381L63.695454545454545,96.9235875606537L63.81818181818182,108.92238581180574L64.06363636363636,103.76806114117306L64.43181818181819,97.34201355775198L64.55454545454546,93.90762432416281L64.67727272727272,101.26062615712485L65.04545454545455,95.7930876215299L65.16818181818182,119.22771964470547L65.41363636363637,94.05729963382086L66.15,111.01041340827943L66.39545454545454,86.49778141578041L66.51818181818182,93.94175195693971L66.64090909090909,94.75765877962114L66.76363636363637,105.83393230040869L66.88636363636364,97.30893804629645L67.13181818181818,98.46425125002862L67.25454545454545,93.5874611536662L67.86818181818181,99.2794905503591L67.9909090909091,90.85378914078078L68.23636363636363,95.10140184561413L68.48181818181818,100.44698714216551L68.60454545454546,104.12297968069714L68.72727272727272,86.43367274602257L69.09545454545454,108.78764797250432L69.21818181818182,105.67840401331586L69.3409090909091,82.96420985460283L69.58636363636364,96.71675288677217L69.7090909090909,106.18771030505499L69.95454545454545,104.88537419835728L70.07727272727273,94.3300598760446L70.32272727272726,95.72255128622056L70.56818181818181,95.14298274119696L70.81363636363636,97.58263105154039L70.93636363636364,92.72992038726808L71.05909090909091,116.74138013521832L71.30454545454546,94.6725518902143L71.42727272727272,99.08457402388257L71.79545454545455,89.60744976003966L71.91818181818182,100.40564054250719L72.0409090909091,108.12844975789389L72.16363636363636,104.35084793965024L72.4090909090909,88.8947259783745L72.53181818181818,93.23052678505582L72.65454545454546,102.07935337225598L72.77727272727273,95.21641462047896L73.88181818181818,87.47996761401497L74.00454545454546,112.69702577590944L74.25,86.55035211642586L74.61818181818182,76.34307775894803L75.47727272727272,88.85505481561027L75.60000000000001,97.96462624271712L76.09090909090908,87.05339872837068L76.21363636363637,90.9622239470482L76.33636363636363,86.86179771025978L76.58181818181818,75.59751276175183L76.82727272727273,83.04445399840675L77.07272727272728,86.70367006460827L77.31818181818183,95.92314838369688L78.42272727272727,82.68531813224159L78.54545454545455,90.78674956162772L78.66818181818182,83.54481283823651L78.79090909090908,92.3966366449992L79.03636363636363,83.52520271142326L79.1590909090909,87.1057307124138L79.52727272727273,74.29963711897534L79.89545454545454,111.25394412875177L80.63181818181819,79.73837935924531L80.75454545454545,91.17190553744635L80.87727272727273,104.5490799744924L81,100.2602002422015L81.12272727272727,66.68712381521863L81.36818181818182,81.61429399251939L81.49090909090908,90.94679136077565L81.61363636363636,82.79621525605522L81.85909090909091,79.08389800786973L81.98181818181818,79.94644298156105L82.10454545454544,84.84182202816011L82.35,86.63538827498756L82.59545454545454,86.3703863223394L82.7181818181818,77.95836691061658L83.2090909090909,87.76419067382814L84.06818181818181,68.56939538319908L84.19090909090909,77.96388391653699L84.43636363636364,91.25657920042676L84.55909090909091,83.1317270199458L84.80454545454545,77.73575925827028L85.05,84.15371700127922L85.41818181818181,62.10348212718965L86.27727272727272,97.26341390609743L86.64545454545456,91.03390523791315L86.76818181818182,96.23191062609357L87.13636363636364,76.18608180681866L87.25909090909092,79.65411239862443L87.38181818181818,88.71529066562654L87.62727272727273,90.47655059893927L87.75,81.88718243439995L87.87272727272727,81.8013328711192L87.99545454545455,89.61977018912634L88.2409090909091,79.9040309985479L88.85454545454546,80.56147420406343L88.97727272727272,76.92531639337541L89.71363636363637,95.83112755417825L89.95909090909092,56.62383977572125L90.08181818181818,71.61439363161725L90.20454545454545,77.76488268375398L90.32727272727273,83.43504740794502L90.45,76.61867165565492L90.57272727272728,85.24840060869855L90.69545454545455,75.63864274819694L90.81818181818181,76.77924835681917L90.94090909090909,80.76132420698804L91.06363636363636,67.61185888449353L91.30909090909091,56.032229304313674L91.67727272727272,109.0180404384931L91.80000000000001,78.35037493705751L91.92272727272727,74.0235038995743L92.16818181818182,98.97226670384408L92.29090909090908,60.68627470731737L92.65909090909092,93.42600915829343L92.90454545454546,48.54856991767886L93.14999999999999,75.55443767706555L93.27272727272728,84.02252896626793L93.64090909090909,76.9057151079178L93.76363636363637,75.97768221298855L93.88636363636364,79.06722321112953L94.13181818181818,74.53983906904858L94.25454545454546,50.68759445349377L94.37727272727273,75.60099625587465L94.62272727272727,103.85701402028403L94.86818181818182,78.37742948532106L94.99090909090908,83.75300023953122L95.35909090909091,66.61809051036836L95.48181818181818,81.61035958925885L95.60454545454544,94.22656296690306L95.72727272727273,89.99197799960774L95.85,48.84369436899823L95.97272727272727,67.30436537663144L96.09545454545454,72.07382583618165L96.21818181818182,81.99444576104484L96.46363636363637,84.74918230374657L96.58636363636364,73.68234250942868L97.07727272727273,72.54956150054933L97.2,52.90589058399202L97.32272727272728,79.94277381896974L97.56818181818183,101.37242509921393L97.69090909090909,73.22948827346168L97.81363636363636,73.61066563924156L97.93636363636364,79.3623034556707L98.18181818181819,59.92297395070396L98.42727272727274,85.13690227270128L98.67272727272727,92.57373783985776L98.91818181818182,75.16082936525346L99.16363636363636,82.3430604139964L99.4090909090909,83.00846083958946L99.53181818181818,76.26685643196107L99.65454545454546,78.90894526243211L100.02272727272728,76.98373123010002L100.51363636363637,102.36310784022015L100.63636363636364,73.03300682703656L100.88181818181819,81.99976825714113L101.00454545454545,96.55223294099173L101.25,67.59856148560844L101.7409090909091,42.435081938902556L101.86363636363636,63.93248452742897L102.10909090909091,74.81712166468304L102.35454545454546,79.92706272999447L102.84545454545454,60.50637964407605L103.21363636363637,74.01615673303606L103.33636363636364,73.81178879737855L103.58181818181818,76.75741020838421L103.70454545454545,77.62079511086148L103.82727272727273,79.63030262788139L103.95,96.94954578081769L104.07272727272726,66.18940854072572L104.19545454545455,68.96991763512295L104.31818181818181,81.36777047316235L104.4409090909091,92.9595127105713L104.56363636363636,86.59272873401643L105.05454545454546,77.96711985270184L105.17727272727272,70.4988797903061L105.42272727272727,68.44893191258114L105.66818181818182,74.80656508604687L106.03636363636363,47.157294193903624L106.28181818181818,76.07900414864224L106.40454545454546,101.05955162644388L106.52727272727273,77.18170686562858L106.89545454545456,99.49734155337018L107.01818181818182,63.33399548133217L107.14090909090909,65.31978164116543L107.26363636363637,78.22211339076362L107.38636363636363,93.81143921613695L107.63181818181818,39.84130227565768L107.75454545454546,63.77936108907066L107.87727272727273,69.94148536523186L108.12272727272727,69.02352277437848L108.24545454545454,76.79097199440004L108.36818181818182,69.43997714916867L108.49090909090908,69.13685127099357L108.61363636363636,78.57248747348787L108.73636363636363,61.40115135908128L108.98181818181818,46.49568670988086L109.10454545454546,69.74464142322542L109.47272727272727,66.5731941064199L109.96363636363637,56.5685105721156L110.33181818181818,95.42578234275183L110.45454545454547,87.8676699002584L110.57727272727273,40.33029997348788L110.69999999999999,61.95959790547691L110.82272727272728,68.2307449380557L110.94545454545454,79.89137901862465L111.06818181818183,73.67287341753644L111.19090909090909,80.73930923144025L111.43636363636364,69.51085829734804L111.55909090909091,76.54493474960329L111.68181818181819,60.831264098485335L112.17272727272727,69.55914978186291L112.66363636363637,77.20269624392193L112.78636363636363,96.77024750908217L113.03181818181818,60.0264708598455L113.15454545454544,78.40294563770296L113.27727272727273,91.72121012210847L113.39999999999999,85.34455919265748L113.52272727272728,36.592121760050475L113.64545454545454,61.85279432932538L114.01363636363637,73.852565129598L114.13636363636364,80.14234089851381L114.2590909090909,66.63020316759747L114.87272727272727,38.44796651601794L115.11818181818182,68.34086402257286L115.24090909090908,95.86339408159257L115.36363636363636,66.74320453405382L115.48636363636363,66.4494504928589L115.73181818181818,96.1514454483986L116.1,75.7261102795601L116.22272727272728,90.6218715409438L116.5909090909091,59.14390905698143L116.71363636363635,66.45699216922127L116.83636363636364,79.19951641559602L117.08181818181819,76.74536828200024L117.32727272727273,67.15309862295788L117.69545454545455,69.34770876169206L117.81818181818181,37.35774779319766L118.06363636363636,67.6318757136663L118.43181818181819,67.44893038272859L118.55454545454545,74.76897164185844L118.67727272727274,94.09216994047166L118.92272727272727,56.78374453385673L119.04545454545455,77.40818703174592L119.16818181818181,90.79857487479848L119.2909090909091,85.61849975585939L119.41363636363636,33.74040438731515L119.53636363636365,59.97490807374321L119.6590909090909,65.00029041369758L119.7818181818182,76.85233100255333L120.15,66.57147004206978L120.27272727272727,69.2783129612605L120.76363636363637,37.66755773623788L120.88636363636364,63.75037912527722L121.13181818181818,94.61499466498694L121.37727272727273,65.22076729933423L121.62272727272727,92.68758355577788L121.74545454545455,48.79389985402429L121.86818181818181,56.152339120705946L121.9909090909091,73.02903705835344L122.11363636363636,90.96705132722856L122.23636363636363,79.46459794044496L122.48181818181817,57.538760940233885L122.72727272727272,76.58198002974194L122.97272727272727,79.34605304400128L123.3409090909091,76.07206368446352L123.46363636363637,57.570890426635756L123.58636363636363,68.57257827123009L123.70909090909092,38.841265380382566L123.83181818181818,69.80129683017732L124.07727272727273,93.80476399262747L124.32272727272728,64.29088656107587L124.56818181818181,98.08632308244707L124.69090909090909,52.06503345568977L124.93636363636364,72.44889382521313L125.30454545454546,29.939461390177428L125.55000000000001,59.821811159451826L125.67272727272727,73.7793233394623L125.79545454545453,65.50361994902295L126.16363636363637,60.364705761273726L126.53181818181818,66.76892403761548L126.65454545454546,35.42009397347772L126.89999999999999,69.27787973483406L127.14545454545454,65.92333678404492L127.39090909090909,73.93715922037762L127.51363636363637,93.89112635453543L128.00454545454545,91.98472230633101L128.25,30.21234099070233L128.37272727272727,54.420750776926695L128.49545454545455,60.287821332613646L128.61818181818182,71.58295377095543L128.86363636363637,75.70759648084642L128.98636363636365,59.859625637531295L129.10909090909092,62.713694810867324L129.23181818181817,71.6356570919355L129.72272727272727,65.42534742752713L129.96818181818182,90.72109807531041L130.0909090909091,61.64394382635754L130.21363636363637,63.06094789505006L130.33636363636364,69.44516702493034L130.4590909090909,95.15844627221426L130.95,91.51787662506105L131.19545454545454,31.20551699399951L131.3181818181818,62.15989881753923L131.68636363636364,67.72713247934979L131.8090909090909,78.47211156288785L131.9318181818182,63.216918249925L132.05454545454546,66.40051358938219L132.17727272727274,72.7326482931773L132.4227272727273,63.26638563474022L132.54545454545453,37.932931025822995L132.66818181818184,64.359725356102L132.79090909090908,62.198385238647475L133.03636363636363,62.26858560244244L133.40454545454546,94.42441482345265L133.65,56.672405342261015L133.77272727272728,68.97807820638023L134.0181818181818,78.15132065614067L134.1409090909091,27.457250793774932L134.26363636363635,53.66456731160484L134.5090909090909,70.3269419471423L134.63181818181818,64.10290165742241L134.87727272727273,60.27279986937843L135,60.909890274206816L135.61363636363637,66.41546432177228L135.8590909090909,92.76631140708925L135.9818181818182,58.77531294027966L136.10454545454547,58.683840274810805L136.22727272727272,64.6057095527649L136.35,93.40693393349649L136.47272727272727,46.255635062853514L136.59545454545454,51.18184391657513L136.8409090909091,89.22218768795332L136.96363636363637,78.60603157679242L137.08636363636361,27.2223094503085L137.45454545454544,70.52887850999834L137.5772727272727,64.44458468755089L137.7,76.14346647262575L137.8227272727273,58.54545537630719L138.0681818181818,73.513658285141L138.80454545454543,89.950419207414L138.92727272727274,63.009942114353194L139.05,63.77464864651364L139.29545454545453,93.20046175519627L139.78636363636363,89.28313557306927L140.15454545454546,53.627256790796935L140.52272727272728,64.7732532421748L140.8909090909091,58.76277589797975L141.01363636363635,68.95411813259126L141.3818181818182,34.24747381607693L141.50454545454545,64.07757117350899L141.62727272727273,67.8353329896927L141.87272727272727,66.50874062379204L141.99545454545455,65.3992919524511L142.11818181818182,69.44287711381914L142.36363636363635,51.58668959140779L142.48636363636362,56.38835910956067L142.60909090909092,69.72878887255989L142.7318181818182,91.87962953249615L142.85454545454544,81.35652426878613L143.1,61.90412724018098L143.22272727272727,49.78506886959079L143.46818181818182,63.45456504821779L143.71363636363634,55.60609364509584L143.83636363636364,62.47678184509279L144.0818181818182,49.77437967061999L144.3272727272727,33.6570127209028L144.45000000000002,61.46308505535127L144.57272727272726,63.81062412261964L144.69545454545454,90.27913196881613L145.06363636363636,71.72028654813768L145.18636363636364,94.70602968335153L145.3090909090909,52.8816829522451L145.4318181818182,52.38458657264711L145.67727272727274,92.23933124542238L145.8,84.36806682745618L146.78181818181818,63.103271464506804L147.15,65.6969273487727L147.27272727272725,33.844016234080016L147.51818181818183,61.42741902669273L147.76363636363635,60.91020856300992L147.88636363636363,60.24204079310101L148.25454545454545,48.080490867296874L148.37727272727273,51.70698507626854L148.62272727272727,92.29969118038815L148.74545454545455,76.0939725637436L148.86818181818182,28.014486074447632L148.99090909090907,54.7431596517563L149.35909090909092,64.79142222801846L150.34090909090907,57.99977574745816L150.46363636363637,62.527380923430144L150.58636363636364,89.63432748119038L150.83181818181816,60.559498508771284L151.07727272727274,92.77986520528795L151.20000000000002,49.21465996901196L151.32272727272726,49.570922394593595L151.56818181818184,89.3378016750018L151.81363636363636,22.971703946590424L151.93636363636364,55.8424584468206L152.0590909090909,53.905034502347334L152.42727272727274,78.24576401710512L152.54999999999998,57.223106861114516L152.67272727272726,63.66944535573326L153.28636363636363,56.17241783936821L153.53181818181818,89.65690388282141L153.65454545454546,55.647002597649916L153.89999999999998,65.26233051220578L154.02272727272728,96.28192617495856L154.26818181818183,48.79018648465478L155.00454545454545,46.96400447686517L155.12727272727273,69.58929880460106L155.37272727272727,73.88797475894295L155.61818181818182,59.456716219584166L156.1090909090909,33.28533981243771L156.23181818181817,64.20312726497652L156.35454545454544,65.36818806330365L156.47727272727275,92.57024108370146L156.6,65.03387872378033L156.84545454545454,65.07696264982225L157.0909090909091,46.57506440083188L157.21363636363637,47.27410618464154L157.33636363636364,63.86657222112022L157.4590909090909,87.8278130690257L157.58181818181816,72.54064057270688L157.70454545454547,23.58256204922995L157.82727272727274,50.42794152100883L158.3181818181818,70.40309254328412L158.56363636363636,56.90154675642651L158.68636363636364,66.06417073806129L159.4227272727273,86.97368506590527L159.6681818181818,61.215686241785704L159.91363636363636,96.97205145160359L160.03636363636366,47.376736640930204L160.1590909090909,46.56161669890088L160.40454545454546,89.35140410065652L160.89545454545456,45.38921757539117L161.26363636363638,74.94853957494102L161.5090909090909,60.720464229583754L161.87727272727273,64.9972401460012L162.24545454545455,57.103713194529234L162.3681818181818,88.19248362382255L162.61363636363637,55.27625803152722L162.73636363636365,61.47983058293663L162.8590909090909,90.67066698273024L162.98181818181817,45.47871861855191L163.10454545454547,44.97530066967013L163.22727272727272,61.91316310564679L163.35,87.24677685896557L163.59545454545454,20.33931408325833L163.71818181818182,50.92424217859906L163.8409090909091,47.227282365163205L164.2090909090909,77.35848093032838L164.3318181818182,56.49681601921719L164.5772727272727,66.39100913206738L165.5590909090909,56.11880385875703L165.6818181818182,61.724603513876616L165.80454545454546,84.7244795560837L165.9272727272727,43.561956922213255L166.05,41.74270653724673L166.29545454545456,85.21236324310304L166.4181818181818,72.30261359612149L166.54090909090908,21.14950939019522L166.66363636363639,53.09964005152386L166.9090909090909,68.87764040629071L167.03181818181818,62.106558918952956L167.15454545454546,72.86950363715492L167.4,58.32811717192334L167.52272727272728,63.59340969721478L167.7681818181818,62.06472162405652L168.99545454545452,41.77443816264474L169.36363636363637,71.84035215775174L169.48636363636362,17.324774305025755L169.6090909090909,51.190128266811385L169.7318181818182,39.92398663361871L169.97727272727272,57.94216547409695L170.1,71.12808370590211L170.22272727272727,53.04136667648953L170.46818181818182,69.03560006618501L170.83636363636361,26.360056241353362L170.95909090909092,50.38700604438783L171.0818181818182,56.33470976352693L171.20454545454544,87.5937293370565L171.3272727272727,50.796113252639785L171.45,52.30615490674974L171.5727272727273,60.74435357252759L171.69545454545454,83.09809450308484L171.9409090909091,42.19106936454776L172.18636363636364,87.82955481608711L172.3090909090909,71.49448716640474L172.55454545454543,48.613147179285704L172.8,65.042843858401L173.04545454545453,69.50156603256863L173.1681818181818,52.85650277137758L173.2909090909091,58.913998444875105L173.41363636363636,70.61423295736314L173.53636363636363,47.32699517409009L173.6590909090909,64.15811592340471L174.15,89.407798687617L174.76363636363635,46.78579811255139L174.88636363636363,43.11244471867883L175.1318181818182,86.9803514480591L175.25454545454545,69.18993477026623L175.37727272727273,20.8657637635867L175.74545454545455,67.28563938538235L175.86818181818182,60.49538983901344L175.9909090909091,72.31323206424715L176.23636363636362,53.96073504288994L176.4818181818182,43.80932921171191L176.60454545454544,61.4098070462545L176.97272727272727,56.12472756703697L177.21818181818182,52.986046314239516L177.46363636363634,63.406114419301375L177.58636363636364,88.50813770294191L177.8318181818182,40.887756288051634L177.95454545454544,59.351451039314284L178.32272727272726,24.013640026251494L178.44545454545454,55.45539273818336L178.5681818181818,47.28718254963559L178.81363636363636,63.99406456947328L178.93636363636364,74.14148294925691L179.0590909090909,54.22958298524223L179.30454545454546,68.04680053393048L179.42727272727274,44.592637956142454L179.55,59.348179737726866L179.67272727272726,23.3510953585307L179.79545454545453,50.113507548968016L179.91818181818184,57.53235979874931L180.16363636363636,51.65767683585487L180.53181818181818,85.53916627168657L180.65454545454546,43.35529907544458L180.9,57.39491208394371L181.3909090909091,51.91976114114128L181.51363636363635,43.053525924682646L181.75909090909093,62.431425690650954L181.88181818181818,71.23389705022178L182.25,68.04089450836183L182.49545454545455,62.40010960896812L182.74090909090907,51.881593008836134L182.98636363636365,89.0603201488654L183.10909090909092,51.91799287001294L183.23181818181817,53.45403695106508L183.35454545454544,60.34223103523256L183.60000000000002,43.351603388786344L183.96818181818182,86.06956803798677L184.09090909090907,68.83605066935223L184.33636363636364,49.328678091367124L184.45909090909092,43.6791756153107L184.58181818181816,64.35246660312019L184.82727272727274,71.7144158879916L185.31818181818184,47.06596299012506L185.56363636363636,25.379143198331207L185.68636363636364,55.76370849212013L185.93181818181816,88.86274679501854L186.05454545454546,56.50024646520616L186.17727272727274,60.47104958693188L186.42272727272726,90.30062972505888L186.54545454545456,45.96802576382959L187.03636363636363,68.03451104958855L187.15909090909093,17.446714282035856L187.28181818181818,46.17125316460931L187.40454545454546,38.84216719865802L187.52727272727273,64.71428140004478L187.77272727272728,69.53434093793236L188.01818181818183,53.87466444571815L188.14090909090908,62.31584264834724L188.26363636363635,41.16480016708377L188.38636363636365,58.12761290868126L188.50909090909093,19.485000411669432L188.63181818181818,47.58716974655789L189,49.49481600522998L189.36818181818182,80.60184383392335L189.61363636363637,38.73653952280682L189.8590909090909,87.66210838158928L189.98181818181817,69.73385496934257L190.10454545454544,19.190096994241088L190.22727272727275,46.453495760758756L190.35,43.18899317582452L190.8409090909091,53.2234367132187L191.33181818181816,60.181044280529036L191.57727272727274,48.70049977302554L191.7,51.261601785818755L191.82272727272726,82.49696189165117L192.0681818181818,49.117696821689634L192.1909090909091,58.22488550345105L192.31363636363636,92.99192512035371L192.6818181818182,55.63857678572339L193.04999999999998,16.06705609957379L193.1727272727273,45.699301600456266L193.29545454545456,40.293325424194364L193.54090909090908,57.051266272862776L193.66363636363636,71.66188055276872L193.78636363636366,48.28005794684094L194.03181818181818,63.50848847627641L194.15454545454546,42.77236197392148L194.4,23.47760631640753L194.52272727272728,47.297774493694334L194.64545454545456,54.76706667741142L194.7681818181818,84.75204690297447L194.89090909090908,51.57196873426439L195.01363636363638,56.26535816987358L195.2590909090909,83.66966162125271L195.38181818181818,43.123505254586576L195.75,86.2312410672506L196.36363636363637,66.27173924446107L196.85454545454547,53.6898005406062L197.83636363636364,51.20446010430656L197.9590909090909,47.32797656456631L198.0818181818182,58.308471679687514L198.20454545454547,85.87050491571428L198.3272727272727,42.16003620624545L198.69545454545457,85.44899328549705L198.8181818181818,67.92521421114606L199.06363636363636,45.0235037406286L199.1863636363636,43.13497249285382L199.4318181818182,60.81154787540437L199.55454545454546,71.49781151612602L199.6772727272727,49.046983659267454L199.8,50.89869950215024L200.04545454545456,39.68672885497415L200.29090909090908,21.62384812037152L200.41363636363639,47.4967668851217L200.53636363636363,53.926129976908385L200.78181818181818,49.028814673423796L200.90454545454546,45.35315368572873L201.02727272727273,59.2646996577581L201.27272727272728,42.65706185499829L201.5181818181818,53.77149466673535L202.25454545454548,64.37761141856514L202.5,71.50789950291318L202.9909090909091,45.29184772570932L203.11363636363637,64.38071473439537L203.23636363636362,20.22210423151654L203.72727272727272,46.28077987829846L204.3409090909091,33.16028767824176L204.46363636363637,54.59161881605786L204.95454545454544,45.71266973018649L205.3227272727273,54.9128252665202L205.44545454545454,69.67310601472856L205.8136363636364,60.91288749376935L206.1818181818182,24.130991339683533L206.30454545454543,53.82595741748811L206.42727272727274,56.87718882163368L206.79545454545453,53.25952712694806L206.9181818181818,58.90120500326158L207.28636363636363,39.1574234167735L207.4090909090909,55.447886427243574L207.53181818181818,90.1086529493332L207.65454545454546,70.60428643226625L207.77727272727273,14.952346821626037L208.63636363636363,50.47358059883119L208.7590909090909,55.365255117416396L208.8818181818182,42.6631270249685L209.00454545454545,57.17622999350232L209.25,51.13751335938774L209.37272727272727,55.100456515948L209.49545454545455,83.3247691790263L209.61818181818182,48.895946780840575L209.7409090909091,54.89664558569592L209.86363636363635,61.27184653282167L209.98636363636362,83.8850989341736L210.10909090909092,44.18608589967096L210.2318181818182,39.72676251331967L210.6,67.91074091196062L210.84545454545454,52.231772581736266L211.45909090909092,52.41963370641075L211.5818181818182,58.18868015209836L211.70454545454544,65.6916667421659L211.95000000000002,60.09643250703813L212.44090909090912,81.55588799715044L212.8090909090909,60.38795852661134L213.05454545454546,42.52636893590295L213.54545454545453,70.66688323020936L213.66818181818184,19.685451626777677L213.7909090909091,45.87567780415219L213.91363636363636,46.29553610086444L214.28181818181818,72.34845602512361L214.52727272727273,54.12055138746899L214.65,61.06596672534944L214.77272727272725,44.12505402167642L214.89545454545456,59.484310090541854L215.01818181818183,20.979269087314634L215.26363636363635,57.233681122461974L215.38636363636363,87.29775611559552L215.75454545454545,58.06252284844719L216.12272727272727,34.27941763401034L216.24545454545455,55.027868986129775L216.36818181818182,85.78975681463879L216.98181818181817,61.907283604145064L217.10454545454544,55.057558258374556L217.22727272727272,70.3838095466296L218.20909090909092,52.87849122285844L218.33181818181816,86.12467620770138L218.45454545454544,53.12757873535158L218.70000000000002,60.10395650068921L218.82272727272726,82.81910552581154L218.94545454545454,43.49274679025018L219.06818181818184,37.84831041097644L219.1909090909091,54.5781357487043L219.31363636363636,84.71180105209352L219.43636363636364,68.06678199768068L219.68181818181816,49.2077283461889L219.92727272727274,59.13338784376782L220.04999999999998,53.007495443026244L220.17272727272726,70.77759468555452L220.41818181818184,55.44764771064125L220.54090909090908,62.43890547752382L220.78636363636363,57.78678749005002L221.03181818181818,48.33122287193936L221.15454545454546,53.64586784442268L221.39999999999998,51.573171158631666L221.52272727272728,48.56264535586041L222.01363636363635,35.247121691703825L222.13636363636365,54.75368086496991L222.25909090909093,86.7399903535843L222.38181818181818,71.01529453198117L222.50454545454545,16.335470815499633L222.62727272727273,44.8745003739993L222.75,34.128760933876066L222.99545454545455,55.159923473993956L223.11818181818182,69.48016995191576L223.24090909090907,47.81763736406964L223.36363636363637,50.63772920767468L223.85454545454544,19.05661020676297L224.1,53.48409756024681L224.22272727272727,84.25533954302472L224.34545454545454,49.00273267428082L224.5909090909091,61.13025222222012L224.83636363636364,41.99418121576312L225.08181818181816,51.98858225345613L225.32727272727274,66.193201482296L225.45,14.946838657061278L225.57272727272726,48.6111490329107L225.8181818181818,69.65872112909955L225.9409090909091,62.201170265674605L226.06363636363636,72.85867297649385L226.18636363636364,46.17194279034936L226.30909090909088,49.32044678926471L226.4318181818182,55.266806622346266L226.67727272727274,54.163874030113234L226.79999999999998,17.786301910877256L227.1681818181818,84.8079242706299L227.29090909090908,48.30011014143628L227.53636363636366,59.11763254801434L227.6590909090909,85.79532686869305L228.02727272727273,57.51989348729454L228.15,86.50394384066266L228.27272727272728,67.36730698744458L228.39545454545456,15.737353106339782L228.5181818181818,44.0618648529053L228.76363636363638,66.0810135205587L229.25454545454545,62.279451628526076L229.5,46.09825893243158L229.62272727272727,58.56387192010881L229.74545454545455,21.536619305610685L230.11363636363637,86.29063729445141L230.23636363636365,49.49635440111163L230.48181818181817,57.46467037995659L230.60454545454547,82.38712573051454L230.72727272727272,43.71545169750851L230.97272727272727,52.539434075355544L231.09545454545454,83.91137544314068L231.21818181818182,66.63672808806103L231.3409090909091,18.10074472427371L231.58636363636364,35.683584054311154L231.8318181818182,54.153211355209365L232.0772727272727,47.437635898590116L232.2,50.024369001388564L232.44545454545457,41.007282574971555L232.5681818181818,53.82446322838467L232.6909090909091,16.94822980960211L232.81363636363636,48.07402783632281L233.0590909090909,81.75512794653577L233.4272727272727,58.733015894889846L233.55,90.08514378468197L233.6727272727273,43.297494292259245L233.79545454545456,34.58741509914401L233.9181818181818,53.618097146352156L234.16363636363639,65.79382860660554L234.28636363636363,15.821381350358337L234.4090909090909,44.260671575864194L234.65454545454546,64.4184142748515L234.77727272727273,57.11405758063L234.9,69.79150944948198L235.02272727272728,44.713207523028075L235.2681818181818,62.07232518990837L235.3909090909091,42.139727612336515L235.51363636363638,55.66400452454887L236.00454545454548,82.58697573343915L236.37272727272727,61.178499499956786L236.49545454545452,81.8010145823161L236.61818181818182,42.65773379802707L236.98636363636362,84.36285926898323L237.1090909090909,66.15310593446098L237.2318181818182,16.48680830001834L237.35454545454547,45.59466415643695L237.47727272727272,42.30845604340237L237.72272727272727,60.157429019610106L237.84545454545454,72.46459607283276L237.96818181818182,50.52215500672661L238.33636363636361,41.342776656150846L238.45909090909092,54.31673222780229L238.70454545454544,43.42692289749783L238.8272727272727,46.553146680196164L238.95,81.83607939879101L239.3181818181818,55.346361140410124L239.5636363636364,38.26633854707086L239.68636363636364,32.2605913281441L239.8090909090909,48.49470837910974L239.9318181818182,84.52931547164918L240.05454545454543,64.25858908891679L240.4227272727273,30.06497327486676L240.7909090909091,70.37938002745312L240.91363636363636,45.750104029973386L241.28181818181818,40.250303387641935L241.40454545454546,54.026735762755095L241.89545454545453,87.4187412261963L242.26363636363635,58.25582140684129L242.38636363636363,82.77052227656048L242.6318181818182,31.977296610673307L242.75454545454545,55.64423525333406L242.87727272727273,82.07277133067451L243.12272727272727,13.365915854771941L243.24545454545455,44.05008816719058L243.36818181818182,29.84974815448129L243.4909090909091,59.38833717505139L243.9818181818182,45.61830594142282L244.10454545454544,54.20039767026903L244.22727272727272,39.97735305627191L244.47272727272727,15.050202945868193L244.59545454545454,47.97948722044629L244.71818181818182,49.12580434481305L245.20909090909092,57.57405563195549L245.3318181818182,86.30656941731773" style="fill: none;" fill="none"></path></g></g></g></g></g></g><g transform="translate(60, 178)" clip-path="url(#clip_1)"><clipPath id="clip_1"><rect width="270" height="22"></rect></clipPath><g><g><line x1="0" y1="0" x2="0" y2="5" style="visibility: inherit;" fill="rgb(0, 0, 0)" stroke="rgb(204, 204, 204)" stroke-width="1px"></line><line x1="24.545454545454547" y1="0" x2="24.545454545454547" y2="5" style="visibility: inherit;" fill="rgb(0, 0, 0)" stroke="rgb(204, 204, 204)" stroke-width="1px"></line><line x1="49.09090909090909" y1="0" x2="49.09090909090909" y2="5" style="visibility: inherit;" fill="rgb(0, 0, 0)" stroke="rgb(204, 204, 204)" stroke-width="1px"></line><line x1="73.63636363636363" y1="0" x2="73.63636363636363" y2="5" style="visibility: inherit;" fill="rgb(0, 0, 0)" stroke="rgb(204, 204, 204)" stroke-width="1px"></line><line x1="98.18181818181819" y1="0" x2="98.18181818181819" y2="5" style="visibility: inherit;" fill="rgb(0, 0, 0)" stroke="rgb(204, 204, 204)" stroke-width="1px"></line><line x1="122.72727272727272" y1="0" x2="122.72727272727272" y2="5" style="visibility: inherit;" fill="rgb(0, 0, 0)" stroke="rgb(204, 204, 204)" stroke-width="1px"></line><line x1="147.27272727272725" y1="0" x2="147.27272727272725" y2="5" style="visibility: inherit;" fill="rgb(0, 0, 0)" stroke="rgb(204, 204, 204)" stroke-width="1px"></line><line x1="171.8181818181818" y1="0" x2="171.8181818181818" y2="5" style="visibility: inherit;" fill="rgb(0, 0, 0)" stroke="rgb(204, 204, 204)" stroke-width="1px"></line><line x1="196.36363636363637" y1="0" x2="196.36363636363637" y2="5" style="visibility: inherit;" fill="rgb(0, 0, 0)" stroke="rgb(204, 204, 204)" stroke-width="1px"></line><line x1="220.90909090909093" y1="0" x2="220.90909090909093" y2="5" style="visibility: inherit;" fill="rgb(0, 0, 0)" stroke="rgb(204, 204, 204)" stroke-width="1px"></line><line x1="245.45454545454544" y1="0" x2="245.45454545454544" y2="5" style="visibility: inherit;" fill="rgb(0, 0, 0)" stroke="rgb(204, 204, 204)" stroke-width="1px"></line><line x1="270" y1="0" x2="270" y2="5" style="visibility: inherit;" fill="rgb(0, 0, 0)" stroke="rgb(204, 204, 204)" stroke-width="1px"></line></g><g transform="translate(0, 8)"><text x="0" y="0" dx="0em" dy="0.95em" style="text-anchor: middle; visibility: hidden; font-family: &quot;Helvetica Neue&quot;, sans-serif; font-size: 12px; font-weight: 200;" fill="rgb(50, 49, 63)" stroke="none" stroke-width="1px">-200</text><text x="24.545454545454547" y="0" dx="0em" dy="0.95em" style="text-anchor: middle; visibility: inherit; font-family: &quot;Helvetica Neue&quot;, sans-serif; font-size: 12px; font-weight: 200;" fill="rgb(50, 49, 63)" stroke="none" stroke-width="1px">0</text><text x="49.09090909090909" y="0" dx="0em" dy="0.95em" style="text-anchor: middle; visibility: hidden; font-family: &quot;Helvetica Neue&quot;, sans-serif; font-size: 12px; font-weight: 200;" fill="rgb(50, 49, 63)" stroke="none" stroke-width="1px">200</text><text x="73.63636363636363" y="0" dx="0em" dy="0.95em" style="text-anchor: middle; visibility: inherit; font-family: &quot;Helvetica Neue&quot;, sans-serif; font-size: 12px; font-weight: 200;" fill="rgb(50, 49, 63)" stroke="none" stroke-width="1px">400</text><text x="98.18181818181819" y="0" dx="0em" dy="0.95em" style="text-anchor: middle; visibility: hidden; font-family: &quot;Helvetica Neue&quot;, sans-serif; font-size: 12px; font-weight: 200;" fill="rgb(50, 49, 63)" stroke="none" stroke-width="1px">600</text><text x="122.72727272727272" y="0" dx="0em" dy="0.95em" style="text-anchor: middle; visibility: inherit; font-family: &quot;Helvetica Neue&quot;, sans-serif; font-size: 12px; font-weight: 200;" fill="rgb(50, 49, 63)" stroke="none" stroke-width="1px">800</text><text x="147.27272727272725" y="0" dx="0em" dy="0.95em" style="text-anchor: middle; visibility: hidden; font-family: &quot;Helvetica Neue&quot;, sans-serif; font-size: 12px; font-weight: 200;" fill="rgb(50, 49, 63)" stroke="none" stroke-width="1px">1k</text><text x="171.8181818181818" y="0" dx="0em" dy="0.95em" style="text-anchor: middle; visibility: inherit; font-family: &quot;Helvetica Neue&quot;, sans-serif; font-size: 12px; font-weight: 200;" fill="rgb(50, 49, 63)" stroke="none" stroke-width="1px">1.2k</text><text x="196.36363636363637" y="0" dx="0em" dy="0.95em" style="text-anchor: middle; visibility: hidden; font-family: &quot;Helvetica Neue&quot;, sans-serif; font-size: 12px; font-weight: 200;" fill="rgb(50, 49, 63)" stroke="none" stroke-width="1px">1.4k</text><text x="220.90909090909093" y="0" dx="0em" dy="0.95em" style="text-anchor: middle; visibility: inherit; font-family: &quot;Helvetica Neue&quot;, sans-serif; font-size: 12px; font-weight: 200;" fill="rgb(50, 49, 63)" stroke="none" stroke-width="1px">1.6k</text><text x="245.45454545454544" y="0" dx="0em" dy="0.95em" style="text-anchor: middle; visibility: hidden; font-family: &quot;Helvetica Neue&quot;, sans-serif; font-size: 12px; font-weight: 200;" fill="rgb(50, 49, 63)" stroke="none" stroke-width="1px">1.8k</text><text x="270" y="0" dx="0em" dy="0.95em" style="text-anchor: middle; visibility: hidden; font-family: &quot;Helvetica Neue&quot;, sans-serif; font-size: 12px; font-weight: 200;" fill="rgb(50, 49, 63)" stroke="none" stroke-width="1px">2k</text></g><line x1="0" y1="0" x2="270" y2="0" fill="rgb(0, 0, 0)" stroke="rgb(204, 204, 204)" stroke-width="1px"></line></g></g></g></g></svg>