<svg viewBox="0 0 330 200" xmlns="http://www.w3.org/2000/svg"><g><g><g><g><g><line x1="50" y1="178" x2="45" y2="178" style="visibility: inherit;" fill="rgb(0, 0, 0)" stroke="rgb(204, 204, 204)" stroke-width="1px"></line><line x1="50" y1="152.57142857142858" x2="45" y2="152.57142857142858" style="visibility: inherit;" fill="rgb(0, 0, 0)" stroke="rgb(204, 204, 204)" stroke-width="1px"></line><line x1="50" y1="127.14285714285714" x2="45" y2="127.14285714285714" style="visibility: inherit;" fill="rgb(0, 0, 0)" stroke="rgb(204, 204, 204)" stroke-width="1px"></line><line x1="50" y1="101.71428571428572" x2="45" y2="101.71428571428572" style="visibility: inherit;" fill="rgb(0, 0, 0)" stroke="rgb(204, 204, 204)" stroke-width="1px"></line><line x1="50" y1="76.28571428571429" x2="45" y2="76.28571428571429" style="visibility: inherit;" fill="rgb(0, 0, 0)" stroke="rgb(204, 204, 204)" stroke-width="1px"></line><line x1="50" y1="50.85714285714286" x2="45" y2="50.85714285714286" style="visibility: inherit;" fill="rgb(0, 0, 0)" stroke="rgb(204, 204, 204)" stroke-width="1px"></line><line x1="50" y1="25.428571428571445" x2="45" y2="25.428571428571445" style="visibility: inherit;" fill="rgb(0, 0, 0)" stroke="rgb(204, 204, 204)" stroke-width="1px"></line><line x1="50" y1="0" x2="45" y2="0" style="visibility: inherit;" fill="rgb(0, 0, 0)" stroke="rgb(204, 204, 204)" stroke-width="1px"></line></g><g transform="translate(40, 0)"><text x="0" y="178" dx="0em" dy="0.3em" style="text-anchor: end; visibility: hidden; font-family: &quot;Helvetica Neue&quot;, sans-serif; font-size: 12px; font-weight: 200;" fill="rgb(50, 49, 63)" stroke="none" stroke-width="1px">-0.5</text><text x="0" y="152.57142857142858" dx="0em" dy="0.3em" style="text-anchor: end; visibility: inherit; font-family: &quot;Helvetica Neue&quot;, sans-serif; font-size: 12px; font-weight: 200;" fill="rgb(50, 49, 63)" stroke="none" stroke-width="1px">0</text><text x="0" y="127.14285714285714" dx="0em" dy="0.3em" style="text-anchor: end; visibility: inherit; font-family: &quot;Helvetica Neue&quot;, sans-serif; font-size: 12px; font-weight: 200;" fill="rgb(50, 49, 63)" stroke="none" stroke-width="1px">0.5</text><text x="0" y="101.71428571428572" dx="0em" dy="0.3em" style="text-anchor: end; visibility: inherit; font-family: &quot;Helvetica Neue&quot;, sans-serif; font-size: 12px; font-weight: 200;" fill="rgb(50, 49, 63)" stroke="none" stroke-width="1px">1</text><text x="0" y="76.28571428571429" dx="0em" dy="0.3em" style="text-anchor: end; visibility: inherit; font-family: &quot;Helvetica Neue&quot;, sans-serif; font-size: 12px; font-weight: 200;" fill="rgb(50, 49, 63)" stroke="none" stroke-width="1px">1.5</text><text x="0" y="50.85714285714286" dx="0em" dy="0.3em" style="text-anchor: end; visibility: inherit; font-family: &quot;Helvetica Neue&quot;, sans-serif; font-size: 12px; font-weight: 200;" fill="rgb(50, 49, 63)" stroke="none" stroke-width="1px">2</text><text x="0" y="25.428571428571445" dx="0em" dy="0.3em" style="text-anchor: end; visibility: inherit; font-family: &quot;Helvetica Neue&quot;, sans-serif; font-size: 12px; font-weight: 200;" fill="rgb(50, 49, 63)" stroke="none" stroke-width="1px">2.5</text><text x="0" y="0" dx="0em" dy="0.3em" style="text-anchor: end; visibility: hidden; font-family: &quot;Helvetica Neue&quot;, sans-serif; font-size: 12px; font-weight: 200;" fill="rgb(50, 49, 63)" stroke="none" stroke-width="1px">3</text></g><line x1="50" y1="0" x2="50" y2="178" fill="rgb(0, 0, 0)" stroke="rgb(204, 204, 204)" stroke-width="1px"></line></g></g><g transform="translate(50, 0)" clip-path="url(#clip_0)"><clipPath id="clip_0"><rect width="280" height="178"></rect></clipPath><g><g><g><line x1="0" y1="0" x2="0" y2="178" fill="rgb(0, 0, 0)" stroke="rgb(60, 60, 60)" stroke-width="1px" opacity="0.25"></line><line x1="25.454545454545457" y1="0" x2="25.454545454545457" y2="178" fill="rgb(0, 0, 0)" stroke="rgb(60, 60, 60)" stroke-width="1px" opacity="0.25"></line><line x1="50.909090909090914" y1="0" x2="50.909090909090914" y2="178" fill="rgb(0, 0, 0)" stroke="rgb(60, 60, 60)" stroke-width="1px" opacity="0.25"></line><line x1="76.36363636363636" y1="0" x2="76.36363636363636" y2="178" fill="rgb(0, 0, 0)" stroke="rgb(60, 60, 60)" stroke-width="1px" opacity="0.25"></line><line x1="101.81818181818183" y1="0" x2="101.81818181818183" y2="178" fill="rgb(0, 0, 0)" stroke="rgb(60, 60, 60)" stroke-width="1px" opacity="0.25"></line><line x1="127.27272727272727" y1="0" x2="127.27272727272727" y2="178" fill="rgb(0, 0, 0)" stroke="rgb(60, 60, 60)" stroke-width="1px" opacity="0.25"></line><line x1="152.72727272727272" y1="0" x2="152.72727272727272" y2="178" fill="rgb(0, 0, 0)" stroke="rgb(60, 60, 60)" stroke-width="1px" opacity="0.25"></line><line x1="178.1818181818182" y1="0" x2="178.1818181818182" y2="178" fill="rgb(0, 0, 0)" stroke="rgb(60, 60, 60)" stroke-width="1px" opacity="0.25"></line><line x1="203.63636363636365" y1="0" x2="203.63636363636365" y2="178" fill="rgb(0, 0, 0)" stroke="rgb(60, 60, 60)" stroke-width="1px" opacity="0.25"></line><line x1="229.0909090909091" y1="0" x2="229.0909090909091" y2="178" fill="rgb(0, 0, 0)" stroke="rgb(60, 60, 60)" stroke-width="1px" opacity="0.25"></line><line x1="254.54545454545453" y1="0" x2="254.54545454545453" y2="178" fill="rgb(0, 0, 0)" stroke="rgb(60, 60, 60)" stroke-width="1px" opacity="0.25"></line><line x1="280" y1="0" x2="280" y2="178" fill="rgb(0, 0, 0)" stroke="rgb(60, 60, 60)" stroke-width="1px" opacity="0.25"></line></g><g><line x1="0" y1="178" x2="280" y2="178" fill="rgb(0, 0, 0)" stroke="rgb(60, 60, 60)" stroke-width="1px" opacity="0.25"></line><line x1="0" y1="152.57142857142858" x2="280" y2="152.57142857142858" fill="rgb(0, 0, 0)" stroke="rgb(60, 60, 60)" stroke-width="1px" opacity="0.25"></line><line x1="0" y1="127.14285714285714" x2="280" y2="127.14285714285714" fill="rgb(0, 0, 0)" stroke="rgb(60, 60, 60)" stroke-width="1px" opacity="0.25"></line><line x1="0" y1="101.71428571428572" x2="280" y2="101.71428571428572" fill="rgb(0, 0, 0)" stroke="rgb(60, 60, 60)" stroke-width="1px" opacity="0.25"></line><line x1="0" y1="76.28571428571429" x2="280" y2="76.28571428571429" fill="rgb(0, 0, 0)" stroke="rgb(60, 60, 60)" stroke-width="1px" opacity="0.25"></line><line x1="0" y1="50.85714285714286" x2="280" y2="50.85714285714286" fill="rgb(0, 0, 0)" stroke="rgb(60, 60, 60)" stroke-width="1px" opacity="0.25"></line><line x1="0" y1="25.428571428571445" x2="280" y2="25.428571428571445" fill="rgb(0, 0, 0)" stroke="rgb(60, 60, 60)" stroke-width="1px" opacity="0.25"></line><line x1="0" y1="0" x2="280" y2="0" fill="rgb(0, 0, 0)" stroke="rgb(60, 60, 60)" stroke-width="1px" opacity="0.25"></line></g></g></g><g><g><line x1="0" y1="152.57142857142858" x2="280" y2="152.57142857142858" fill="rgb(0, 0, 0)" stroke="rgb(153, 153, 153)" stroke-width="1.5px"></line></g></g><g><g><line x1="25.454545454545457" y1="0" x2="25.454545454545457" y2="178" fill="rgb(0, 0, 0)" stroke="rgb(153, 153, 153)" stroke-width="1.5px"></line></g></g><g><g><g><g><g><path stroke="rgb(255, 112, 67)" stroke-width="2px" d="M26.090909090909093,25.077507972717285L26.21818181818182,30.269609229905257L26.727272727272727,35.77582998525992L26.854545454545452,40.522529649133446L27.10909090909091,46.216311006961064L27.236363636363638,49.36868657172411L27.363636363636363,51.53715210698343L27.49090909090909,51.21625300193401L27.618181818181817,52.094135760817764L27.745454545454546,53.57006908307008L27.872727272727275,52.36411094958737L28,55.49005804167216L28.50909090909091,52.0731463417323L28.636363636363637,55.69652603821764L29.654545454545456,59.454642126049976L29.781818181818185,62.31235148860419L30.036363636363635,70.0634438763171L30.41818181818182,74.31124117498021L30.545454545454543,73.5588613771748L30.8,75.56639861847106L30.92727272727273,74.74789025389614L31.054545454545455,77.53891038624964L31.18181818181818,79.7531173212652L31.436363636363637,81.77942208117376L31.690909090909088,77.42562119015477L31.818181818181817,69.95072401619284L32.2,72.27936620917009L32.32727272727273,78.18509850759979L32.45454545454545,81.9739636051016L32.58181818181818,83.78903794455816L32.70909090909091,84.98418584836894L33.09090909090909,88.8000447956751L33.21818181818182,92.0078177541107L33.472727272727276,92.55329781313205L33.72727272727273,91.03027417321559L33.85454545454545,90.13105885260822L33.981818181818184,87.69052461792475L34.10909090909091,89.53764200561474L34.49090909090909,92.72075045006713L34.61818181818182,87.39199817769455L34.74545454545454,86.49909712868761L34.872727272727275,79.84266402570083L35.127272727272725,84.78575234533199L35.509090909090915,89.45584605369918L36.14545454545455,95.25018563640545L36.27272727272727,99.5764725614649L36.4,99.5129035716666L36.52727272727273,100.21714261974394L36.654545454545456,96.47882080978953L36.78181818181819,96.75730798444599L37.41818181818182,99.21105252727791L38.43636363636364,99.92608958412657L38.69090909090909,100.81326581538401L38.81818181818182,102.66934135514248L38.945454545454545,101.66278917849363L39.836363636363636,102.66088483914523L40.21818181818182,103.43272280292317L40.47272727272727,105.64043623138888L40.599999999999994,107.76386126918976L40.72727272727273,101.29906173374255L41.236363636363635,101.67827750851599L41.36363636363637,99.70441975871935L41.49090909090909,101.36504924532474L41.87272727272727,104.93632636551938L42,105.3472014142736L42.38181818181818,109.66224064073947L42.89090909090909,108.94512259576483L43.14545454545454,105.99536733056506L43.4,108.95525547230056L43.52727272727273,110.32522644872894L43.654545454545456,112.40391265658653L43.78181818181818,106.4761830050237L43.909090909090914,105.08608920190512L44.03636363636364,99.41462997683155L44.29090909090909,102.10104726775873L44.54545454545455,104.31027904337705L44.92727272727273,108.49795832830023L45.054545454545455,109.77763632891984L45.18181818181819,109.96343416802277L45.43636363636363,113.65696294974032L45.56363636363636,113.32779074319363L45.69090909090909,114.15131182351888L46.07272727272728,111.94904421070156L46.32727272727273,111.47888854239035L46.45454545454546,113.3622939294198L46.709090909090904,115.16888820392177L46.836363636363636,110.08854733776705L47.21818181818182,112.86057429662908L47.72727272727273,112.66069878515258L47.85454545454545,112.66181052551659L47.98181818181818,114.67336317622826L48.10909090909091,115.41816610018626L48.36363636363637,117.18119933727937L48.49090909090909,118.76636744368494L48.74545454545455,118.34862638694808L49,116.57347296329853L49.127272727272725,115.35777392265422L49.25454545454545,111.87546433375611L49.38181818181818,112.92094440934005L49.63636363636364,114.58364351284385L49.763636363636365,116.3037991709736L50.654545454545456,114.74320291545212L51.163636363636364,117.13798423619231L51.67272727272727,117.02087857729887L51.8,118.2457050398817L51.92727272727273,115.5336871710063L52.43636363636364,115.78840234591695L52.56363636363636,117.79531404886835L52.69090909090909,118.7874528396124L52.81818181818181,120.20949764588867L53.2,112.67625471589886L53.32727272727273,116.17558019541455L53.709090909090904,115.67838263535438L53.836363636363636,115.77909155587432L54.090909090909086,118.17630599847908L54.21818181818182,120.50990649664429L54.345454545454544,119.42924141222085L54.6,121.61764557986336L54.72727272727273,120.40778067350571L54.85454545454546,121.0656686803965L54.98181818181818,117.92267175801206L55.10909090909091,118.3894728575547L55.236363636363635,118.54216160672729L55.61818181818182,120.03353868559836L55.74545454545455,120.71693144053293L56,117.42878100929136L56.50909090909091,116.17801347426203L56.63636363636363,114.9584534588553L56.89090909090909,115.99161734378067L57.14545454545455,119.02681236554051L57.27272727272727,121.98905354535755L57.90909090909091,122.83800134707624L58.290909090909096,121.59320586370055L58.41818181818182,117.95719503856247L58.54545454545454,118.54026933778678L58.67272727272727,121.06216399830194L58.92727272727272,123.52152248002062L59.43636363636364,124.05742110051324L59.690909090909095,120.44174960397248L59.945454545454545,119.96370066744768L60.07272727272727,120.19524918181452L60.199999999999996,121.83125361653674L60.70909090909091,124.53087010891741L60.83636363636364,123.77070792775541L61.090909090909086,120.15512924350017L61.345454545454544,120.55446967627066L61.6,120.3040583201972L62.236363636363635,119.81053976059889L62.49090909090909,121.99564444242762L62.61818181818182,119.5884865543944L63,119.40058503620894L63.25454545454546,120.77084077980817L63.381818181818176,124.1015531736671L63.50909090909091,123.37106153306291L63.763636363636365,125.71956083651821L63.89090909090909,124.83288087021887L64.01818181818182,125.69641590714544L64.52727272727273,121.27200167877388L64.65454545454546,121.14180288529428L64.9090909090909,121.96833556440237L65.2909090909091,121.02985303302094L65.8,119.86797800481014L65.92727272727272,120.63944965067748L66.05454545454545,121.14776972893537L66.18181818181819,121.87727658726968L66.43636363636364,125.25563761630005L66.81818181818183,127.03442473689864L66.94545454545455,126.05342671561331L67.07272727272726,126.8524458314833L67.45454545454545,125.23277235151187L67.58181818181818,121.2415036481159L67.83636363636364,123.48439822921378L68.6,125.45243142017684L68.85454545454546,123.12418336338888L68.98181818181818,123.35512715975698L69.10909090909091,122.66481483050907L69.23636363636363,123.17569352259045L69.36363636363637,124.96574726742391L69.61818181818181,124.71467593166929L69.74545454545455,126.24001465182296L70.38181818181818,125.73298225878439L70.50909090909092,124.63107045595248L70.76363636363637,123.93709294517618L71.01818181818183,125.3908726246344L71.14545454545454,128.23678503631106L71.27272727272727,125.79995157326107L71.65454545454546,127.50490996329606L71.78181818181818,124.19659398932146L71.9090909090909,122.63893228307128L72.16363636363637,122.4888304631568L72.2909090909091,123.49463105137517L72.54545454545455,127.39453759836094L72.67272727272727,126.51706734497935L72.92727272727272,128.52680374077144L73.18181818181817,129.2239254936476L73.43636363636364,128.43078893571493L73.56363636363638,127.03518088804465L73.69090909090909,122.96424675075282L73.94545454545455,124.85514164023441L74.07272727272726,125.85941600149862L74.45454545454545,125.07651432192492L74.58181818181818,122.19772842173336L74.70909090909092,125.15434761942447L74.83636363636364,123.72018625796449L75.0909090909091,124.57545766934692L75.21818181818182,124.07773649005769L75.34545454545454,124.76459381849489L75.47272727272727,126.76277345341992L76.61818181818181,126.30580222730795L76.74545454545455,123.35156471803761L77,125.69193981964659L77.38181818181818,125.17249343749022L78.27272727272727,125.11949800907963L78.4,125.87686782923407L78.9090909090909,128.6059930945545L79.03636363636365,130.58224030542175L79.16363636363636,129.88107439233116L79.41818181818182,127.22658582966052L79.67272727272727,127.39360660066235L79.92727272727272,126.97407224199618L80.18181818181819,128.26765104102248L81.32727272727273,127.27061139836488L81.45454545454545,127.47566246225327L81.58181818181819,128.85682629401106L81.7090909090909,131.6319733892018L81.96363636363637,132.34390429632103L82.09090909090908,133.04033516801564L82.47272727272727,129.87949504230718L82.85454545454544,126.29029594865875L83.61818181818182,126.95419258820334L83.74545454545454,124.76150208595075L83.87272727272727,127.49741020984203L84,125.99241805954256L84.12727272727274,126.09531117693386L84.38181818181819,126.64750766116433L84.50909090909092,127.64646208244253L84.63636363636363,129.58858788669434L84.89090909090909,129.4005151413358L85.01818181818182,131.0348272422155L85.14545454545454,132.48526030859267L85.39999999999999,132.72300390734537L85.65454545454546,131.92381167270443L85.78181818181818,130.8290319502387L86.29090909090908,131.2554821867622L87.18181818181817,129.48346585624677L87.30909090909091,129.62736543429992L87.56363636363636,129.57991900009063L87.69090909090909,130.8920878220754L87.94545454545454,130.85939955663767L88.2,132.2572939665527L88.58181818181818,130.26572169831715L89.47272727272727,132.7465890218524L89.85454545454546,128.71673879442858L89.98181818181818,130.62762731307552L90.36363636363637,130.6922695006274L90.49090909090908,129.48630733113117L90.61818181818181,129.68352134887184L90.87272727272726,132.71980813490205L91,131.6721848210505L91.12727272727273,132.77987807244642L91.25454545454546,133.80235067159285L91.50909090909092,134.31600916219816L92.14545454545456,132.26625229531652L92.27272727272727,132.3125495461897L93.03636363636363,133.08480358837275L93.2909090909091,131.5270057448554L93.41818181818181,131.6180427168238L93.54545454545455,130.54450509089227L93.67272727272727,130.54787894314182L93.80000000000001,131.86274028980696L93.92727272727272,134.28925298975855L94.05454545454546,133.19695318365834L94.18181818181819,134.1868657183419L94.3090909090909,135.03108463442658L94.43636363636364,133.91216417405803L94.69090909090909,131.6198391691077L95.07272727272728,128.41180271443807L95.2,128.82245373194522L95.32727272727273,130.57068369410356L95.58181818181818,133.34584129142203L95.7090909090909,132.4087593742882L96.0909090909091,133.42407806022442L96.34545454545456,131.89415996000116L96.6,130.6261302173773L96.72727272727273,130.82400612817898L97.10909090909091,131.10781382961517L97.23636363636363,132.72827255734725L97.36363636363636,134.16898342887202L97.61818181818182,135.04678656921854L97.74545454545455,133.0987523963302L97.87272727272727,133.27797651965062L98.12727272727273,130.04717677384656L98.38181818181819,131.22692201039646L98.5090909090909,131.82978537977607L98.8909090909091,131.8502705225826L99.01818181818182,129.4679943093774L99.14545454545454,131.66431332642537L99.27272727272728,129.89538539401372L99.39999999999999,130.25226109595107L99.52727272727273,131.22375078337282L99.65454545454546,130.91436164665072L99.78181818181818,131.33311858825593L100.03636363636365,134.47319891228756L100.16363636363636,133.74236514842627L100.67272727272727,134.79732263661523L100.8,132.31881309921374L100.92727272727274,132.60742484639698L101.18181818181819,129.50081068939335L101.30909090909091,130.01459050746013L101.43636363636362,131.79560372829332L101.56363636363636,132.7790830469125L101.81818181818183,132.36535504845173L102.07272727272728,129.80409532931168L102.32727272727273,128.52479694487965L102.58181818181819,130.1759048354764L102.83636363636363,130.8347653147576L103.0909090909091,134.17141571367625L103.21818181818182,133.6777246671693L103.34545454545454,134.71217427887603L103.72727272727273,135.38946125819564L104.23636363636363,131.4007961625712L104.36363636363637,131.14218186586243L104.61818181818182,132.5943723497595L104.74545454545455,134.98781705451557L105,133.44104914994566L105.50909090909092,132.4690627335827L105.63636363636363,132.6995649930004L105.89090909090909,132.561006016162L106.14545454545454,135.50715733480357L106.65454545454546,134.996043980448L107.03636363636363,134.60605523435558L107.16363636363637,133.5200786438482L107.41818181818181,132.38612691784144L107.54545454545455,133.0075601182407L107.67272727272727,133.72578764041987L107.8,135.59517735120662L107.92727272727272,133.48595672091335L108.05454545454546,132.63430345797832L108.18181818181817,130.49965362651864L108.30909090909091,132.7089907870344L108.43636363636364,130.94154009665388L108.94545454545455,131.6174357432275L109.07272727272726,133.2661000684929L109.32727272727273,133.4642254912191L109.58181818181818,135.221304113723L109.96363636363635,133.38242307606765L110.21818181818182,133.17944920669623L110.34545454545454,130.2836336751277L110.47272727272727,130.71974404894L110.85454545454546,133.963804852706L110.98181818181818,133.2708426511452L111.1090909090909,133.10539250180685L111.23636363636363,130.91421502678645L111.36363636363636,132.62583182619585L111.61818181818181,132.62882014390914L111.74545454545455,133.3423984441924L111.87272727272727,132.95477849718822L112.12727272727273,134.35029983293862L112.25454545454545,136.84849817276253L112.38181818181818,135.64715864236166L112.5090909090909,136.21000154173805L112.63636363636364,136.81408590886852L112.76363636363637,135.84855258439015L113.01818181818182,134.32647085514938L113.14545454545456,134.52126274303959L113.52727272727273,133.5383754905416L114.03636363636365,133.38599499254968L114.41818181818182,134.43763211908242L114.54545454545455,132.11743273121638L114.67272727272727,132.4756202088745L114.8,133.08397403196489L114.92727272727272,132.33305729444706L115.05454545454545,132.30000819062434L115.18181818181819,133.5816264808746L115.30909090909091,136.33090399524144L115.56363636363636,136.6724723677499L115.6909090909091,137.1927666621944L115.81818181818181,136.20479046704756L116.32727272727273,134.75136637672074L116.83636363636364,135.0194581848298L116.96363636363637,136.56096340173826L117.21818181818182,135.61656730403254L117.34545454545454,132.8422251558374L117.47272727272727,134.46138847310624L117.6,132.4122560016385L117.72727272727273,132.69956392513427L117.85454545454544,133.26259513690385L118.23636363636365,134.21907938885704L118.36363636363636,136.54155222822607L118.49090909090908,135.60208207006596L119.12727272727274,134.6396841385087L119.38181818181819,134.5589862861535L119.50909090909092,131.47871455284618L119.63636363636363,131.89450884983253L119.76363636363637,133.46502825181585L120.01818181818182,135.7401066575104L120.39999999999999,133.00928242952125L120.52727272727273,134.27739881758475L120.9090909090909,134.57695419702537L121.03636363636363,133.93437708598822L121.16363636363637,133.88982483001874L121.41818181818182,136.82292835181636L121.67272727272729,137.41964495680995L122.05454545454546,138.03429390321108L122.18181818181817,136.05141281511914L122.43636363636364,135.41908424580583L122.81818181818183,135.95553312505265L122.94545454545454,136.1873667347728L123.07272727272728,137.71223208527982L123.32727272727271,136.79627771083673L123.45454545454545,133.77582728890786L123.58181818181818,135.15000323244288L123.70909090909092,133.12340562217446L123.83636363636363,133.64446788235315L123.96363636363637,134.30356108497438L124.0909090909091,133.84556529135023L124.21818181818182,133.9396736319351L124.60000000000001,134.7244064558269L124.72727272727272,136.2624236433936L125.23636363636363,135.19996423231387L125.36363636363637,135.86585880258065L125.61818181818181,132.97387342331126L125.87272727272726,134.61415799067805L126.12727272727273,136.88988952402107L126.25454545454546,136.2713452134361L126.38181818181818,136.18030913622727L126.50909090909092,133.7971514767075L126.63636363636364,135.18679732714082L126.76363636363635,133.3956431341494L127.01818181818182,134.29485045966314L127.27272727272727,134.3956140430294L127.52727272727273,137.41223159058313L127.90909090909092,138.05716597554L128.03636363636363,137.29349924548896L128.16363636363636,138.2603278926194L128.29090909090908,136.60820568457893L128.4181818181818,136.80873598540643L128.67272727272726,133.45666700873522L128.92727272727274,134.7432049988987L129.1818181818182,136.97377686973107L129.3090909090909,136.24281111183325L129.56363636363636,133.77437179408577L129.94545454545454,134.1927896975234L130.20000000000002,134.0382453209271L130.3272727272727,134.35792580027896L130.45454545454544,135.48659080731582L130.83636363636364,136.87762611361399L131.21818181818182,138.0291198668858L131.34545454545454,136.45571139238444L131.6,135.97553010282786L131.85454545454544,135.06649383177512L132.1090909090909,135.93319944815215L132.23636363636365,137.82469016648585L132.74545454545455,137.8341114490039L133,136.6388975465438L133.12727272727273,136.36682546640284L133.25454545454545,135.60373999011L133.38181818181818,135.51269563378636L133.63636363636365,138.23185833044752L133.76363636363635,137.41891006591945L133.8909090909091,137.89412054652928L134.01818181818183,138.37338845444128L134.52727272727273,137.68272463558984L134.78181818181818,134.1894441813674L134.9090909090909,134.13726590865957L135.03636363636363,135.4556447297835L135.16363636363636,136.2748342157562L135.29090909090908,138.04032763930826L135.79999999999998,138.02844546151903L136.05454545454546,136.90796738470385L136.1818181818182,136.29244325436315L136.56363636363636,136.85260968305394L136.6909090909091,138.90865462702007L136.8181818181818,137.8074940849802L136.94545454545454,138.2698370598574L137.07272727272726,138.73113132101923L137.32727272727274,139.2798441308553L137.45454545454547,137.29613377370754L137.5818181818182,137.05405110293475L137.70909090909092,136.57003975529068L137.96363636363637,135.5241796257923L138.34545454545454,137.54754487940082L138.6,136.91311605477236L138.72727272727275,134.79951203033525L138.98181818181817,133.44257795909166L139.10909090909092,134.31541425559678L139.23636363636362,135.21030443567574L139.4909090909091,135.32486505815794L139.61818181818182,136.52269852550188L139.87272727272727,136.6100427548711L140,137.79753264090309L140.63636363636365,137.5950935858541L140.89090909090908,134.16902181460495L141.01818181818183,134.22450835592255L141.14545454545456,135.68036510740598L141.27272727272725,136.56152718353627L141.4,138.37467768159806L141.52727272727273,137.61898860980025L141.65454545454543,137.21024897059598L141.9090909090909,137.61618103344577L142.03636363636366,135.13915914834854L142.16363636363636,135.28690917303666L142.54545454545453,135.38708669890124L142.67272727272726,136.48126624707163L142.8,138.9258950086887L142.92727272727274,138.11530375418653L143.1818181818182,138.77946662865634L143.94545454545454,135.0029755794473L144.07272727272726,134.71454865714713L144.20000000000002,135.88923824247772L144.45454545454544,138.0778258791305L144.96363636363637,138.32003242846184L145.34545454545454,137.53598397249067L145.72727272727275,137.52647952430468L146.10909090909092,138.28659972237787L146.23636363636362,138.99672299181623L146.61818181818182,137.35387214157106L146.74545454545452,137.46121327615793L146.87272727272727,137.00318356561584L147.12727272727275,135.88226437352L147.25454545454545,136.53803631107576L147.38181818181818,136.976377588582L147.63636363636363,136.72614681333334L147.76363636363635,136.754807234892L147.8909090909091,134.79152689044997L148.01818181818183,136.07592210399872L148.14545454545453,133.9756724362666L148.4,134.80575188122188L148.5272727272727,134.87523731576883L148.78181818181818,136.19849691979576L149.03636363636363,136.4382991444617L149.16363636363636,137.62784468072522L149.41818181818184,137.49014642286733L149.6727272727273,136.4119867811365L149.8,136.8251260885881L149.9272727272727,136.55891384214166L150.05454545454546,133.59510033361403L150.43636363636364,135.27060768197776L150.56363636363636,137.61870495279823L150.6909090909091,136.81947111964342L150.81818181818184,136.72374528404714L151.07272727272726,137.37609805745439L151.20000000000002,134.80368926404026L152.2181818181818,136.65812367707213L152.60000000000002,138.20204958708632L152.72727272727272,136.93441404082165L152.9818181818182,136.56175704363798L153.23636363636362,135.65111857903574L153.36363636363637,136.41782231651717L153.74545454545455,136.4748060572665L153.87272727272727,136.69174863849068L154.12727272727273,137.2617377806373L154.25454545454545,134.91915254746738L154.38181818181818,135.26572185472423L154.5090909090909,135.71824140549595L154.8909090909091,136.84753782272873L155.9090909090909,137.10528061649097L156.03636363636363,136.83169508067732L156.16363636363636,134.09130630545596L156.4181818181818,135.55927367514326L156.6727272727273,137.86002411207272L156.8,137.34451709502508L156.9272727272727,137.16673588088156L157.1818181818182,137.7102857073009L157.43636363636364,137.213754237371L157.56363636363636,137.1032528966445L157.69090909090912,136.18800855899238L158.0727272727273,138.89948399456117L158.2,138.27252319637572L158.3272727272727,138.65122105588694L158.96363636363637,138.36406627158715L159.21818181818182,134.8833546911161L159.34545454545454,134.82194543839665L159.6,136.16615742847597L159.72727272727272,138.30853696962504L159.9818181818182,137.86055750685262L160.74545454545455,136.66902330710317L160.87272727272727,136.15589364456855L161.12727272727273,138.90508097973387L161.3818181818182,139.3671345489097L161.89090909090908,137.52542506659123L162.0181818181818,137.55462243644564L162.14545454545456,136.88454367894545L162.27272727272728,134.18306231434883L162.39999999999998,134.3409204683561L162.65454545454546,135.88002267405827L162.9090909090909,136.34913309682955L163.03636363636363,136.74921497778112L163.16363636363639,135.13369555433485L163.29090909090908,136.66280186356755L163.4181818181818,135.13702441391908L163.54545454545456,135.71780268802212L163.6727272727273,136.28541482787284L164.18181818181816,139.03699918228102L164.43636363636364,139.50249982004846L164.56363636363636,139.88621317733902L165.3272727272727,136.14310474372508L165.58181818181816,137.18378376810568L165.83636363636364,139.08198842912208L165.96363636363637,138.46199758611834L166.0909090909091,138.0049078109767L166.34545454545454,138.55579675180863L166.85454545454547,137.59277471355205L167.23636363636365,139.75895078451396L167.49090909090907,139.9127858164453L167.87272727272725,140.519507927365L168.25454545454548,139.16410264106037L168.38181818181818,135.78444592366907L168.63636363636365,136.88356717098787L168.76363636363638,137.60040889951438L168.89090909090908,139.23259980628316L169.01818181818183,138.6376270107252L169.14545454545456,138.49702273064645L169.27272727272725,136.53804702739762L169.4,137.6495599868178L169.65454545454546,137.51774474600347L169.78181818181818,137.55562279593582L169.9090909090909,136.7752251299802L170.29090909090908,139.4356745252276L170.4181818181818,138.76138642502556L170.67272727272726,139.60674218238177L171.6909090909091,139.32302069264264L171.8181818181818,139.14521434407854L171.94545454545457,140.3734534787365L172.07272727272726,139.46559046209367L172.2,139.0539682980125L172.45454545454547,139.0876311466542L172.58181818181816,136.5961452214899L172.70909090909092,136.91591574143408L172.83636363636364,137.17334797189685L173.0909090909091,136.84257693924422L173.21818181818182,137.89578049086282L173.34545454545457,140.28321239004754L173.6,140.28187929268526L173.72727272727275,140.50808149297828L173.98181818181817,140.93408432350716L175.25454545454545,139.78340272837292L175.63636363636365,137.02699085059666L175.76363636363635,137.2765901871071L175.89090909090908,137.57533138064673L176.01818181818183,137.2185656270614L176.27272727272725,138.17074423763256L176.4,140.52522168170697L176.52727272727273,139.65243327556254L176.78181818181818,140.15100231815015L177.16363636363636,138.68236682188547L177.29090909090908,139.0253721557381L177.41818181818184,138.55090003163693L177.54545454545453,135.65489175205363L177.67272727272726,135.7989865439232L177.8,137.05152749061304L177.92727272727274,138.051206984927L178.05454545454543,139.85630071773429L178.3090909090909,139.41607069994728L178.56363636363636,139.4850616320372L178.6909090909091,137.00745555205688L178.94545454545454,137.29069587086337L179.20000000000002,137.12457922481033L179.45454545454544,139.92333407715196L179.5818181818182,139.27412281769227L179.70909090909092,139.70509912658076L179.83636363636361,139.94581102526053L179.96363636363637,139.3510642548723L180.0909090909091,140.25748899240375L180.6,136.42594315206458L181.23636363636362,137.09623064583383L181.36363636363635,137.79367269269133L181.61818181818182,138.52425616497698L181.74545454545452,136.49542423878765L181.87272727272727,137.07778029574888L182.25454545454545,137.04959852570937L182.38181818181818,138.0465993553592L182.50909090909093,140.51590362694733L182.76363636363635,140.56780897255294L183.01818181818183,139.88115151501458L183.14545454545453,140.68624855998357L183.5272727272727,139.6484786284501L183.78181818181818,138.16932211337553L184.03636363636363,138.56539843263494L184.16363636363636,140.06444791085028L184.41818181818184,139.65588249298975L184.54545454545453,137.46386824227343L184.9272727272727,137.56787612032787L185.05454545454546,137.79986451518815L185.1818181818182,137.43898643524813L185.43636363636364,138.46430973180668L185.56363636363636,140.85254209704038L185.6909090909091,140.00532176347107L185.94545454545454,140.36639088201582L186.07272727272726,139.69972817953692L186.20000000000002,140.47357511690163L186.3272727272727,139.12664993251758L186.45454545454544,139.2630116918409L186.5818181818182,138.71715534628348L186.83636363636361,137.76448170994553L187.2181818181818,139.6247364525998L187.34545454545454,139.21347074266018L187.60000000000002,137.4347860948445L188.10909090909092,137.66991305481886L188.23636363636362,137.3647834921909L188.4909090909091,138.37447334064098L188.6181818181818,140.73359445940713L189,140.91621576843843L189.25454545454545,141.30489691469268L189.5090909090909,140.8524272498168L189.76363636363635,137.12146172180127L189.8909090909091,136.85956924368693L190.0181818181818,137.93784719234557L190.14545454545456,138.6819363037867L190.4,138.6834105048934L190.78181818181818,139.08762514046697L190.9090909090909,137.07048044899796L191.16363636363636,137.70602861140273L191.2909090909091,137.61353339608968L191.4181818181818,137.58955413358146L191.6727272727273,140.34928357243294L192.1818181818182,139.8580083246557L192.43636363636364,139.0147551789343L192.56363636363636,139.4879881778889L192.8181818181818,136.49011942383845L192.94545454545454,136.53364951990363L193.0727272727273,137.84900152774898L193.3272727272727,139.83194852270887L193.45454545454547,139.33362142936454L193.96363636363637,137.3361864063335L194.0909090909091,137.90166253883794L194.21818181818182,138.3203294458339L194.34545454545454,137.9901632690127L194.47272727272727,137.8251170972915L194.72727272727272,140.4701553806196L194.9818181818182,140.8537577899159L195.1090909090909,141.18147384424742L195.23636363636365,140.4597235740067L195.36363636363637,141.185963381579L195.4909090909091,139.89925285107353L195.61818181818182,139.9895503210044L196,138.74680742033135L196.3818181818182,140.38802093340217L196.63636363636363,140.02417453911715L196.89090909090908,139.94263994822134L197.0181818181818,137.69550819814597L197.14545454545456,138.06108218716108L197.27272727272728,138.48291282313693L197.39999999999998,138.16814578533462L197.9090909090909,138.7033216567738L198.4181818181818,140.15223383974453L198.6727272727273,140.1569593161344L198.79999999999998,139.5992231494188L198.92727272727274,136.67720752513407L199.18181818181816,138.0186568284818L199.3090909090909,138.85094744557585L199.43636363636364,140.47457212904615L199.8181818181818,138.38548730006957L200.2,138.4549889592937L200.3272727272727,138.668525895053L200.45454545454547,138.1097668753366L200.7090909090909,139.0640664307058L200.83636363636364,141.3495237235892L200.96363636363637,140.58689690174953L201.21818181818182,141.14898172429292L201.34545454545454,140.53699112949852L201.6,139.5555697093066L201.72727272727272,140.01729907536162L201.85454545454547,139.73349121094225L201.98181818181817,136.92539682742813L202.1090909090909,137.05329435833693L202.23636363636365,138.3428860020457L202.49090909090907,140.26844692726416L202.61818181818182,139.84863464108224L203,140.03757241155233L203.63636363636365,139.1700186963581L204.14545454545456,140.22026202039993L205.16363636363639,138.9625367868794L205.29090909090908,139.4764828975028L205.4181818181818,139.7418609624691L205.54545454545456,141.07593148401048L205.67272727272726,140.29122280576797L206.05454545454546,140.24138607339586L206.1818181818182,137.99415236906978L206.43636363636364,138.4387948133072L206.56363636363636,137.9294587997253L206.8181818181818,138.94613285399834L206.94545454545457,141.23266596177774L207.07272727272726,140.5893745235519L207.2,141.0409572455152L207.45454545454547,140.43680212778747L207.70909090909092,139.30901970282648L207.83636363636364,139.48313621853777L207.96363636363634,139.0134998229784L208.21818181818182,138.12142800325577L208.34545454545457,138.88999345748846L208.47272727272727,139.39103098932725L208.72727272727275,139.45851393219976L208.98181818181817,137.99866788194865L209.74545454545455,137.782042459287L210,140.59917719785352L210.5090909090909,140.14520336335715L210.63636363636365,140.911170503089L210.76363636363635,139.84736055511442L211.27272727272725,138.73840668597174L211.9090909090909,139.21234246627643L212.03636363636366,137.7330526417946L212.54545454545453,138.29449973911204L212.92727272727274,139.0727900069706L213.05454545454543,141.39751193704151L213.43636363636364,141.80566617461068L213.8181818181818,140.25777793635996L213.94545454545454,140.1095188455671L214.07272727272726,139.49878982797887L214.45454545454544,139.70502884785566L214.5818181818182,139.90109990426612L214.96363636363637,139.95072543341857L215.0909090909091,138.16427299808825L215.21818181818182,139.0430899398834L215.34545454545454,137.03210389581045L215.47272727272727,137.86528213004303L216.36363636363635,139.41389338481446L216.4909090909091,140.47712398780766L216.61818181818182,140.1986024860771L216.74545454545452,141.1893090604852L217,140.86161699800638L217.12727272727275,140.18511864148093L217.25454545454545,137.04187711325508L217.38181818181818,137.02319316330173L217.50909090909093,138.10007398285043L217.63636363636363,138.86141362420406L217.76363636363635,140.61475381376215L217.8909090909091,140.07964294284844L218.01818181818183,140.0514178820268L218.4,137.9475140898118L218.65454545454546,138.31519485797907L219.2909090909091,138.59155599815927L219.41818181818184,139.72930907164556L219.54545454545453,140.65657374235715L219.8,141.48232521568798L220.3090909090909,137.710871582104L220.6909090909091,138.72211779476172L220.94545454545454,139.02062888592206L221.45454545454544,137.17128402978017L221.5818181818182,137.74892121121616L221.70909090909092,138.21020146689867L221.83636363636361,137.87090254457883L222.2181818181818,140.6729437593261L222.47272727272727,141.0808129053923L222.60000000000002,141.46183020550257L222.72727272727272,140.81753869631268L222.85454545454544,141.59110707763998L222.9818181818182,140.09278059267075L223.23636363636362,139.5190449389743L223.36363636363637,136.63060110322485L223.74545454545455,137.92089587840263L224.12727272727273,138.7824027033787L224.25454545454545,137.53403647665453L224.38181818181818,138.52009267080675L225.0181818181818,138.32496557344876L225.14545454545456,139.26936095098867L225.27272727272728,141.47617554322437L226.2909090909091,140.4748938948673L226.4181818181818,137.15927419403056L226.54545454545453,137.11476942587922L226.8,138.37879950389112L226.9272727272727,140.25351731274293L227.05454545454546,139.96365793948203L227.1818181818182,139.95842992478933L227.30909090909088,138.22873338162924L227.43636363636364,139.10958885524968L227.56363636363636,137.19934119805276L227.8181818181818,137.82470684236463L228.0727272727273,137.79527930779392L228.2,138.61934389262706L228.3272727272727,141.01482496527703L228.5818181818182,141.35176678476597L228.7090909090909,141.6405573571112L228.96363636363637,142.17850579185745L229.21818181818182,141.14342480859094L229.34545454545454,140.20103426807825L229.6,138.89114425883628L229.72727272727272,139.17409256197857L230.23636363636365,139.56921698849962L230.36363636363637,137.9881420334841L230.4909090909091,138.93980943990314L230.61818181818182,137.31179043465679L230.74545454545455,138.0478262779515L230.87272727272727,138.51106777822807L231,138.24584828891994L231.25454545454545,139.03201554634785L231.3818181818182,141.25564810287125L231.5090909090909,140.47160019240906L231.63636363636363,141.0735412907046L232.14545454545456,139.95067955511038L232.39999999999998,139.46101650016698L232.52727272727273,136.55395119098284L232.65454545454546,136.8134994685243L232.9090909090909,138.25533224222602L233.16363636363639,138.84702243084803L233.4181818181818,137.70492362952717L233.6727272727273,136.5802414960822L233.79999999999998,137.5462043270905L233.92727272727274,138.0043042242363L234.18181818181816,137.91014921817478L234.3090909090909,138.99739338080633L234.43636363636364,141.34863940634375L234.56363636363636,140.66349829802027L234.6909090909091,141.16303911122577L234.8181818181818,141.626768725421L235.0727272727273,142.1757038458025L235.2,140.7426161507781L235.58181818181816,137.41491038952648L235.7090909090909,137.36725536370335L235.96363636363637,138.57780612850905L236.0909090909091,140.52555107509497L236.4727272727273,138.65045344833632L236.6,139.31868824961245L236.72727272727272,137.51287799155475L236.85454545454547,138.22019073923173L236.98181818181817,138.67483825591478L237.23636363636365,138.46265163230123L237.74545454545455,139.75323412712177L238,139.87963461984083L238.12727272727273,141.08023934088624L238.25454545454548,140.0437319480158L238.63636363636365,137.1109350052854L238.76363636363638,137.27041949452388L239.01818181818183,138.58161966064145L239.14545454545456,140.47680446455308L239.27272727272725,140.2700209027069L239.52727272727273,138.70659362791912L239.65454545454546,139.54117521271752L239.78181818181818,137.8259796316109L239.9090909090909,138.45121956640287L240.16363636363639,138.2441496486465L240.4181818181818,139.20401330543413L240.67272727272726,139.59072547833406L240.79999999999998,140.43802747024978L241.05454545454546,140.13007488102332L241.1818181818182,141.13507687683983L241.3090909090909,140.10519558485285L241.43636363636364,140.31196795197175L241.6909090909091,137.29318680085706L242.07272727272726,138.60386505129145L242.2,140.53517895495506L242.32727272727274,140.32015764618708L242.45454545454547,140.47975641602582L242.58181818181816,138.720207516466L242.83636363636364,137.19590128224246L242.96363636363634,138.0456918046543L243.0909090909091,138.57764262948447L243.34545454545457,138.33481088788005L243.47272727272727,139.13980472818005L243.6,141.53773954012132L243.72727272727275,140.97391609590986L243.98181818181817,141.44076326378087L244.10909090909092,140.8845456057066L244.23636363636365,141.76511862357103L244.74545454545455,138.27504265083374L245.12727272727273,139.16485698769304L245.25454545454545,140.89408979947967L245.38181818181818,140.4731877522377L245.76363636363635,140.72505394677566L245.89090909090908,138.65012027912627L246.01818181818183,139.0816896631488L246.14545454545456,139.3334549420151L246.27272727272725,138.93862092385555L246.52727272727273,139.70801329887684L246.65454545454543,141.9131935612963L246.78181818181818,141.25198898346292L247.16363636363636,140.82636561344137L247.29090909090908,141.7096549310433L247.54545454545453,141.354039943789L247.67272727272726,140.64065409524284L247.8,137.46535855511368L248.1818181818182,138.78132181666305L248.43636363636364,139.43321288748643L248.56363636363636,140.00830875794244L248.6909090909091,138.66396843086062L248.8181818181818,139.65114413911328L248.94545454545454,137.99555702081713L249.32727272727274,138.2072158451589L249.70909090909092,141.03581042775073L249.83636363636361,140.74461338675013L250.21818181818182,140.613858727295L250.34545454545454,141.75510347858085L250.85454545454544,138.18049107519653L251.23636363636362,139.20976384170996L251.36363636363635,140.99054576142944L251.61818181818182,140.8757471870441L251.74545454545452,138.99849323219414L251.87272727272727,139.6043064172817L252.12727272727275,139.60267978591807L252.25454545454545,139.7106049569859L252.38181818181818,139.34893763735377L252.50909090909093,139.10175558560354L253.01818181818183,140.49305749316966L253.14545454545453,141.37692877450985L253.27272727272728,140.9243554094824L253.5272727272727,139.9494946848984L253.65454545454546,140.2659854783454L253.78181818181818,139.93410760382983L254.2909090909091,140.36770294695344L254.41818181818184,141.67320697488506" style="fill: none;" fill="none"></path></g></g></g></g><g opacity="0.2"><g><g><g><path stroke="rgb(255, 112, 67)" stroke-width="2px" d="M26.090909090909093,25.077507972717285L26.21818181818182,33.38486998421806L26.727272727272727,41.06180191040039L26.854545454545452,46.10464845384871L27.10909090909091,53.650111947740825L27.236363636363638,53.72955683299473L27.363636363636363,54.63809251785278L27.49090909090909,50.74837902614048L27.618181818181817,53.38884231022426L27.745454545454546,55.761658055441714L27.872727272727275,50.566111700875425L28,60.16196741376605L28.50909090909091,46.95893560137068L28.636363636363637,61.124497004917686L29.654545454545456,65.08739873341152L29.781818181818185,66.59690005438668L30.036363636363635,81.68680245535714L30.41818181818182,80.68185860770089L30.545454545454543,72.4304062979562L30.8,78.57752098355975L30.92727272727273,73.52017259597778L31.054545454545455,81.72534874507359L31.18181818181818,83.07438400813511L31.436363636363637,84.81885521752494L31.690909090909088,70.89495079857963L31.818181818181817,58.73841013227191L32.2,75.77232354027885L32.32727272727273,87.04368788855416L32.45454545454545,87.65725776127407L32.58181818181818,86.51164845057896L32.70909090909091,86.77690730776105L33.09090909090909,94.52383245740617L33.21818181818182,96.81947680882045L33.472727272727276,93.37151786259243L33.72727272727273,88.74573877879551L33.85454545454545,88.78223589488438L33.981818181818184,84.02972330365863L34.10909090909091,92.30831807000297L34.49090909090909,97.49541309901646L34.61818181818182,79.3988697869437L34.74545454545454,85.1597455569676L34.872727272727275,69.85801437922886L35.127272727272725,92.20038482121059L35.509090909090915,96.4609866142273L36.14545454545455,103.94169500895909L36.27272727272727,106.06590294837952L36.4,99.4175500869751L36.52727272727273,101.27350119182042L36.654545454545456,90.87133809498378L36.78181818181819,97.17503874642509L37.41818181818182,102.89166934149605L38.43636363636364,100.99864516939436L38.69090909090909,102.14403016226632L38.81818181818182,105.45345466477531L38.945454545454545,100.1529609135219L39.836363636363636,104.15802833012172L40.21818181818182,104.59047974858964L40.47272727272727,108.95200637408665L40.599999999999994,110.94899882589067L40.72727272727273,91.60186243057251L41.236363636363635,102.2471011706761L41.36363636363637,96.74363313402449L41.49090909090909,103.85599347523281L41.87272727272727,110.29324204581124L42,105.96351398740495L42.38181818181818,116.13479948043823L42.89090909090909,107.86944552830288L43.14545454545454,101.57073443276542L43.4,113.39508768490383L43.52727272727273,112.3801829133715L43.654545454545456,115.52194196837289L43.78181818181818,97.58458852767944L43.909090909090914,103.00094849722726L44.03636363636364,90.90744113922119L44.29090909090909,106.13067320414952L44.54545454545455,107.62412670680455L44.92727272727273,114.77947725568498L45.054545454545455,111.69715332984924L45.18181818181819,110.24213092667716L45.43636363636363,119.19725612231663L45.56363636363636,112.83403243337358L45.69090909090909,115.38659344400679L46.07272727272728,108.64564279147557L46.32727272727273,110.77365503992354L46.45454545454546,116.18740200996399L46.709090909090904,117.8787796156747L46.836363636363636,102.46803603853499L47.21818181818182,117.01861473492214L47.72727272727273,112.36088551793779L47.85454545454545,112.66347813606262L47.98181818181818,117.6906921522958L48.10909090909091,116.53537048612321L48.36363636363637,119.82574919291905L48.49090909090909,121.14411960329329L48.74545454545455,117.72201480184282L49,113.91074282782418L49.127272727272725,113.53422536168779L49.25454545454545,106.65199995040894L49.38181818181818,114.48916452271598L49.63636363636364,117.07769216809953L49.763636363636365,118.88403265816825L50.654545454545456,112.40230853216988L51.163636363636364,120.73015621730259L51.67272727272727,116.84522008895874L51.8,120.08294473375594L51.92727272727273,111.46566036769322L52.43636363636364,116.17047510828291L52.56363636363636,120.80568160329545L52.69090909090909,120.2756610257285L52.81818181818181,122.34256485530308L53.2,101.37639032091414L53.32727272727273,121.42456841468811L53.709090909090904,114.93258629526412L53.836363636363636,115.93015493665422L54.090909090909086,121.77212766238621L54.21818181818182,124.01030724389213L54.345454545454544,117.80824378558567L54.6,124.90025183132717L54.72727272727273,118.5929833139692L54.85454545454546,122.05250069073269L54.98181818181818,113.20817637443542L55.10909090909091,119.08967450686863L55.236363636363635,118.77119473048619L55.61818181818182,122.27060430390495L55.74545454545455,121.74202057293483L56,112.49655536242894L56.50909090909091,114.30186217171806L56.63636363636363,113.12911343574524L56.89090909090909,117.54136317116874L57.14545454545455,123.57960489818028L57.27272727272727,126.43241531508309L57.90909090909091,124.11142304965428L58.290909090909096,119.726012638637L58.41818181818182,112.50317880085537L58.54545454545454,119.41488078662327L58.67272727272727,124.8450059890747L58.92727272727272,127.21056020259857L59.43636363636364,124.86126903125218L59.690909090909095,115.01824235916138L59.945454545454545,119.24662726266044L60.07272727272727,120.54257195336479L60.199999999999996,124.28526026862008L60.70909090909091,128.5802948474884L60.83636363636364,122.6304646560124L61.090909090909086,114.73176121711731L61.345454545454544,121.15348032542637L61.6,119.92844128608704L62.236363636363635,119.07026192120144L62.49090909090909,125.27330146517073L62.61818181818182,115.97774972234453L63,119.11873275893075L63.25454545454546,122.82622439520699L63.381818181818176,129.09762176445554L63.50909090909091,122.27532407215664L63.763636363636365,129.2423097917012L63.89090909090909,123.50286092076982L64.01818181818182,126.99171846253532L64.52727272727273,114.63538033621651L64.65454545454546,120.9465046950749L64.9090909090909,123.20813458306449L65.2909090909091,119.62212923594883L65.8,118.1251654624939L65.92727272727272,121.7966571194785L66.05454545454545,121.91024984632219L66.18181818181819,122.97153687477112L66.43636363636364,130.3231791598456L66.81818181818183,129.70260541779655L66.94545454545455,124.5819296836853L67.07272727272726,128.05097450528825L67.45454545454545,122.80326213155473L67.58181818181818,115.25460059302193L67.83636363636364,126.8487401008606L68.6,128.40448120662143L68.85454545454546,119.63181127820695L68.98181818181818,123.70154285430908L69.10909090909091,121.62934633663723L69.23636363636363,123.94201156071254L69.36363636363637,127.65082788467407L69.61818181818181,124.33806892803737L69.74545454545455,128.5280227320535L70.38181818181818,124.97243366922652L70.50909090909092,122.97820275170463L70.76363636363637,122.89612667901176L71.01818181818183,127.57154214382172L71.14545454545454,132.50565365382602L71.27272727272727,122.14470137868608L71.65454545454546,130.06234754834855L71.78181818181818,119.23412002835954L71.9090909090909,120.30243972369603L72.16363636363637,122.26367773328508L72.2909090909091,125.00333193370274L72.54545454545455,133.24439741883958L72.67272727272727,125.20086196490696L72.92727272727272,131.54140833445956L73.18181818181817,130.26960812296187L73.43636363636364,127.24108409881592L73.56363636363638,124.94176881653922L73.69090909090909,116.85784554481506L73.94545454545455,127.69148397445679L74.07272727272726,127.36582754339491L74.45454545454545,123.90216180256435L74.58181818181818,117.879549571446L74.70909090909092,129.58927641596114L74.83636363636364,121.56894421577454L75.0909090909091,125.85836478642055L75.21818181818182,123.33115472112382L75.34545454545454,125.79487981115068L75.47272727272727,129.7600429058075L76.61818181818181,125.62034538814L76.74545454545455,118.92020845413208L77,129.20250247206008L77.38181818181818,124.39332386425563L78.27272727272727,125.04000486646379L78.4,127.01292255946568L78.9090909090909,132.69968099253518L79.03636363636365,133.54661112172263L79.16363636363636,128.82932552269529L79.41818181818182,123.24485298565456L79.67272727272727,127.64413775716508L79.92727272727272,126.34477070399693L80.18181818181819,130.2080192395619L81.32727272727273,125.7750519343785L81.45454545454545,127.78323905808585L81.58181818181819,130.92857204164778L81.7090909090909,135.7946940319879L81.96363636363637,133.41180065699984L82.09090909090908,134.08498147555758L82.47272727272727,125.1382348537445L82.85454545454544,120.90649730818612L83.61818181818182,127.95003754752022L83.74545454545454,121.47246633257186L83.87272727272727,131.60127239567893L84,123.73492983409336L84.12727272727274,126.2496508530208L84.38181818181819,127.47580238751003L84.50909090909092,129.14489371435982L84.63636363636363,132.50177659307207L84.89090909090909,129.118406023298L85.01818181818182,133.48629539353507L85.14545454545454,134.66090990815843L85.39999999999999,133.0796193054744L85.65454545454546,130.72502332074302L85.78181818181818,129.18686236654008L86.29090909090908,131.89515754154752L87.18181818181817,126.82544136047363L87.30909090909091,129.84321480137962L87.56363636363636,129.5087493487767L87.69090909090909,132.86034105505263L87.94545454545454,130.81036715848106L88.2,134.35413558142525L88.58181818181818,127.27836329596383L89.47272727272727,136.4678900071553L89.85454545454546,122.67196345329285L89.98181818181818,133.49396009104592L90.36363636363637,130.78923278195518L90.49090909090908,127.67736407688686L90.61818181818181,129.97934237548282L90.87272727272726,137.27423831394742L91,130.10074985027313L91.12727272727273,134.44141794954027L91.25454545454546,135.3360595703125L91.50909090909092,135.08649689810616L92.14545454545456,129.19161699499404L92.27272727272727,132.38199542249953L93.03636363636363,134.2431846516473L93.2909090909091,129.19030897957938L93.41818181818181,131.75459817477633L93.54545454545455,128.93419865199496L93.67272727272727,130.5529397215162L93.80000000000001,133.83503230980466L93.92727272727272,137.92902203968595L94.05454545454546,131.55850347450803L94.18181818181819,135.6717345203672L94.3090909090909,136.29741300855363L94.43636363636364,132.23378348350525L94.69090909090909,128.18135166168213L95.07272727272728,123.59974803243364L95.2,129.43843025820595L95.32727272727273,133.1930286373411L95.58181818181818,137.50857768739974L95.7090909090909,131.00313649858748L96.0909090909091,134.94705608912875L96.34545454545456,129.59928280966622L96.6,128.7240856034415L96.72727272727273,131.1208199943815L97.10909090909091,131.53352538176944L97.23636363636363,135.1589606489454L97.36363636363636,136.3300497361592L97.61818181818182,136.3634912797383L97.74545454545455,130.17670113699776L97.87272727272727,133.54681270463126L98.12727272727273,125.20097715514046L98.38181818181819,132.99653986522128L98.5090909090909,132.73408043384552L98.8909090909091,131.88099823679244L99.01818181818182,125.89457998956954L99.14545454545454,134.95879185199738L99.27272727272728,127.2419934953962L99.39999999999999,130.78757464885712L99.52727272727273,132.68098531450545L99.65454545454546,130.45027794156755L99.78181818181818,131.96125400066376L100.03636363636365,139.18331939833504L100.16363636363636,132.6461145026343L100.67272727272727,136.37975886889865L100.8,128.60104879311154L100.92727272727274,133.0403424671718L101.18181818181819,124.84088945388794L101.30909090909091,130.78526023456027L101.43636363636362,134.46712355954307L101.56363636363636,134.2543020248413L101.81818181818183,131.74476305076053L102.07272727272728,125.96220575060164L102.32727272727273,126.60584936823165L102.58181818181819,132.65256667137146L102.83636363636363,131.82305603367942L103.0909090909091,139.17639131205422L103.21818181818182,132.93718809740884L103.34545454545454,136.26384869643618L103.72727272727273,136.40539172717502L104.23636363636363,125.41779851913452L104.36363636363637,130.75426042079926L104.61818181818182,134.77265807560514L104.74545454545455,138.57798411164964L105,131.12089729309082L105.50909090909092,131.01108310903822L105.63636363636363,133.04531838212694L105.89090909090909,132.3531675509044L106.14545454545454,139.92638431276595L106.65454545454546,134.22937394891466L107.03636363636363,134.02107211521695L107.16363636363637,131.89111375808716L107.41818181818181,130.68519932883126L107.54545454545455,133.93970991883958L107.67272727272727,134.80312892368863L107.8,138.39926191738675L107.92727272727272,130.32212577547347L108.05454545454546,131.35682356357574L108.18181818181817,127.29767887932914L108.30909090909091,136.02299652780806L108.43636363636364,128.2903640610831L108.94545454545455,132.6312792130879L109.07272727272726,135.73909655639102L109.32727272727273,133.76141362530845L109.58181818181818,137.8569220474788L109.96363636363635,130.62410151958466L110.21818181818182,132.87498840263913L110.34545454545454,125.93991037777492L110.47272727272727,131.37390960965837L110.85454545454546,138.82989605835508L110.98181818181818,132.23139934880393L111.1090909090909,132.85721727779935L111.23636363636363,127.62744881425584L111.36363636363636,135.19325702530998L111.61818181818181,132.63330262047904L111.74545454545455,134.41276589461734L111.87272727272727,132.37334857668196L112.12727272727273,136.4435818365642L112.25454545454545,140.5957956824984L112.38181818181818,133.84514934676034L112.5090909090909,137.05426589080264L112.63636363636364,137.7202124595642L112.76363636363637,134.4002525976726L113.01818181818182,132.04334826128823L113.14545454545456,134.81345057487488L113.52727272727273,132.0640446117946L114.03636363636365,133.15742424556186L114.41818181818182,136.0150878088815L114.54545454545455,128.63713364941734L114.67272727272727,133.01290142536163L114.8,133.99650476660048L114.92727272727272,131.2066821881703L115.05454545454545,132.2504345348903L115.18181818181819,135.50405391624997L115.30909090909091,140.45482026679176L115.56363636363636,137.1848249265126L115.6909090909091,137.9732081038611L115.81818181818181,134.7228261743273L116.32727272727273,132.57123024123055L116.83636363636364,135.42159589699338L116.96363636363637,138.8732212271009L117.21818181818182,134.19997315747398L117.34545454545454,128.6807119335447L117.47272727272727,136.89013344900948L117.6,129.33855729443687L117.72727272727273,133.13052581037795L117.85454545454544,134.10714195455824L118.23636363636365,135.65380576678683L118.36363636363636,140.02526148727964L118.49090909090908,134.1928768328258L119.12727272727274,133.1960872411728L119.38181818181819,134.43793950762068L119.50909090909092,126.85830695288521L119.63636363636363,132.51820029531206L119.76363636363637,135.82080735479082L120.01818181818182,139.15272426605225L120.39999999999999,128.9130460875375L120.52727272727273,136.17957339968L120.9090909090909,135.0262872661863L121.03636363636363,132.9705114194325L121.16363636363637,133.82299644606454L121.41818181818182,141.22258363451277L121.67272727272729,138.31471986430032L122.05454545454546,138.95626732281278L122.18181818181817,133.07709118298123L122.43636363636364,134.4705913918359L122.81818181818183,136.76020644392287L122.94545454545454,136.53511714935303L123.07272727272728,139.99953011104037L123.32727272727271,135.42234614917209L123.45454545454545,129.24515165601457L123.58181818181818,137.2112671477454L123.70909090909092,130.08350920677185L123.83636363636363,134.42606127262115L123.96363636363637,135.29220088890622L124.0909090909091,133.158571600914L124.21818181818182,134.08083614281247L124.60000000000001,135.90150569166457L124.72727272727272,138.56944942474365L125.23636363636363,133.6062751156943L125.36363636363637,136.8647006579808L125.61818181818181,128.63589535440718L125.87272727272726,137.0745848417282L126.12727272727273,140.30348682403564L126.25454545454546,135.3435287475586L126.38181818181818,136.0437550204141L126.50909090909092,130.22241498742784L126.63636363636364,137.27126610279083L126.76363636363635,130.70891184466225L127.01818181818182,135.64366144793374L127.27272727272727,134.54675941807884L127.52727272727273,141.93715791191374L127.90909090909092,139.02456755297524L128.03636363636363,136.14799915041243L128.16363636363636,139.71057086331504L128.29090909090908,134.13002237251828L128.4181818181818,137.10953143664767L128.67272727272726,128.42856354372842L128.92727272727274,136.67301198414395L129.1818181818182,140.31963467597961L129.3090909090909,135.1463624749865L129.56363636363636,130.07171281746457L129.94545454545454,134.8204165526799L130.20000000000002,133.8064287560327L130.3272727272727,134.83744651930672L130.45454545454544,137.1795883178711L130.83636363636364,138.96417907306125L131.21818181818182,139.7563604967935L131.34545454545454,134.09559868063246L131.6,135.25525816849301L131.85454545454544,133.70293942519595L132.1090909090909,137.23325787271773L132.23636363636365,140.6619262439864L132.74545454545455,137.84824337278093L133,134.84607669285367L133.12727272727273,135.9587173461914L133.25454545454545,134.45911177567075L133.38181818181818,135.37612909930093L133.63636363636365,142.31060237543923L133.76363636363635,136.19948766912734L133.8909090909091,138.60693626744407L134.01818181818183,139.09229031630923L134.52727272727273,136.64672890731265L134.78181818181818,128.9495235000338L134.9090909090909,134.0589984995978L135.03636363636363,137.4332129614694L135.16363636363636,137.50361844471524L135.29090909090908,140.6885677746364L135.79999999999998,138.01062219483512L136.05454545454546,135.22725026948112L136.1818181818182,135.36915705885207L136.56363636363636,137.69285932609012L136.6909090909091,141.9927220429693L136.8181818181818,136.15575327192033L136.94545454545454,138.96335152217318L137.07272727272726,139.423072712762L137.32727272727274,140.1029133456094L137.45454545454547,134.32056823798587L137.5818181818182,136.6909270967756L137.70909090909092,135.8440227338246L137.96363636363637,133.95538943154472L138.34545454545454,140.58259275981356L138.6,135.96147281782967L138.72727272727275,131.6291059936796L138.98181818181817,131.40717685222626L139.10909090909092,135.62466870035445L139.23636363636362,136.5526397057942L139.4909090909091,135.49670599188124L139.61818181818182,138.3194487265178L139.87272727272727,136.7410590989249L140,139.5787674699511L140.63636363636365,137.29143500328064L140.89090909090908,129.02991415773118L141.01818181818183,134.307738167899L141.14545454545456,137.86415023463113L141.27272727272725,137.88327029773166L141.4,141.09440342869078L141.52727272727273,136.48545500210355L141.65454545454543,136.59713951178958L141.9090909090909,138.22507912772042L142.03636363636366,131.42362632070268L142.16363636363636,135.50853421006883L142.54545454545453,135.53735298769814L142.67272727272726,138.12253556932723L142.8,142.59283815111434L142.92727272727274,136.89941687243325L143.1818181818182,139.77571094036102L143.94545454545454,129.33823900563377L144.07272727272726,134.2819082736969L144.20000000000002,137.6512726204736L144.45454545454544,141.36070733410972L144.96363636363637,138.68334225245883L145.34545454545454,136.3599112885339L145.72727272727275,137.51222285202573L146.10909090909092,139.42678001948764L146.23636363636362,140.06190789597375L146.61818181818182,134.8895958662033L146.74545454545452,137.62222497803825L146.87272727272727,136.31613899980272L147.12727272727275,134.2008855853762L147.25454545454545,137.5216942174094L147.38181818181818,137.6338895048414L147.63636363636363,136.35080065046037L147.76363636363635,136.79779786723L147.8909090909091,131.84660637378693L148.01818181818183,138.00251492432187L148.14545454545453,130.8252979346684L148.4,136.0508710486548L148.5272727272727,134.97946546758925L148.78181818181818,138.18338632583618L149.03636363636363,136.79800248146057L149.16363636363636,139.41216298512052L149.41818181818184,137.2835990360805L149.6727272727273,134.79474731854032L149.8,137.44483504976546L149.9272727272727,136.15959547247206L150.05454545454546,129.1493800708226L150.43636363636364,137.78386870452334L150.56363636363636,141.14085085902894L150.6909090909091,135.6206203699112L150.81818181818184,136.58015653065274L151.07272727272726,138.35462721756528L151.20000000000002,130.94507607391904L152.2181818181818,139.43977529661996L152.60000000000002,140.51793845210756L152.72727272727272,135.03296072142464L152.9818181818182,136.00277154786247L153.23636363636362,134.2851608821324L153.36363636363637,137.56787792273929L153.74545454545455,136.56028166839053L153.87272727272727,137.01716251032693L154.12727272727273,138.11672149385726L154.25454545454545,131.40527469771249L154.38181818181818,135.78557581560952L154.5090909090909,136.39702073165347L154.8909090909091,138.54148244857788L155.9090909090909,137.49189480713437L156.03636363636363,136.42131677695681L156.16363636363636,129.9807231426239L156.4181818181818,137.7612247296742L156.6727272727273,141.31114976746696L156.8,136.57125656945365L156.9272727272727,136.90006405966622L157.1818181818182,138.52561044692993L157.43636363636364,136.46895703247617L157.56363636363636,136.93750088555473L157.69090909090912,134.8151420525142L158.0727272727273,142.96669714791435L158.2,137.33208199909757L158.3272727272727,139.2192678451538L158.96363636363637,137.93333409513747L159.21818181818182,129.66228732040952L159.34545454545454,134.72983155931746L159.6,138.18247541359494L159.72727272727272,141.52210628134864L159.9818181818182,137.188588312694L160.74545454545455,134.88172200747897L160.87272727272727,135.38619915076663L161.12727272727273,143.02886198248183L161.3818181818182,140.06021490267347L161.89090909090908,134.7628608431135L162.0181818181818,137.59841849122728L162.14545454545456,135.87942554269517L162.27272727272728,130.1308402674539L162.39999999999998,134.57770769936698L162.65454545454546,138.18867598261153L162.9090909090909,137.05279873098647L163.03636363636363,137.3493377992085L163.16363636363639,132.71041641916548L163.29090909090908,138.95646132741655L163.4181818181818,132.84835823944638L163.54545454545456,136.58897009917666L163.6727272727273,137.1368330376489L164.18181818181816,143.16437571389335L164.43636363636364,140.2007507766996L164.56363636363636,140.46178321327483L165.3272727272727,130.52844209330422L165.58181818181816,138.7448023046766L165.83636363636364,141.92929542064667L165.96363636363637,137.53201132161277L166.0909090909091,137.3192731482642L166.34545454545454,139.3821301630565L166.85454545454547,136.14824165616716L167.23636363636365,143.00821489095688L167.49090909090907,140.14353836434228L167.87272727272725,141.42959109374453L168.25454545454548,137.13099471160342L168.38181818181818,130.71496084758212L168.63636363636365,138.53224904196603L168.76363636363638,138.6756714923041L168.89090909090908,141.68088616643632L169.01818181818183,137.74516781738828L169.14545454545456,138.28611631052834L169.27272727272725,133.5995834725244L169.4,139.31682942594801L169.65454545454546,137.32002188478197L169.78181818181818,137.61243987083435L169.9090909090909,135.60462863104684L170.29090909090908,143.42634861809867L170.4181818181818,137.7499542747225L170.67272727272726,140.87477581841605L171.6909090909091,138.89743845803397L171.8181818181818,138.87850482123238L171.94545454545457,142.21581218072345L172.07272727272726,138.10379593712943L172.2,138.4365350518908L172.45454545454547,139.1381254196167L172.58181818181816,132.8589163337435L172.70909090909092,137.39557152135032L172.83636363636364,137.55949631759097L173.0909090909091,136.34642039026534L173.21818181818182,139.4755858182907L173.34545454545457,143.8643602388246L173.6,140.27987964664186L173.72727272727275,140.8473847934178L173.98181818181817,141.57308856930052L175.25454545454545,138.05738033567155L175.63636363636365,132.89237303393227L175.76363636363635,137.65098919187272L175.89090909090908,138.0234431709562L176.01818181818183,136.68341699668338L176.27272727272725,139.59901215348924L176.4,144.05693784781863L176.52727272727273,138.34325066634585L176.78181818181818,140.89885588203157L177.16363636363636,136.4794135774885L177.29090909090908,139.53988015651703L177.41818181818184,137.83919184548515L177.54545454545453,131.31087933267867L177.67272727272726,136.0151287317276L177.8,138.9303389106478L177.92727272727274,139.55072622639793L178.05454545454543,142.5639413169452L178.3090909090909,138.75572567326682L178.56363636363636,139.5885480301721L178.6909090909091,133.2910464320864L178.94545454545454,137.71555634907315L179.20000000000002,136.87540425573076L179.45454545454544,144.12146635566438L179.5818181818182,138.30030592850278L179.70909090909092,140.3515635899135L179.83636363636361,140.3068788732801L179.96363636363637,138.45894409929002L180.0909090909091,141.61712609870094L180.6,130.6786243915558L181.23636363636362,138.1016618864877L181.36363636363635,138.8398357629776L181.61818181818182,139.62013137340546L181.74545454545452,133.45217634950365L181.87272727272727,137.9513143811907L182.25454545454545,137.00732587065016L182.38181818181818,139.5421005998339L182.50909090909093,144.21986003432954L182.76363636363635,140.64566699096133L183.01818181818183,138.851165328707L183.14545454545453,141.89389412743705L183.5272727272727,138.09182373114993L183.78181818181818,135.95058734076363L184.03636363636363,139.15951291152408L184.16363636363636,142.3130221281733L184.41818181818184,139.04303436619895L184.54545454545453,134.17584686619895L184.9272727272727,137.72388793740953L185.05454545454546,138.14784710747855L185.1818181818182,136.89766931533813L185.43636363636364,140.00229467664445L185.56363636363636,144.4348906448909L185.6909090909091,138.7344912631171L185.94545454545454,140.90799455983299L186.07272727272726,138.6997341258185L186.20000000000002,141.63434552294868L186.3272727272727,137.10626215594155L186.45454545454544,139.4675543308258L186.5818181818182,137.89837082794736L186.83636363636361,136.33547125543868L187.2181818181818,142.41511856658119L187.34545454545454,138.59657217775072L187.60000000000002,134.766759123121L188.10909090909092,138.0226034947804L188.23636363636362,136.90708914824893L188.4909090909091,139.88900811331612L188.6181818181818,144.27227613755633L189,141.19014773198535L189.25454545454545,141.88791863407408L189.5090909090909,140.17372275250298L189.76363636363635,131.52501342977797L189.8909090909091,136.46673052651542L190.0181818181818,139.55526411533356L190.14545454545456,139.79806997094835L190.4,138.68562180655343L190.78181818181818,139.69394709382738L190.9090909090909,134.0447634117944L191.16363636363636,138.6593508550099L191.2909090909091,137.47479057312012L191.4181818181818,137.5535852398191L191.6727272727273,144.48887773071016L192.1818181818182,139.12109545298983L192.43636363636364,137.7498754603522L192.56363636363636,140.19783767632077L192.8181818181818,131.99331629276276L192.94545454545454,136.59894466400146L193.0727272727273,139.822029539517L193.3272727272727,142.8063690151487L193.45454545454547,138.58613078934806L193.96363636363637,134.34003387178694L194.0909090909091,138.7498767375946L194.21818181818182,138.94832980632782L194.34545454545454,137.4949140037809L194.47272727272727,137.5775478397097L194.72727272727272,144.43771280561174L194.9818181818182,141.42916140386035L195.1090909090909,141.67304792574475L195.23636363636365,139.3770981686456L195.36363636363637,142.27532309293747L195.4909090909091,137.96918705531527L195.61818181818182,140.1249965259007L196,136.88269306932176L196.3818181818182,142.8498412030084L196.63636363636363,139.4784049476896L196.89090909090908,139.82033806187766L197.0181818181818,134.32481057303292L197.14545454545456,138.60944317068373L197.27272727272728,139.1156587771007L197.39999999999998,137.69599522863115L197.9090909090909,139.50608546393258L198.4181818181818,142.3256021142006L198.6727272727273,140.16404753071922L198.79999999999998,138.7626188993454L198.92727272727274,132.29418408870697L199.18181818181816,140.0308307835034L199.3090909090909,140.0993833712169L199.43636363636364,142.91000915425164L199.8181818181818,135.25186005660464L200.2,138.5592414481299L200.3272727272727,138.98883129869188L200.45454545454547,137.271628345762L200.7090909090909,140.4955157637596L200.83636363636364,144.77770966291428L200.96363636363637,139.44295666899L201.21818181818182,141.99210895810808L201.34545454545454,139.61900523730685L201.6,138.08343757901872L201.72727272727272,140.70989312444414L201.85454545454547,139.3077794143132L201.98181818181817,132.71325525215696L202.1090909090909,137.24514065470015L202.23636363636365,140.27727346760886L202.49090909090907,143.15678831509183L202.61818181818182,139.21891621180941L203,140.32097906725747L203.63636363636365,137.86868812356676L204.14545454545456,141.79562700646264L205.16363636363639,137.07594893659865L205.29090909090908,140.24740206343787L205.4181818181818,140.13992805991853L205.54545454545456,143.07703726632255L205.67272727272726,139.1141597884042L206.05454545454546,140.16663097483772L206.1818181818182,134.62330181258065L206.43636363636364,139.1057584796633L206.56363636363636,137.16545477935244L206.8181818181818,140.4711439354079L206.94545454545457,144.66246562344688L207.07272727272726,139.6244373662131L207.2,141.71833132846015L207.45454545454547,139.53056945119584L207.70909090909092,137.617346065385L207.83636363636364,139.74431099210466L207.96363636363634,138.3090452296393L208.21818181818182,136.78332027367185L208.34545454545457,140.04284163883756L208.47272727272727,140.1425872870854L208.72727272727275,139.55973834650857L208.98181818181817,135.80889880657196L209.74545454545455,137.4571043252945L210,144.8248793057033L210.5090909090909,139.46424261161258L210.63636363636365,142.0601212126868L210.76363636363635,138.25164563315255L211.27272727272725,137.07497588225772L211.9090909090909,139.92324613673347L212.03636363636366,135.5141179050718L212.54545454545453,139.13667038508822L212.92727272727274,140.24022540875842L213.05454545454543,144.88459483214785L213.43636363636364,142.41789753096444L213.8181818181818,137.93594557898385L213.94545454545454,139.88713020937783L214.07272727272726,138.5826963015965L214.45454545454544,140.01438737767083L214.5818181818182,140.1952064888818L214.96363636363637,140.02516372714723L215.0909090909091,135.48459434509277L215.21818181818182,140.36131535257613L215.34545454545454,134.015624829701L215.47272727272727,139.1150494813919L216.36363636363635,141.7368102669716L216.4909090909091,142.0719698922975L216.61818181818182,139.78082023348128L216.74545454545452,142.67536892209733L217,140.37007890428816L217.12727272727275,139.17037110669273L217.25454545454545,132.3270148209163L217.38181818181818,136.99516723837172L217.50909090909093,139.71539521217346L217.63636363636363,140.0034230862345L217.76363636363635,143.2447640980993L217.8909090909091,139.27697663647788L218.01818181818183,140.00908029079437L218.4,134.79165840148926L218.65454545454546,138.86671601022994L219.2909090909091,139.0060977084296L219.41818181818184,141.43593868187497L219.54545454545453,142.04747074842453L219.8,142.72095242568423L220.3090909090909,132.05369113172804L220.6909090909091,140.2389871137483L220.94545454545454,139.46839552266258L221.45454545454544,134.39726674556732L221.5818181818182,138.61537698337008L221.70909090909092,138.90212185042245L221.83636363636361,137.36195416109902L222.2181818181818,144.87600558144706L222.47272727272727,141.69261662449156L222.60000000000002,142.033356155668L222.72727272727272,139.8511014325278L222.85454545454544,142.75145964963096L222.9818181818182,137.84529086521695L223.23636363636362,138.6584414584296L223.36363636363637,132.29793534960066L223.74545454545455,139.8563380411693L224.12727272727273,140.07466294084276L224.25454545454545,135.66148713656833L224.38181818181818,139.99917696203505L225.0181818181818,138.03227492741178L225.14545454545456,140.68595401729857L225.27272727272728,144.78639743157794L226.2909090909091,138.97297142233168L226.4181818181818,132.1858446427754L226.54545454545453,137.0480122736522L226.8,140.274844620909L226.9272727272727,143.0655940260206L227.05454545454546,139.52886887959073L227.1818181818182,139.95058790275027L227.30909090909088,135.63418856688907L227.43636363636364,140.43087206568038L227.56363636363636,134.33396971225739L227.8181818181818,138.76275530883242L228.0727272727273,137.75113800593783L228.2,139.85544076987674L228.3272727272727,144.608046574252L228.5818181818182,141.8571795139994L228.7090909090909,142.07374321562904L228.96363636363637,142.98542844397682L229.21818181818182,139.59080333369118L229.34545454545454,138.78744845730918L229.6,136.9263092449733L229.72727272727272,139.59851501669203L230.23636363636365,140.16190362828118L230.36363636363637,135.61652960096086L230.4909090909091,140.36731054953168L230.61818181818182,134.86976192678725L230.74545454545455,139.15188004289354L230.87272727272727,139.2059300286429L231,137.8480190549578L231.25454545454545,140.21126643248965L231.3818181818182,144.5910969376564L231.5090909090909,139.29552832671573L231.63636363636363,141.97645293814796L232.14545454545456,138.26638695171903L232.39999999999998,138.72652191775185L232.52727272727273,132.19335322720664L232.65454545454546,137.20282188483645L232.9090909090909,140.41808140277863L233.16363636363639,139.7345577137811L233.4181818181818,135.9917754275458L233.6727272727273,134.89321829591478L233.79999999999998,138.99514857360293L233.92727272727274,138.691454069955L234.18181818181816,137.76891670908248L234.3090909090909,140.6282596247537L234.43636363636364,144.87550844464982L234.56363636363636,139.6357866355351L234.6909090909091,141.91235033103396L234.8181818181818,142.3223631467138L235.0727272727273,142.99910652637482L235.2,138.5929846082415L235.58181818181816,132.42335174764906L235.7090909090909,137.2957728249686L235.96363636363637,140.3936322757176L236.0909090909091,143.44716849497388L236.4727272727273,135.83780700819833L236.6,140.32104045152664L236.72727272727272,134.80416260446822L236.85454545454547,139.2811598607472L236.98181818181817,139.35680953093936L237.23636363636365,138.14437169688088L237.74545454545455,141.6891078693526L238,140.0692353589194L238.12727272727273,142.8811464224543L238.25454545454548,138.48897085871016L238.63636363636365,132.7117395911898L238.76363636363638,137.50964622838157L239.01818181818183,140.54841990981782L239.14545454545456,143.31958167042052L239.27272727272725,139.9598455599376L239.52727272727273,136.36145271573747L239.65454545454546,140.79304758991515L239.78181818181818,135.2531862599509L239.9090909090909,139.38907946859086L240.16363636363639,137.93354477201189L240.4181818181818,140.64380879061562L240.67272727272726,140.170793737684L240.79999999999998,141.70898045812334L241.05454545454546,139.66814599718367L241.1818181818182,142.6425798705646L241.3090909090909,138.5603736468724L241.43636363636364,140.62212650265013L241.6909090909091,132.76501507418496L242.07272727272726,140.56988242694308L242.2,143.43214981045043L242.32727272727274,139.99762568303515L242.45454545454547,140.71915457078387L242.58181818181816,136.08088416712624L242.83636363636364,134.90944193090712L242.96363636363634,139.3203775882721L243.0909090909091,139.37556886672974L243.34545454545457,137.97056327547347L243.47272727272727,140.34729548863004L243.6,145.1346417580332L243.72727272727275,140.12818092959267L243.98181818181817,142.1410340155874L244.10909090909092,140.05021911859512L244.23636363636365,143.08597815036774L244.74545454545455,133.03992869172777L245.12727272727273,140.49957849298204L245.25454545454545,143.4879390171596L245.38181818181818,139.84183468137468L245.76363636363635,141.1028532385826L245.89090909090908,135.5377197776522L246.01818181818183,139.7290437391826L246.14545454545456,139.7111028603145L246.27272727272725,138.34636989661624L246.52727272727273,140.86210186140877L246.65454545454543,145.22096395492554L246.78181818181818,140.26018211671283L247.16363636363636,140.187930558409L247.29090909090908,143.03458890744616L247.54545454545453,140.82061746290753L247.67272727272726,139.57057532242368L247.8,132.7024152449199L248.1818181818182,140.7552667089871L248.43636363636364,140.41104949372155L248.56363636363636,140.87095256362642L248.6909090909091,136.64745794023787L248.8181818181818,141.1319077014923L248.94545454545454,135.5121763433729L249.32727272727274,138.5247040816716L249.70909090909092,145.27870230163848L249.83636363636361,140.30781782524926L250.21818181818182,140.41772673811232L250.34545454545454,143.46697060550963L250.85454545454544,132.81857247012002L251.23636363636362,140.75367299148013L251.36363636363635,143.66171864100863L251.61818181818182,140.70354932546616L251.74545454545452,136.18261229991913L251.87272727272727,140.51302619491304L252.12727272727275,139.60023983887265L252.25454545454545,139.87249271358763L252.38181818181818,138.80643665790558L252.50909090909093,138.73098250797818L253.01818181818183,142.5800103545189L253.14545454545453,142.7027356965201L253.27272727272728,140.2454953619412L253.5272727272727,138.48720359802246L253.65454545454546,140.7407216685159L253.78181818181818,139.4362907920565L254.2909090909091,141.01809596163886L254.41818181818184,143.6314630167825" style="fill: none;" fill="none"></path></g></g></g></g></g></g><g transform="translate(50, 178)" clip-path="url(#clip_1)"><clipPath id="clip_1"><rect width="280" height="22"></rect></clipPath><g><g><line x1="0" y1="0" x2="0" y2="5" style="visibility: inherit;" fill="rgb(0, 0, 0)" stroke="rgb(204, 204, 204)" stroke-width="1px"></line><line x1="25.454545454545457" y1="0" x2="25.454545454545457" y2="5" style="visibility: inherit;" fill="rgb(0, 0, 0)" stroke="rgb(204, 204, 204)" stroke-width="1px"></line><line x1="50.909090909090914" y1="0" x2="50.909090909090914" y2="5" style="visibility: inherit;" fill="rgb(0, 0, 0)" stroke="rgb(204, 204, 204)" stroke-width="1px"></line><line x1="76.36363636363636" y1="0" x2="76.36363636363636" y2="5" style="visibility: inherit;" fill="rgb(0, 0, 0)" stroke="rgb(204, 204, 204)" stroke-width="1px"></line><line x1="101.81818181818183" y1="0" x2="101.81818181818183" y2="5" style="visibility: inherit;" fill="rgb(0, 0, 0)" stroke="rgb(204, 204, 204)" stroke-width="1px"></line><line x1="127.27272727272727" y1="0" x2="127.27272727272727" y2="5" style="visibility: inherit;" fill="rgb(0, 0, 0)" stroke="rgb(204, 204, 204)" stroke-width="1px"></line><line x1="152.72727272727272" y1="0" x2="152.72727272727272" y2="5" style="visibility: inherit;" fill="rgb(0, 0, 0)" stroke="rgb(204, 204, 204)" stroke-width="1px"></line><line x1="178.1818181818182" y1="0" x2="178.1818181818182" y2="5" style="visibility: inherit;" fill="rgb(0, 0, 0)" stroke="rgb(204, 204, 204)" stroke-width="1px"></line><line x1="203.63636363636365" y1="0" x2="203.63636363636365" y2="5" style="visibility: inherit;" fill="rgb(0, 0, 0)" stroke="rgb(204, 204, 204)" stroke-width="1px"></line><line x1="229.0909090909091" y1="0" x2="229.0909090909091" y2="5" style="visibility: inherit;" fill="rgb(0, 0, 0)" stroke="rgb(204, 204, 204)" stroke-width="1px"></line><line x1="254.54545454545453" y1="0" x2="254.54545454545453" y2="5" style="visibility: inherit;" fill="rgb(0, 0, 0)" stroke="rgb(204, 204, 204)" stroke-width="1px"></line><line x1="280" y1="0" x2="280" y2="5" style="visibility: inherit;" fill="rgb(0, 0, 0)" stroke="rgb(204, 204, 204)" stroke-width="1px"></line></g><g transform="translate(0, 8)"><text x="0" y="0" dx="0em" dy="0.95em" style="text-anchor: middle; visibility: hidden; font-family: &quot;Helvetica Neue&quot;, sans-serif; font-size: 12px; font-weight: 200;" fill="rgb(50, 49, 63)" stroke="none" stroke-width="1px">-200</text><text x="25.454545454545457" y="0" dx="0em" dy="0.95em" style="text-anchor: middle; visibility: inherit; font-family: &quot;Helvetica Neue&quot;, sans-serif; font-size: 12px; font-weight: 200;" fill="rgb(50, 49, 63)" stroke="none" stroke-width="1px">0</text><text x="50.909090909090914" y="0" dx="0em" dy="0.95em" style="text-anchor: middle; visibility: hidden; font-family: &quot;Helvetica Neue&quot;, sans-serif; font-size: 12px; font-weight: 200;" fill="rgb(50, 49, 63)" stroke="none" stroke-width="1px">200</text><text x="76.36363636363636" y="0" dx="0em" dy="0.95em" style="text-anchor: middle; visibility: inherit; font-family: &quot;Helvetica Neue&quot;, sans-serif; font-size: 12px; font-weight: 200;" fill="rgb(50, 49, 63)" stroke="none" stroke-width="1px">400</text><text x="101.81818181818183" y="0" dx="0em" dy="0.95em" style="text-anchor: middle; visibility: hidden; font-family: &quot;Helvetica Neue&quot;, sans-serif; font-size: 12px; font-weight: 200;" fill="rgb(50, 49, 63)" stroke="none" stroke-width="1px">600</text><text x="127.27272727272727" y="0" dx="0em" dy="0.95em" style="text-anchor: middle; visibility: inherit; font-family: &quot;Helvetica Neue&quot;, sans-serif; font-size: 12px; font-weight: 200;" fill="rgb(50, 49, 63)" stroke="none" stroke-width="1px">800</text><text x="152.72727272727272" y="0" dx="0em" dy="0.95em" style="text-anchor: middle; visibility: hidden; font-family: &quot;Helvetica Neue&quot;, sans-serif; font-size: 12px; font-weight: 200;" fill="rgb(50, 49, 63)" stroke="none" stroke-width="1px">1k</text><text x="178.1818181818182" y="0" dx="0em" dy="0.95em" style="text-anchor: middle; visibility: inherit; font-family: &quot;Helvetica Neue&quot;, sans-serif; font-size: 12px; font-weight: 200;" fill="rgb(50, 49, 63)" stroke="none" stroke-width="1px">1.2k</text><text x="203.63636363636365" y="0" dx="0em" dy="0.95em" style="text-anchor: middle; visibility: hidden; font-family: &quot;Helvetica Neue&quot;, sans-serif; font-size: 12px; font-weight: 200;" fill="rgb(50, 49, 63)" stroke="none" stroke-width="1px">1.4k</text><text x="229.0909090909091" y="0" dx="0em" dy="0.95em" style="text-anchor: middle; visibility: inherit; font-family: &quot;Helvetica Neue&quot;, sans-serif; font-size: 12px; font-weight: 200;" fill="rgb(50, 49, 63)" stroke="none" stroke-width="1px">1.6k</text><text x="254.54545454545453" y="0" dx="0em" dy="0.95em" style="text-anchor: middle; visibility: hidden; font-family: &quot;Helvetica Neue&quot;, sans-serif; font-size: 12px; font-weight: 200;" fill="rgb(50, 49, 63)" stroke="none" stroke-width="1px">1.8k</text><text x="280" y="0" dx="0em" dy="0.95em" style="text-anchor: middle; visibility: hidden; font-family: &quot;Helvetica Neue&quot;, sans-serif; font-size: 12px; font-weight: 200;" fill="rgb(50, 49, 63)" stroke="none" stroke-width="1px">2k</text></g><line x1="0" y1="0" x2="280" y2="0" fill="rgb(0, 0, 0)" stroke="rgb(204, 204, 204)" stroke-width="1px"></line></g></g></g></g></svg>