<svg viewBox="0 0 330 200" xmlns="http://www.w3.org/2000/svg"><g><g><g><g><g><line x1="50" y1="178" x2="45" y2="178" style="visibility: inherit;" fill="rgb(0, 0, 0)" stroke="rgb(204, 204, 204)" stroke-width="1px"></line><line x1="50" y1="161.8181818181818" x2="45" y2="161.8181818181818" style="visibility: inherit;" fill="rgb(0, 0, 0)" stroke="rgb(204, 204, 204)" stroke-width="1px"></line><line x1="50" y1="145.63636363636365" x2="45" y2="145.63636363636365" style="visibility: inherit;" fill="rgb(0, 0, 0)" stroke="rgb(204, 204, 204)" stroke-width="1px"></line><line x1="50" y1="129.45454545454544" x2="45" y2="129.45454545454544" style="visibility: inherit;" fill="rgb(0, 0, 0)" stroke="rgb(204, 204, 204)" stroke-width="1px"></line><line x1="50" y1="113.2727272727273" x2="45" y2="113.2727272727273" style="visibility: inherit;" fill="rgb(0, 0, 0)" stroke="rgb(204, 204, 204)" stroke-width="1px"></line><line x1="50" y1="97.0909090909091" x2="45" y2="97.0909090909091" style="visibility: inherit;" fill="rgb(0, 0, 0)" stroke="rgb(204, 204, 204)" stroke-width="1px"></line><line x1="50" y1="80.90909090909089" x2="45" y2="80.90909090909089" style="visibility: inherit;" fill="rgb(0, 0, 0)" stroke="rgb(204, 204, 204)" stroke-width="1px"></line><line x1="50" y1="64.72727272727275" x2="45" y2="64.72727272727275" style="visibility: inherit;" fill="rgb(0, 0, 0)" stroke="rgb(204, 204, 204)" stroke-width="1px"></line><line x1="50" y1="48.54545454545453" x2="45" y2="48.54545454545453" style="visibility: inherit;" fill="rgb(0, 0, 0)" stroke="rgb(204, 204, 204)" stroke-width="1px"></line><line x1="50" y1="32.3636363636364" x2="45" y2="32.3636363636364" style="visibility: inherit;" fill="rgb(0, 0, 0)" stroke="rgb(204, 204, 204)" stroke-width="1px"></line><line x1="50" y1="16.181818181818187" x2="45" y2="16.181818181818187" style="visibility: inherit;" fill="rgb(0, 0, 0)" stroke="rgb(204, 204, 204)" stroke-width="1px"></line><line x1="50" y1="0" x2="45" y2="0" style="visibility: inherit;" fill="rgb(0, 0, 0)" stroke="rgb(204, 204, 204)" stroke-width="1px"></line></g><g transform="translate(40, 0)"><text x="0" y="178" dx="0em" dy="0.3em" style="text-anchor: end; visibility: hidden; font-family: &quot;Helvetica Neue&quot;, sans-serif; font-size: 12px; font-weight: 200;" fill="rgb(50, 49, 63)" stroke="none" stroke-width="1px">0.5</text><text x="0" y="161.8181818181818" dx="0em" dy="0.3em" style="text-anchor: end; visibility: inherit; font-family: &quot;Helvetica Neue&quot;, sans-serif; font-size: 12px; font-weight: 200;" fill="rgb(50, 49, 63)" stroke="none" stroke-width="1px">0.55</text><text x="0" y="145.63636363636365" dx="0em" dy="0.3em" style="text-anchor: end; visibility: hidden; font-family: &quot;Helvetica Neue&quot;, sans-serif; font-size: 12px; font-weight: 200;" fill="rgb(50, 49, 63)" stroke="none" stroke-width="1px">0.6</text><text x="0" y="129.45454545454544" dx="0em" dy="0.3em" style="text-anchor: end; visibility: inherit; font-family: &quot;Helvetica Neue&quot;, sans-serif; font-size: 12px; font-weight: 200;" fill="rgb(50, 49, 63)" stroke="none" stroke-width="1px">0.65</text><text x="0" y="113.2727272727273" dx="0em" dy="0.3em" style="text-anchor: end; visibility: hidden; font-family: &quot;Helvetica Neue&quot;, sans-serif; font-size: 12px; font-weight: 200;" fill="rgb(50, 49, 63)" stroke="none" stroke-width="1px">0.7</text><text x="0" y="97.0909090909091" dx="0em" dy="0.3em" style="text-anchor: end; visibility: inherit; font-family: &quot;Helvetica Neue&quot;, sans-serif; font-size: 12px; font-weight: 200;" fill="rgb(50, 49, 63)" stroke="none" stroke-width="1px">0.75</text><text x="0" y="80.90909090909089" dx="0em" dy="0.3em" style="text-anchor: end; visibility: hidden; font-family: &quot;Helvetica Neue&quot;, sans-serif; font-size: 12px; font-weight: 200;" fill="rgb(50, 49, 63)" stroke="none" stroke-width="1px">0.8</text><text x="0" y="64.72727272727275" dx="0em" dy="0.3em" style="text-anchor: end; visibility: inherit; font-family: &quot;Helvetica Neue&quot;, sans-serif; font-size: 12px; font-weight: 200;" fill="rgb(50, 49, 63)" stroke="none" stroke-width="1px">0.85</text><text x="0" y="48.54545454545453" dx="0em" dy="0.3em" style="text-anchor: end; visibility: hidden; font-family: &quot;Helvetica Neue&quot;, sans-serif; font-size: 12px; font-weight: 200;" fill="rgb(50, 49, 63)" stroke="none" stroke-width="1px">0.9</text><text x="0" y="32.3636363636364" dx="0em" dy="0.3em" style="text-anchor: end; visibility: inherit; font-family: &quot;Helvetica Neue&quot;, sans-serif; font-size: 12px; font-weight: 200;" fill="rgb(50, 49, 63)" stroke="none" stroke-width="1px">0.95</text><text x="0" y="16.181818181818187" dx="0em" dy="0.3em" style="text-anchor: end; visibility: hidden; font-family: &quot;Helvetica Neue&quot;, sans-serif; font-size: 12px; font-weight: 200;" fill="rgb(50, 49, 63)" stroke="none" stroke-width="1px">1</text><text x="0" y="0" dx="0em" dy="0.3em" style="text-anchor: end; visibility: hidden; font-family: &quot;Helvetica Neue&quot;, sans-serif; font-size: 12px; font-weight: 200;" fill="rgb(50, 49, 63)" stroke="none" stroke-width="1px">1.05</text></g><line x1="50" y1="0" x2="50" y2="178" fill="rgb(0, 0, 0)" stroke="rgb(204, 204, 204)" stroke-width="1px"></line></g></g><g transform="translate(50, 0)" clip-path="url(#clip_0)"><clipPath id="clip_0"><rect width="280" height="178"></rect></clipPath><g><g><g><line x1="0" y1="0" x2="0" y2="178" fill="rgb(0, 0, 0)" stroke="rgb(60, 60, 60)" stroke-width="1px" opacity="0.25"></line><line x1="25.454545454545457" y1="0" x2="25.454545454545457" y2="178" fill="rgb(0, 0, 0)" stroke="rgb(60, 60, 60)" stroke-width="1px" opacity="0.25"></line><line x1="50.909090909090914" y1="0" x2="50.909090909090914" y2="178" fill="rgb(0, 0, 0)" stroke="rgb(60, 60, 60)" stroke-width="1px" opacity="0.25"></line><line x1="76.36363636363636" y1="0" x2="76.36363636363636" y2="178" fill="rgb(0, 0, 0)" stroke="rgb(60, 60, 60)" stroke-width="1px" opacity="0.25"></line><line x1="101.81818181818183" y1="0" x2="101.81818181818183" y2="178" fill="rgb(0, 0, 0)" stroke="rgb(60, 60, 60)" stroke-width="1px" opacity="0.25"></line><line x1="127.27272727272727" y1="0" x2="127.27272727272727" y2="178" fill="rgb(0, 0, 0)" stroke="rgb(60, 60, 60)" stroke-width="1px" opacity="0.25"></line><line x1="152.72727272727272" y1="0" x2="152.72727272727272" y2="178" fill="rgb(0, 0, 0)" stroke="rgb(60, 60, 60)" stroke-width="1px" opacity="0.25"></line><line x1="178.1818181818182" y1="0" x2="178.1818181818182" y2="178" fill="rgb(0, 0, 0)" stroke="rgb(60, 60, 60)" stroke-width="1px" opacity="0.25"></line><line x1="203.63636363636365" y1="0" x2="203.63636363636365" y2="178" fill="rgb(0, 0, 0)" stroke="rgb(60, 60, 60)" stroke-width="1px" opacity="0.25"></line><line x1="229.0909090909091" y1="0" x2="229.0909090909091" y2="178" fill="rgb(0, 0, 0)" stroke="rgb(60, 60, 60)" stroke-width="1px" opacity="0.25"></line><line x1="254.54545454545453" y1="0" x2="254.54545454545453" y2="178" fill="rgb(0, 0, 0)" stroke="rgb(60, 60, 60)" stroke-width="1px" opacity="0.25"></line><line x1="280" y1="0" x2="280" y2="178" fill="rgb(0, 0, 0)" stroke="rgb(60, 60, 60)" stroke-width="1px" opacity="0.25"></line></g><g><line x1="0" y1="178" x2="280" y2="178" fill="rgb(0, 0, 0)" stroke="rgb(60, 60, 60)" stroke-width="1px" opacity="0.25"></line><line x1="0" y1="161.8181818181818" x2="280" y2="161.8181818181818" fill="rgb(0, 0, 0)" stroke="rgb(60, 60, 60)" stroke-width="1px" opacity="0.25"></line><line x1="0" y1="145.63636363636365" x2="280" y2="145.63636363636365" fill="rgb(0, 0, 0)" stroke="rgb(60, 60, 60)" stroke-width="1px" opacity="0.25"></line><line x1="0" y1="129.45454545454544" x2="280" y2="129.45454545454544" fill="rgb(0, 0, 0)" stroke="rgb(60, 60, 60)" stroke-width="1px" opacity="0.25"></line><line x1="0" y1="113.2727272727273" x2="280" y2="113.2727272727273" fill="rgb(0, 0, 0)" stroke="rgb(60, 60, 60)" stroke-width="1px" opacity="0.25"></line><line x1="0" y1="97.0909090909091" x2="280" y2="97.0909090909091" fill="rgb(0, 0, 0)" stroke="rgb(60, 60, 60)" stroke-width="1px" opacity="0.25"></line><line x1="0" y1="80.90909090909089" x2="280" y2="80.90909090909089" fill="rgb(0, 0, 0)" stroke="rgb(60, 60, 60)" stroke-width="1px" opacity="0.25"></line><line x1="0" y1="64.72727272727275" x2="280" y2="64.72727272727275" fill="rgb(0, 0, 0)" stroke="rgb(60, 60, 60)" stroke-width="1px" opacity="0.25"></line><line x1="0" y1="48.54545454545453" x2="280" y2="48.54545454545453" fill="rgb(0, 0, 0)" stroke="rgb(60, 60, 60)" stroke-width="1px" opacity="0.25"></line><line x1="0" y1="32.3636363636364" x2="280" y2="32.3636363636364" fill="rgb(0, 0, 0)" stroke="rgb(60, 60, 60)" stroke-width="1px" opacity="0.25"></line><line x1="0" y1="16.181818181818187" x2="280" y2="16.181818181818187" fill="rgb(0, 0, 0)" stroke="rgb(60, 60, 60)" stroke-width="1px" opacity="0.25"></line><line x1="0" y1="0" x2="280" y2="0" fill="rgb(0, 0, 0)" stroke="rgb(60, 60, 60)" stroke-width="1px" opacity="0.25"></line></g></g></g><g><g><line x1="0" y1="339.8181818181818" x2="280" y2="339.8181818181818" fill="rgb(0, 0, 0)" stroke="rgb(153, 153, 153)" stroke-width="1.5px"></line></g></g><g><g><line x1="25.454545454545457" y1="0" x2="25.454545454545457" y2="178" fill="rgb(0, 0, 0)" stroke="rgb(153, 153, 153)" stroke-width="1.5px"></line></g></g><g><g><g><g><g><path stroke="rgb(255, 112, 67)" stroke-width="2px" d="M26.090909090909093,150.73374145681208L26.21818181818182,138.28493588620967L26.727272727272727,128.69415314962777L26.854545454545452,121.23032254522496L27.10909090909091,116.62827519845246L27.236363636363638,115.5744136268419L27.363636363636363,118.80016697839878L27.49090909090909,123.06344285359862L27.618181818181817,124.49546959898589L27.745454545454546,123.60756863543216L27.872727272727275,126.04977569861543L28,120.06294265563477L28.50909090909091,132.22507819063938L28.636363636363637,131.07233034005094L29.654545454545456,122.99879735643127L29.781818181818185,120.5720307934929L30.036363636363635,106.35804448160188L30.41818181818182,99.25582055852767L30.545454545454543,103.89265362068454L30.8,101.62821042572935L30.92727272727273,103.04929581139817L31.054545454545455,99.38233635337428L31.18181818181818,97.57548389369458L31.436363636363637,94.72681092902704L31.690909090909088,108.2905062992024L31.818181818181817,123.87865257810853L32.2,119.90092645816144L32.32727272727273,107.61817530606277L32.45454545454545,99.57514582808547L32.58181818181818,95.04925460792248L32.70909090909091,92.22922918179746L33.09090909090909,85.12854946518303L33.21818181818182,78.82332345456096L33.472727272727276,79.91511492102876L33.72727272727273,85.09262235929917L33.85454545454545,86.88880312327072L33.981818181818184,89.26925800383425L34.10909090909091,87.72471349074593L34.49090909090909,82.12639449724153L34.61818181818182,92.52772639189754L34.74545454545454,98.548902387431L34.872727272727275,111.17938178763008L35.127272727272725,103.3896829137404L35.509090909090915,95.48682561185429L36.14545454545455,84.7830256804975L36.27272727272727,76.21998538720672L36.4,76.99457827680882L36.52727272727273,75.30921405561374L36.654545454545456,83.97964646507351L36.78181818181819,86.66946141449952L37.41818181818182,82.6561895315083L38.43636363636364,81.55500062783179L38.69090909090909,78.77109649250008L38.81818181818182,73.24815547420192L38.945454545454545,77.94387203319239L39.836363636363636,79.99487796290273L40.21818181818182,79.74761838235587L40.47272727272727,77.1769575269107L40.599999999999994,73.00101245046675L40.72727272727273,85.46046671141947L41.236363636363635,85.86933308166125L41.36363636363637,90.60274107810616L41.49090909090909,85.80144718079363L41.87272727272727,76.39695408922675L42,78.21886755380017L42.38181818181818,70.40114828829478L42.89090909090909,74.84197943304324L43.14545454545454,80.06326699789969L43.4,74.35047348082213L43.52727272727273,73.40460898071075L43.654545454545456,69.44244181540061L43.78181818181818,79.75572119067526L43.909090909090914,83.78567529863365L44.03636363636364,95.4781359524124L44.29090909090909,90.12472426997816L44.54545454545455,84.62936983822648L44.92727272727273,73.12466565127129L45.054545454545455,68.69106980286108L45.18181818181819,69.04629939542184L45.43636363636363,63.55681291667207L45.56363636363636,66.20391016544178L45.69090909090909,65.42791156918031L46.07272727272728,72.42724580680913L46.32727272727273,74.0695790736629L46.45454545454546,69.93962657655527L46.709090909090904,66.66426639462478L46.836363636363636,74.91040324067778L47.21818181818182,69.84281372799265L47.72727272727273,70.962205941846L47.85454545454545,70.09647934485946L47.98181818181818,64.33252354608025L48.10909090909091,61.476259889172724L48.36363636363637,59.917301936671905L48.49090909090909,57.12835206557314L48.74545454545455,58.70547085765223L49,65.35582470861101L49.127272727272725,69.54324490354128L49.25454545454545,76.44784330442945L49.38181818181818,74.48387864625965L49.63636363636364,72.3331564932312L49.763636363636365,67.94816899387243L50.654545454545456,70.76389653085047L51.163636363636364,63.729033102004195L51.67272727272727,64.3943304280527L51.8,61.72345320886353L51.92727272727273,67.8833696395515L52.43636363636364,69.02543187062277L52.56363636363636,65.6134551173577L52.69090909090909,64.93416245778813L52.81818181818181,62.812163769117575L53.2,78.10779105793496L53.32727272727273,70.8287335281381L53.709090909090904,71.53456790064085L53.836363636363636,71.58606028717072L54.090909090909086,65.00568446775696L54.21818181818182,59.496393215582955L54.345454545454544,61.127990920499684L54.6,57.79897810928999L54.72727272727273,60.95820397303474L54.85454545454546,59.31928315153213L54.98181818181818,66.01662142401145L55.10909090909091,66.04826615538232L55.236363636363635,66.08966052594316L55.61818181818182,64.04113687855973L55.74545454545455,63.20515758753514L56,67.24325569573729L56.50909090909091,72.39608341192144L56.63636363636363,75.279769628202L56.89090909090909,73.65081148464604L57.14545454545455,65.77852179804192L57.27272727272727,59.3747528597367L57.90909090909091,56.87554678836288L58.290909090909096,60.44655282318976L58.41818181818182,69.00257165931801L58.54545454545454,69.11145600662151L58.67272727272727,64.71514148866086L58.92727272727272,59.41962198176405L59.43636363636364,58.781359859673884L59.690909090909095,65.42425175537066L59.945454545454545,66.50345070379612L60.07272727272727,65.08453885392383L60.199999999999996,60.95625998130515L60.70909090909091,56.87629765221304L60.83636363636364,59.04718847569397L61.090909090909086,66.20940054463381L61.345454545454544,65.79498867938592L61.6,67.47780289446573L62.236363636363635,68.2293264108072L62.49090909090909,63.74291374254699L62.61818181818182,69.9051739116437L63,68.83450973000957L63.25454545454546,63.89752720683009L63.381818181818176,55.743873702277426L63.50909090909091,58.06393612377677L63.763636363636365,54.945632192482265L63.89090909090909,57.4575985357375L64.01818181818182,54.71325012194741L64.52727272727273,64.61685948243137L64.65454545454546,65.9827342745252L64.9090909090909,65.25312246779127L65.2909090909091,66.60217085366615L65.8,69.43271449464929L65.92727272727272,67.42082719144065L66.05454545454545,66.20273024250443L66.18181818181819,63.42866629172626L66.43636363636364,55.19923007482936L66.81818181818183,53.50802925930303L66.94545454545455,56.53843923956951L67.07272727272726,54.24608371586085L67.45454545454545,58.356256394622136L67.58181818181818,67.46298326792564L67.83636363636364,63.15232781018169L68.6,59.92109299459176L68.85454545454546,64.11116697589881L68.98181818181818,63.436158176012285L69.10909090909091,64.89424193735678L69.23636363636363,62.78305710727159L69.36363636363637,58.393566536424416L69.61818181818181,58.671092050871906L69.74545454545455,56.533173276815546L70.38181818181818,57.926054142397675L70.50909090909092,60.651152713044254L70.76363636363637,63.44721366776018L71.01818181818183,61.13890219815367L71.14545454545454,55.184075145269404L71.27272727272727,59.22801129990242L71.65454545454546,56.63270161081856L71.78181818181818,64.5365713795882L71.9090909090909,67.10104165060669L72.16363636363637,66.87032356338983L72.2909090909091,63.53348761864693L72.54545454545455,54.60776738836013L72.67272727272727,55.863614217611925L72.92727272727272,53.42355521255732L73.18181818181817,51.54929376790416L73.43636363636364,53.58234701408281L73.56363636363638,56.731541518941086L73.69090909090909,65.55015531075654L73.94545454545455,62.52998888916278L74.07272727272726,60.722078874269144L74.45454545454545,61.72165770206392L74.58181818181818,65.52368356943616L74.70909090909092,61.409539530366885L74.83636363636364,65.73389172372991L75.0909090909091,62.28467320853771L75.21818181818182,63.1626430218855L75.34545454545454,61.02088386860673L75.47272727272727,56.60499310359036L76.61818181818181,58.14636152793679L76.74545454545455,64.9626273089685L77,61.02098418969683L77.38181818181818,60.0164688298304L78.27272727272727,60.765040259801225L78.4,59.05987332483163L78.9090909090909,54.49587388711643L79.03636363636365,51.182455601828835L79.16363636363636,53.309358018523625L79.41818181818182,58.224115336848826L79.67272727272727,58.039225488036806L79.92727272727272,59.692699516926524L80.18181818181819,57.60328535471494L81.32727272727273,59.01252200309554L81.45454545454545,57.4086676853057L81.58181818181819,54.23206811703726L81.7090909090909,48.183901750571266L81.96363636363637,47.82258178964497L82.09090909090908,47.276358972857054L82.47272727272727,53.58117751639354L82.85454545454544,61.45000180763219L83.61818181818182,60.110853804666505L83.74545454545454,63.37539683410829L83.87272727272727,59.28964466881882L84,64.02754653223722L84.12727272727274,62.847086314728074L84.38181818181819,61.234515043175904L84.50909090909092,58.2489209593883L84.63636363636363,53.807410915532216L84.89090909090909,53.58271133023085L85.01818181818182,50.973988963416176L85.14545454545454,48.88227114058412L85.39999999999999,48.01779045340453L85.65454545454546,49.92398432300709L85.78181818181818,52.23418859864822L86.29090909090908,52.09165299073187L87.18181818181817,55.578643732444036L87.30909090909091,55.06486692780426L87.56363636363636,54.673714582646895L87.69090909090909,51.898036854363326L87.94545454545454,51.57794632401604L88.2,49.85594524510989L88.58181818181818,53.652848558670385L89.47272727272727,49.21667088419238L89.85454545454546,56.39383060002896L89.98181818181818,53.74797365714758L90.36363636363637,53.11731665250723L90.49090909090908,56.029889784123554L90.61818181818181,55.18710293230829L90.87272727272726,48.677261703898466L91,50.78777923858112L91.12727272727273,49.41893624903693L91.25454545454546,48.05759659467029L91.50909090909092,46.04367196215111L92.14545454545456,51.03475744517395L92.27272727272727,51.35103739224198L93.03636363636363,50.39995798097176L93.2909090909091,52.64909449863832L93.41818181818181,52.01213020201834L93.54545454545455,54.42232822899352L93.67272727272727,53.86668439494893L93.80000000000001,50.89814458416838L93.92727272727272,45.22442965474798L94.05454545454546,47.22580167837458L94.18181818181819,46.1747605459596L94.3090909090909,45.14068455383861L94.43636363636364,47.53385135896772L94.69090909090909,52.080764074241856L95.07272727272728,59.57434709561265L95.2,59.39100335111203L95.32727272727273,56.053409751312216L95.58181818181818,50.349992007375846L95.7090909090909,50.648633302015185L96.0909090909091,49.48960077699658L96.34545454545456,51.979206650529676L96.6,54.73152654061634L96.72727272727273,54.078646429879626L97.10909090909091,52.99789447857766L97.23636363636363,50.239161536916896L97.36363636363636,47.623993606137816L97.61818181818182,45.32668664663723L97.74545454545455,49.172336086742774L97.87272727272727,48.819255741956L98.12727272727273,56.5775366348431L98.38181818181819,54.90132806597221L98.5090909090909,53.70016202540762L98.8909090909091,52.7477481524117L99.01818181818182,56.724372903648515L99.14545454545454,53.723774656468024L99.27272727272728,58.46680078034764L99.39999999999999,56.493477060782254L99.52727272727273,53.94901231734649L99.65454545454546,54.55020021628012L99.78181818181818,53.20648991819806L100.03636363636365,46.30451232374932L100.16363636363636,47.67664339542037L100.67272727272727,45.17703323060604L100.8,50.984012920985265L100.92727272727274,50.75153659433808L101.18181818181819,58.6976357856434L101.30909090909091,58.136284250288995L101.43636363636362,54.77796736635773L101.56363636363636,52.41402468250996L101.81818181818183,51.92414416228364L102.07272727272728,56.11265584495983L102.32727272727273,60.439831562118414L102.58181818181819,56.64561542272803L102.83636363636363,54.83832445383216L103.0909090909091,47.28635225785948L103.21818181818182,48.37636525361373L103.34545454545454,47.15615740484267L103.72727272727273,45.42540832743262L104.23636363636363,54.58863585658362L104.36363636363637,55.65960336606199L104.61818181818182,52.822396045210894L104.74545454545455,47.879899353228524L105,50.52124571989167L105.50909090909092,51.39493848307137L105.63636363636363,50.61125336541656L105.89090909090909,50.72396219589125L106.14545454545454,44.47120520255564L106.65454545454546,46.32704354015132L107.03636363636363,47.429257899825416L107.16363636363637,50.03268834099724L107.41818181818181,53.37092158447669L107.54545454545455,52.68339907134698L107.67272727272727,51.30692959756007L107.8,47.50468108991814L107.92727272727272,50.77260660330833L108.05454545454546,52.09706980055256L108.18181818181817,55.96873238450969L108.30909090909091,52.67182220894293L108.43636363636364,57.57552755998489L108.94545454545455,55.36435026276986L109.07272727272726,51.65774642003544L109.32727272727273,50.431436254925444L109.58181818181818,47.16707902701421L109.96363636363635,50.33155638796035L110.21818181818182,51.2930539624482L110.34545454545454,58.104061171913585L110.47272727272727,57.70661283951176L110.85454545454546,51.33158972893679L110.98181818181818,51.49301773492844L111.1090909090909,51.45394014229987L111.23636363636363,55.348231374142784L111.36363636363636,53.08981148156799L111.61818181818181,52.313165533155754L111.74545454545455,50.82259666181241L111.87272727272727,52.06450176012676L112.12727272727273,48.93543350777503L112.25454545454545,43.207006682534825L112.38181818181818,45.60980552138943L112.5090909090909,45.18742355580903L112.63636363636364,44.45088984404563L112.76363636363637,46.682502969926134L113.01818181818182,49.56448095024072L113.14545454545456,49.1603225679749L113.52727272727273,51.97529820706134L114.03636363636365,51.25906962761151L114.41818181818182,50.16207569116763L114.54545454545455,55.910041417868854L114.67272727272727,53.7258574999523L114.8,52.01270602621095L114.92727272727272,53.60062440918361L115.05454545454545,53.37898620667849L115.18181818181819,50.65470032677365L115.30909090909091,44.55155462169563L115.56363636363636,44.38348288079996L115.6909090909091,43.75147948164826L115.81818181818181,45.98986141057989L116.32727272727273,49.18227582947449L116.83636363636364,49.34057738539107L116.96363636363637,46.27068736321377L117.21818181818182,47.31224157150936L117.34545454545454,52.53603449035771L117.47272727272727,50.37516512017899L117.6,55.6731476810607L117.72727272727273,53.96636998597795L117.85454545454544,52.42323413078577L118.23636363636365,50.1347910449887L118.36363636363636,44.783832751327424L118.49090909090908,46.547999884255916L119.12727272727274,48.636729645796805L119.38181818181819,49.442981997877354L119.50909090909092,56.520265364497874L119.63636363636363,56.154063494766305L119.76363636363637,53.270971113411406L120.01818181818182,48.430265090338L120.39999999999999,52.86596708060327L120.52727272727273,51.29795122697743L120.9090909090909,50.026090495208535L121.03636363636363,51.427924340238135L121.16363636363637,51.323610450894705L121.41818181818182,44.558809003330424L121.67272727272729,44.00712352081152L122.05454545454546,42.2453404036024L122.18181818181817,46.20348354597229L122.43636363636364,48.01350518606614L122.81818181818183,47.674548843756384L122.94545454545454,47.49407640000939L123.07272727272728,44.409426110391365L123.32727272727271,45.41019496871397L123.45454545454545,50.88074503437335L123.58181818181818,49.214289898792316L123.70909090909092,54.56027764549653L123.83636363636363,52.29743870560628L123.96363636363637,50.687056470517305L124.0909090909091,51.745005027524115L124.21818181818182,51.39872705160414L124.60000000000001,49.62828184225731L124.72727272727272,46.90190826093297L125.23636363636363,48.83843418066422L125.36363636363637,47.37712530068478L125.61818181818181,54.245205476875256L125.87272727272726,51.305049897591985L126.12727272727273,46.52830866114488L126.25454545454546,46.73263589387486L126.38181818181818,46.350522642947794L126.50909090909092,51.13034112788294L126.63636363636364,49.62511381827028L126.76363636363635,54.468791726797605L127.01818181818182,51.82410347457731L127.27272727272727,51.14883879095646L127.52727272727273,44.35590533992033L127.90909090909092,43.76847480989812L128.03636363636363,45.68465562291067L128.16363636363636,43.11979103082868L128.29090909090908,46.411292596263735L128.4181818181818,46.011944250607144L128.67272727272726,54.00014324187043L128.92727272727274,51.61789936758541L129.1818181818182,46.95854283696528L129.3090909090909,47.45743793931183L129.56363636363636,52.044267926190315L129.94545454545454,50.717369520085185L130.20000000000002,51.51293683905976L130.3272727272727,50.692044718403935L130.45454545454544,48.39431424448341L130.83636363636364,46.031881921185146L131.21818181818182,43.33167621220372L131.34545454545454,46.49972750272394L131.6,48.08789450514669L131.85454545454544,50.64475422364576L132.1090909090909,48.96192319278455L132.23636363636365,44.78961443355402L132.74545454545455,45.4820570956349L133,47.05948901673597L133.12727272727273,47.3253116767541L133.25454545454545,49.093764817553705L133.38181818181818,48.965771462387295L133.63636363636365,42.64051485302943L133.76363636363635,44.36351650556213L133.8909090909091,43.76207694227216L134.01818181818183,43.0769367136532L134.52727272727273,44.588926518492855L134.78181818181818,52.579539334224734L134.9090909090909,53.039492541547105L135.03636363636363,50.46906749952656L135.16363636363636,48.71670328380685L135.29090909090908,44.75600163656051L135.79999999999998,45.165182524211474L136.05454545454546,46.49445478624435L136.1818181818182,47.24961050075274L136.56363636363636,46.371901792256295L136.6909090909091,41.65405732402212L136.8181818181818,43.98658916847219L136.94545454545454,43.33387466585606L137.07272727272726,42.67134168336372L137.32727272727274,40.87191596707723L137.45454545454547,44.95533702475984L137.5818181818182,45.26221418745672L137.70909090909092,46.71457283065584L137.96363636363637,49.466816353811225L138.34545454545454,45.52083202752999L138.6,46.56723414014078L138.72727272727275,50.74227101567297L138.98181818181817,54.916553946295664L139.10909090909092,52.11307727702922L139.23636363636362,49.77970679754188L139.4909090909091,49.53874958303621L139.61818181818182,47.29614663786103L139.87272727272727,47.11497404755818L140,44.80165177930397L140.63636363636365,45.0822787880025L140.89090909090908,53.048730669186L141.01818181818183,53.166207100880186L141.14545454545456,50.148419651402804L141.27272727272725,48.282924346661076L141.4,44.35383533878169L141.52727272727273,45.08465524254794L141.65454545454543,45.460091279378844L141.9090909090909,45.525236272310394L142.03636363636366,51.70361659193294L142.16363636363636,50.410748214020956L142.54545454545453,49.86884021300844L142.67272727272726,47.6462543286662L142.8,41.99490106244298L142.92727272727274,43.76910232930487L143.1818181818182,42.94151382539502L143.94545454545454,51.72025138564119L144.07272727272726,52.72000110729135L144.20000000000002,50.43362350594977L144.45454545454544,45.70101440855143L144.96363636363637,45.46677204803504L145.34545454545454,46.57656535950281L145.72727272727275,46.11175606029511L146.10909090909092,44.46030113651L146.23636363636362,43.11435676763821L146.61818181818182,46.409644701618504L146.74545454545452,46.142854393824905L146.87272727272727,47.37776480123969L147.12727272727275,50.174656095321225L147.25454545454545,49.063955953141175L147.38181818181818,48.080844295817144L147.63636363636363,47.608207890162305L147.76363636363635,47.038891436645315L147.8909090909091,50.86385246091963L148.01818181818183,49.35766600896699L148.14545454545453,55.01959241987774L148.4,52.48933883427307L148.5272727272727,51.971107354546675L148.78181818181818,48.79168032833857L149.03636363636363,47.828952195166494L149.16363636363636,45.26631973337635L149.41818181818184,45.96561223575554L149.6727272727273,47.95238007491281L149.8,47.21152881884569L149.9272727272727,48.185212662623144L150.05454545454546,55.1920357660198L150.43636363636364,51.67496795910698L150.56363636363636,46.72704177663496L150.6909090909091,47.58927954610016L150.81818181818184,47.28101577495127L151.07272727272726,46.660684726173486L151.20000000000002,53.255800990455924L152.2181818181818,49.00085759109419L152.60000000000002,44.99711961280636L152.72727272727272,47.30533506114085L152.9818181818182,48.25843323037128L153.23636363636362,50.724500173013936L153.36363636363637,49.39418647562897L153.74545454545455,48.40685368918818L153.87272727272727,47.386974793552184L154.12727272727273,47.00112124143229L154.25454545454545,52.7903832578876L154.38181818181818,51.0171752443444L154.5090909090909,49.77216146846169L154.8909090909091,47.46102415380426L155.9090909090909,46.54664376835015L156.03636363636363,47.50264579927915L156.16363636363636,53.90077779273334L156.4181818181818,50.97761329595696L156.6727272727273,46.15382873710121L156.8,46.44135034770176L156.9272727272727,46.36344525792083L157.1818181818182,46.26010466779181L157.43636363636364,46.6357339148164L157.56363636363636,46.670994667404585L157.69090909090912,48.916924265846916L158.0727272727273,42.79519675352785L158.2,44.193808757156006L158.3272727272727,43.749427170742024L158.96363636363637,44.288566578684794L159.21818181818182,52.78842275152664L159.34545454545454,53.17417449567027L159.6,50.19415710565522L159.72727272727272,45.69923350386611L159.9818181818182,46.016053781130495L160.74545454545455,48.559600363937534L160.87272727272727,49.320592895336716L161.12727272727273,43.09963593087767L161.3818181818182,42.428081823058506L161.89090909090908,46.178968702627515L162.0181818181818,46.21472002287379L162.14545454545456,47.92720643250314L162.27272727272728,54.510107189552286L162.39999999999998,54.52533507192675L162.65454545454546,51.25930702376908L162.9090909090909,49.50560954731921L163.03636363636363,48.088805705170415L163.16363636363639,51.24692465221155L163.29090909090908,48.982822326588604L163.4181818181818,53.22443058411898L163.54545454545456,50.86915229966796L163.6727272727273,49.12300508635488L164.18181818181816,42.8100020493105L164.43636363636364,42.13207859372761L164.56363636363636,41.56374954978571L165.3272727272727,50.32002482295002L165.58181818181816,48.22979862054888L165.83636363636364,44.35291686500625L165.96363636363637,44.87592399082433L166.0909090909091,45.29180444998113L166.34545454545454,44.889716455583255L166.85454545454547,47.00917120205759L167.23636363636365,41.73584631448517L167.49090909090907,41.50322567171449L167.87272727272725,39.89756490437142L168.25454545454548,43.27938545515727L168.38181818181818,51.14784660581917L168.63636363636365,49.024803530674546L168.76363636363638,47.608916712160294L168.89090909090908,44.30031233461929L169.01818181818183,44.47219871377655L169.14545454545456,44.2015476030939L169.27272727272725,48.18136356218926L169.4,46.59168477133568L169.65454545454546,46.24950126086165L169.78181818181818,46.17044957118651L169.9090909090909,48.09576098486059L170.29090909090908,42.183169419119025L170.4181818181818,43.749037913844916L170.67272727272726,42.259155098743065L171.6909090909091,43.37795262692276L171.8181818181818,43.92716256528388L171.94545454545457,41.38175745294427L172.07272727272726,42.606574408761674L172.2,43.151193464781585L172.45454545454547,43.949456712053205L172.58181818181816,50.12878579578107L172.70909090909092,48.608476151929324L172.83636363636364,47.69467770234925L173.0909090909091,47.90395684834937L173.21818181818182,45.74218139743954L173.34545454545457,40.39450723185195L173.6,40.54281179081016L173.72727272727275,40.32461689584727L173.98181818181817,39.261025030724596L175.25454545454545,41.1753069136596L175.63636363636365,48.472035157217874L175.76363636363635,47.26274171866493L175.89090909090908,46.44896300563636L176.01818181818183,47.486607022298244L176.27272727272725,45.338745961370364L176.4,40.08923574293769L176.52727272727273,41.95812998904765L176.78181818181818,41.353276403185305L177.16363636363636,44.38178739037309L177.29090909090908,43.68757603599167L177.41818181818184,45.10140660154218L177.54545454545453,52.00885893118455L177.67272727272726,51.97903247602032L177.8,49.37806671489352L177.92727272727274,47.2358559445467L178.05454545454543,43.11928692099829L178.3090909090909,43.14599516229802L178.56363636363636,43.76186911442423L178.6909090909091,49.94399518206123L178.94545454545454,48.46519419647265L179.20000000000002,48.290479287270585L179.45454545454544,41.74272107386605L179.5818181818182,43.00020603285279L179.70909090909092,42.1031677828087L179.83636363636361,41.688301998725734L179.96363636363637,43.30489442250203L180.0909090909091,41.14335873588206L180.6,50.0634384586091L181.23636363636362,48.115831591705984L181.36363636363635,46.32677791759241L181.61818181818182,45.45200422281221L181.74545454545452,50.71797460621926L181.87272727272727,48.676902979812695L182.25454545454545,48.504904733582975L182.38181818181818,46.24094533981685L182.50909090909093,40.5396057912869L182.76363636363635,40.77580537818122L183.01818181818183,42.607912596054916L183.14545454545453,40.51119468731599L183.5272727272727,43.099952261747035L183.78181818181818,46.59402004437618L184.03636363636363,45.84326127395127L184.16363636363636,42.81263737433392L184.41818181818184,42.88492167325762L184.54545454545453,47.26496754974204L184.9272727272727,46.87696753837355L185.05454545454546,46.43937472856834L185.1818181818182,47.54357816952182L185.43636363636364,45.32116910325121L185.56363636363636,39.84810192886965L185.6909090909091,41.737176129245654L185.94545454545454,41.27343586137414L186.07272727272726,43.02565821385153L186.20000000000002,40.99694367112539L186.3272727272727,43.91240762931656L186.45454545454544,43.62992318754203L186.5818181818182,45.22032654671929L186.83636363636361,47.740310274622516L187.2181818181818,43.74446130848355L187.34545454545454,43.94905741627687L187.60000000000002,47.66996004569117L188.10909090909092,46.992732391716885L188.23636363636362,47.77481288723408L188.4909090909091,45.561013889927665L188.6181818181818,40.19695592570355L189,40.17789075110639L189.25454545454545,39.17943999695623L189.5090909090909,40.180617621165084L189.76363636363635,49.20521352924206L189.8909090909091,50.08932093523322L190.0181818181818,47.773064336541665L190.14545454545456,46.1641733589496L190.4,45.44216573980714L190.78181818181818,45.23954886751821L190.9090909090909,50.168184234950715L191.16363636363636,48.09837768602324L191.2909090909091,48.09505772775273L191.4181818181818,47.79314124911724L191.6727272727273,41.353052312475285L192.1818181818182,42.84557959804536L192.43636363636364,44.56282892393287L192.56363636363636,43.43161559984867L192.8181818181818,50.76897375027896L192.94545454545454,50.89889579829638L193.0727272727273,48.1059457518771L193.3272727272727,43.79872593792601L193.45454545454547,44.14060627364873L193.96363636363637,49.37804634808481L194.0909090909091,47.24213233960151L194.21818181818182,46.094905667466065L194.34545454545454,47.07696473504109L194.47272727272727,47.24646019228757L194.72727272727272,41.18629457309734L194.9818181818182,40.72038254483388L195.1090909090909,40.20040961112886L195.23636363636365,41.92275812629643L195.36363636363637,39.92836494144615L195.4909090909091,42.504026196146555L195.61818181818182,42.21052385672604L196,45.55758243384767L196.3818181818182,42.16650521398182L196.63636363636363,42.35760425656849L196.89090909090908,43.18209015154184L197.0181818181818,48.77713406251601L197.14545454545456,47.16844612784499L197.27272727272728,45.80591634766648L197.39999999999998,46.7103910589328L197.9090909090909,45.41465519116801L198.4181818181818,41.96900442118607L198.6727272727273,42.001903390682145L198.79999999999998,43.643017509512504L198.92727272727274,50.6944171736596L199.18181818181816,47.7002631797007L199.3090909090909,45.87361629502192L199.43636363636364,42.28646465033748L199.8181818181818,46.5072800131251L200.2,45.790252743676035L200.3272727272727,45.193461383671206L200.45454545454547,46.73588322391279L200.7090909090909,44.52566306520151L200.83636363636364,39.22792714293172L200.96363636363637,40.824072885518234L201.21818181818182,40.04412723281462L201.34545454545454,41.67516068528096L201.6,43.71384065097567L201.72727272727272,42.62648797046376L201.85454545454547,43.582711831073084L201.98181818181817,49.938893355496475L202.1090909090909,49.885813839503015L202.23636363636365,47.1197997244893L202.49090909090907,42.79681227987291L202.61818181818182,43.102634667395506L203,43.50832840688818L203.63636363636365,44.99724538855432L204.14545454545456,42.57592440792615L205.16363636363639,45.764245534287596L205.29090909090908,44.735061391256835L205.4181818181818,44.20237390695317L205.54545454545456,41.20890398756012L205.67272727272726,42.32435825266012L206.05454545454546,43.13037539762436L206.1818181818182,48.661606284523L206.43636363636364,46.85193673144602L206.56363636363636,47.80853059133565L206.8181818181818,45.46933802726457L206.94545454545457,40.07422626689808L207.07272727272726,41.4755337126868L207.2,40.56900138619804L207.45454545454547,42.10473087516476L207.70909090909092,44.19829698581998L207.83636363636364,43.59748190423281L207.96363636363634,44.84352954711957L208.21818181818182,47.32621405631352L208.34545454545457,45.77576931347119L208.47272727272727,44.747461800318575L208.72727272727275,44.07033035375625L208.98181818181817,47.081115198892576L209.74545454545455,47.321520317705335L210,40.85964648724854L210.5090909090909,42.07610755010833L210.63636363636365,40.14695708821489L210.76363636363635,42.62711816786259L211.27272727272725,45.85688343012538L211.9090909090909,44.43928415450526L212.03636363636366,47.59467274254226L212.54545454545453,46.292880451333644L212.92727272727274,44.6331505099304L213.05454545454543,39.39965014302214L213.43636363636364,38.822789453960695L213.8181818181818,42.22784354570069L213.94545454545454,42.428751581965884L214.07272727272726,43.96813915288715L214.45454545454544,43.89104855021506L214.5818181818182,43.53229245465852L214.96363636363637,43.008888939369996L215.0909090909091,46.841081255828385L215.21818181818182,45.74043179293682L215.34545454545454,50.942142543002845L215.47272727272727,48.22058256240612L216.36363636363635,44.6963320675174L216.4909090909091,42.3181383324183L216.61818181818182,43.128734506464525L216.74545454545452,40.589226656082616L217,41.18725439755252L217.12727272727275,42.85494404561382L217.25454545454545,49.92890171831178L217.38181818181818,50.2231232311935L217.50909090909093,47.96912567752446L217.63636363636363,46.31583041403309L217.76363636363635,42.28863579738669L217.8909090909091,42.87915669885217L218.01818181818183,42.622169551565634L218.4,48.18205217829936L218.65454545454546,46.9649086515619L219.2909090909091,46.187700978873295L219.41818181818184,43.7283174770279L219.54545454545453,41.8474690781357L219.8,39.69792042282248L220.3090909090909,48.71162031302521L220.6909090909091,46.59652689820331L220.94545454545454,45.299091062211886L221.45454545454544,50.416757955004L221.5818181818182,48.35975247905154L221.70909090909092,46.951721068480055L221.83636363636361,47.805677080091755L222.2181818181818,41.32751807209067L222.47272727272727,40.628865666280234L222.60000000000002,39.94893203529395L222.72727272727272,41.57272695729921L222.85454545454544,39.45018888794709L222.9818181818182,42.67330365078914L223.23636363636362,44.215488236421834L223.36363636363637,51.16399598847843L223.74545454545455,48.53236074449862L224.12727272727273,46.04730975585889L224.25454545454545,48.771688354847015L224.38181818181818,47.14341160715762L225.0181818181818,46.976889870206065L225.14545454545456,44.71057591861137L225.27272727272728,39.642024685188915L226.2909090909091,42.105345783542106L226.4181818181818,49.99675365778617L226.54545454545453,50.274960999825296L226.8,47.31878165638042L226.9272727272727,43.1458246266796L227.05454545454546,43.243993858399676L227.1818181818182,42.80446670591448L227.30909090909088,46.50993138851675L227.43636363636364,45.223916034981045L227.56363636363636,50.14380445219868L227.8181818181818,48.247415847949384L228.0727272727273,48.083700744731544L228.2,46.03772939403794L228.3272727272727,40.552484070582466L228.5818181818182,40.27817460344903L228.7090909090909,39.894606226635744L228.96363636363637,38.35705053879349L229.21818181818182,40.43312944326013L229.34545454545454,42.92315097444995L229.6,46.33072389349675L229.72727272727272,45.68270640862997L230.23636363636365,44.0866129843881L230.36363636363637,47.46514611316479L230.4909090909091,46.101004889661795L230.61818181818182,50.3606193196558L230.74545454545455,47.85779509462884L230.87272727272727,46.6336175315476L231,47.11542175489046L231.25454545454545,45.03799424445148L231.3818181818182,39.83154662990066L231.5090909090909,41.46746527388876L231.63636363636363,40.38001578265269L232.14545454545456,42.871120629176374L232.39999999999998,44.367558238295715L232.52727272727273,51.18316197239636L232.65454545454546,50.995671778525065L232.9090909090909,47.93083874993198L233.16363636363639,45.931660265672974L233.4181818181818,48.25241190522567L233.6727272727273,51.80174985670294L233.79999999999998,48.962899133604054L233.92727272727274,47.59756897013048L234.18181818181816,47.60961776826991L234.3090909090909,45.288871167137614L234.43636363636364,39.813074932227266L234.56363636363636,41.30077954005256L234.6909090909091,40.37223479237426L234.8181818181818,39.58597086990366L235.0727272727273,38.08898306238078L235.2,41.18352086534372L235.58181818181816,48.96829341492489L235.7090909090909,49.34796029494882L235.96363636363637,46.7925736838219L236.0909090909091,42.44567641382872L236.4727272727273,46.49026015044345L236.6,45.5786353875572L236.72727272727272,50.135562306225935L236.85454545454547,47.8657940876152L236.98181818181817,46.44442665343027L237.23636363636365,46.68666628133704L237.74545454545455,43.80065836171997L238,43.82975010778014L238.12727272727273,40.89711934206733L238.25454545454548,43.20589678973303L238.63636363636365,50.5772690038214L238.76363636363638,50.403647075260906L239.01818181818183,47.39954270405215L239.14545454545456,43.14268374676547L239.27272727272725,43.060217889105985L239.52727272727273,46.369746209898466L239.65454545454546,45.04466551102874L239.78181818181818,49.462848178437895L239.9090909090909,47.303013493299886L240.16363636363639,47.645416525628605L240.4181818181818,45.320674552911555L240.67272727272726,44.27364765721748L240.79999999999998,42.40283203249635L241.05454545454546,43.40159671164648L241.1818181818182,40.81905545713039L241.3090909090909,43.18695213206078L241.43636363636364,42.68106679259762L241.6909090909091,49.95663628444305L242.07272727272726,47.077153830158466L242.2,43.08598729224124L242.32727272727274,42.95750364756708L242.45454545454547,42.29055679281052L242.58181818181816,46.119509367961484L242.83636363636364,50.37462325730144L242.96363636363634,47.92166844401598L243.0909090909091,46.56180204116876L243.34545454545457,46.909306864738085L243.47272727272727,45.18973578912542L243.6,39.69006711836715L243.72727272727275,41.00009859288639L243.98181818181817,40.394844325853455L244.10909090909092,41.861887105876946L244.23636363636365,39.458568320183446L244.74545454545455,47.814000238103915L245.12727272727273,46.13422842461176L245.25454545454545,42.179674603733844L245.38181818181818,42.64785313606953L245.76363636363635,42.63512436693776L245.89090909090908,47.937948669956256L246.01818181818183,46.13200755258188L246.14545454545456,45.05779478589926L246.27272727272725,45.994973433040826L246.52727272727273,44.04273734809354L246.65454545454543,38.89043996634015L246.78181818181818,40.48580822127582L247.16363636363636,42.102870798410464L247.29090909090908,39.92597668492343L247.54545454545453,40.5919344925658L247.67272727272726,42.39664814657266L247.8,49.75406362341167L248.1818181818182,46.93029373504328L248.43636363636364,44.87886161034419L248.56363636363636,43.26083969347923L248.6909090909091,46.32580510920053L248.8181818181818,44.72901683807564L248.94545454545454,49.07512454085031L249.32727272727274,48.33248507912447L249.70909090909092,41.49234431618473L249.83636363636361,42.03792300331281L250.21818181818182,42.52813377357862L250.34545454545454,39.5974120953683L250.85454545454544,48.25237791781558L251.23636363636362,46.143125535951015L251.36363636363635,42.18501287053749L251.61818181818182,41.99734876527455L251.74545454545452,46.16449627102219L251.87272727272727,45.3130300657472L252.12727272727275,44.75313772495085L252.25454545454545,44.28803493710561L252.38181818181818,45.28285378946731L252.50909090909093,45.408245571132454L253.01818181818183,42.51889628954558L253.14545454545453,40.80866647994847L253.27272727272728,41.96779534903419L253.5272727272727,43.919251861658864L253.65454545454546,43.05723640308372L253.78181818181818,44.042080215346544L254.2909090909091,43.26767800120055L254.41818181818184,40.526820339150305" style="fill: none;" fill="none"></path></g></g></g></g><g opacity="0.2"><g><g><g><path stroke="rgb(255, 112, 67)" stroke-width="2px" d="M26.090909090909093,150.73374145681208L26.21818181818182,130.81565254384822L26.727272727272727,119.4870017225092L26.854545454545452,112.45285775444725L27.10909090909091,110.61984218250622L27.236363636363638,114.11654368313876L27.363636363636363,123.41304588317871L27.49090909090909,129.2793400070884L27.618181818181817,126.60743089155719L27.745454545454546,122.2891391840848L27.872727272727275,129.6909356550737L28,111.11527317220515L28.50909090909091,150.42857001044533L28.636363636363637,129.34546691721135L29.654545454545456,110.89798801595515L29.781818181818185,116.93359249288386L30.036363636363635,85.04307989640671L30.41818181818182,88.60428792780097L30.545454545454543,110.8471968390725L30.8,98.23175261237405L30.92727272727273,105.18084595420144L31.054545454545455,93.88201782920144L31.18181818181818,94.8652408773249L31.436363636363637,90.45383522727273L31.690909090909088,128.63595294952393L31.818181818181817,147.26080552014437L32.2,113.9343474561518L32.32727272727273,89.1940674348311L32.45454545454545,87.51060901988637L32.58181818181818,88.26042027906938L32.70909090909091,87.99919197776101L33.09090909090909,74.47753130305898L33.21818181818182,69.36548519134521L33.472727272727276,81.55280204252763L33.72727272727273,92.85888329419224L33.85454545454545,89.58307422291149L33.981818181818184,92.83994028785013L34.10909090909091,85.40789673545144L34.49090909090909,73.7289160381664L34.61818181818182,108.12972419912165L34.74545454545454,107.5806663686579L34.872727272727275,130.12510087273338L35.127272727272725,91.70513460852884L35.509090909090915,83.63253966244785L36.14545454545455,68.7273257862438L36.27272727272727,63.37542494860564L36.4,78.15646761113948L36.52727272727273,72.7811677239158L36.654545454545456,96.98529507897118L36.78181818181819,90.70418383858421L37.41818181818182,76.6362817070701L38.43636363636364,79.903217272325L38.69090909090909,74.59524028951472L38.81818181818182,64.96374394676904L38.945454545454545,84.98744687167083L39.836363636363636,83.07138685746628L40.21818181818182,79.37672901153564L40.47272727272727,73.3209662437439L40.599999999999994,66.73709483580156L40.72727272727273,104.14964810284702L41.236363636363635,86.48263263702393L41.36363636363637,97.70285307277334L41.49090909090909,78.599506334825L41.87272727272727,62.290214451876565L42,80.9517377506603L42.38181818181818,58.674569390036865L42.89090909090909,81.50322615016591L43.14545454545454,87.89519834518433L43.4,65.78128320520575L43.52727272727273,71.98581223054367L43.654545454545456,63.49919106743555L43.78181818181818,95.2256402535872L43.909090909090914,89.8306064605713L44.03636363636364,113.01682693308051L44.29090909090909,82.0946067463268L44.54545454545455,76.38633819059892L44.92727272727273,55.86760937083852L45.054545454545455,62.040676030245706L45.18181818181819,69.57914378426294L45.43636363636363,55.32258319854738L45.56363636363636,70.17455603859644L45.69090909090909,64.26391367478806L46.07272727272728,82.92624716325241L46.32727272727273,76.53307897394355L46.45454545454546,63.7446978308938L46.709090909090904,61.751226121729076L46.836363636363636,87.2796085097573L47.21818181818182,62.24142945896496L47.72727272727273,72.64129426262598L47.85454545454545,68.79788944937967L47.98181818181818,55.68658984791149L48.10909090909091,57.19186440381138L48.36363636363637,57.5788650079207L48.49090909090909,52.94492725892502L48.74545454545455,61.071149045770824L49,75.33135548504917L49.127272727272725,75.82437519593674L49.25454545454545,86.80474090576172L49.38181818181818,71.53793165900491L49.63636363636364,69.10707326368852L49.763636363636365,61.37068774483423L50.654545454545456,74.9874878363176L51.163636363636364,53.17673795873469L51.67272727272727,65.39227641712536L51.8,57.717137380079805L51.92727272727273,77.1232442855835L52.43636363636364,70.73852521722968L52.56363636363636,60.49548998746006L52.69090909090909,63.91522346843374L52.81818181818181,59.629165736111744L53.2,101.051231991161L53.32727272727273,59.91014723344284L53.709090909090904,72.59331945939499L53.836363636363636,71.66329886696558L54.090909090909086,55.135120738636374L54.21818181818182,51.23245633732189L54.345454545454544,63.575387477874756L54.6,52.805458892475485L54.72727272727273,65.6970427686518L54.85454545454546,56.86090191927825L54.98181818181818,76.0626288327304L55.10909090909091,66.09573325243865L55.236363636363635,66.15175208178435L55.61818181818182,60.96835140748459L55.74545454545455,61.95118865099822L56,73.30040285804056L56.50909090909091,80.12532498619773L56.63636363636363,79.60529895262285L56.89090909090909,71.20737426931208L57.14545454545455,53.97008726813577L57.27272727272727,49.76909945227882L57.90909090909091,53.126737681302174L58.290909090909096,65.80306187543003L58.41818181818182,81.83659991351043L58.54545454545454,69.2747825275768L58.67272727272727,58.12066971171987L58.92727272727272,51.476342721418916L59.43636363636364,57.823966676538646L59.690909090909095,75.3885895989158L59.945454545454545,68.12224912643433L60.07272727272727,62.95617107911545L60.199999999999996,54.76384167237717L60.70909090909091,50.756354158574894L60.83636363636364,62.30352471091531L61.090909090909086,76.95271864804356L61.345454545454544,65.17337088151413L61.6,70.00202421708542L62.236363636363635,69.35661168531938L62.49090909090909,57.01329474015671L62.61818181818182,79.14856416528876L63,67.22851345755838L63.25454545454546,56.49205342206089L63.381818181818176,43.51339344544846L63.50909090909091,61.54402975602585L63.763636363636365,50.268176295540556L63.89090909090909,61.22554805062036L64.01818181818182,50.59672750126232L64.52727272727273,79.4722735231573L64.65454545454546,68.03154646266591L64.9090909090909,64.15870475769043L65.2909090909091,68.62574343247849L65.8,73.67852995612405L65.92727272727272,64.40299623662776L66.05454545454545,64.37558481910013L66.18181818181819,59.26757036555898L66.43636363636364,42.85507574948397L66.81818181818183,50.97122803601353L66.94545454545455,61.08405420996927L67.07272727272726,50.807550430297866L67.45454545454545,64.52151541276413L67.58181818181818,81.12307357788086L67.83636363636364,56.686344623565674L68.6,55.07424077120696L68.85454545454546,70.39627794785935L68.98181818181818,62.423644976182416L69.10909090909091,67.08136757937346L69.23636363636363,59.6162798621438L69.36363636363637,51.80933068015359L69.61818181818181,59.08738032254307L69.74545454545455,53.326295115730986L70.38181818181818,60.01537544077094L70.50909090909092,64.73880056901413L70.76363636363637,67.6413050998341L71.01818181818183,57.6764349937439L71.14545454545454,46.25183456594294L71.27272727272727,65.29391553185205L71.65454545454546,52.73973707719284L71.78181818181818,76.3923760327426L71.9090909090909,70.94774705713446L72.16363636363637,66.52424643256448L72.2909090909091,58.52823370153254L72.54545454545455,41.21918704292992L72.67272727272727,57.7473844614896L72.92727272727272,49.763466704975485L73.18181818181817,48.7379016009244L73.43636363636364,56.63192688335073L73.56363636363638,61.45533327622849L73.69090909090909,78.77807599847968L73.94545454545455,57.999739256772145L74.07272727272726,58.01021385192871L74.45454545454545,63.2210259437561L74.58181818181818,71.2267223704945L74.70909090909092,55.23832347176294L74.83636363636364,72.22042001377453L75.0909090909091,57.11084543574941L75.21818181818182,64.4795977419073L75.34545454545454,57.80824513868852L75.47272727272727,49.9811569560658L76.61818181818181,60.45841416445647L76.74545454545455,75.18702598051591L77,55.10851951078935L77.38181818181818,58.50969579003076L78.27272727272727,61.887897404757425L78.4,56.50212292237717L78.9090909090909,47.64987473054367L79.03636363636365,46.212328173897475L79.16363636363636,56.49971164356579L79.41818181818182,65.59625131433661L79.67272727272727,57.76189071481879L79.92727272727272,62.17291056026113L80.18181818181819,54.46916411139749L81.32727272727273,61.1263769756664L81.45454545454545,55.00288620862095L81.58181818181819,49.46716876463458L81.7090909090909,39.11165220087227L81.96363636363637,47.280601848255515L82.09090909090908,46.45702474767512L82.47272727272727,63.03840533169834L82.85454545454544,73.2532382444902L83.61818181818182,58.10213180021806L83.74545454545454,68.27221137827094L83.87272727272727,53.161016420884565L84,71.13439932736485L84.12727272727274,61.076395988464355L84.38181818181819,58.81565813584763L84.50909090909092,53.77052983370696L84.63636363636363,47.145145849748104L84.89090909090909,53.24566195227884L85.01818181818182,47.06090541319415L85.14545454545454,45.74469440633601L85.39999999999999,46.72106942263517L85.65454545454546,52.7832751274109L85.78181818181818,55.699495012109935L86.29090909090908,51.877849578857436L87.18181818181817,60.80912984501232L87.30909090909091,54.294201720844626L87.56363636363636,54.0869860649109L87.69090909090909,47.734520261937945L87.94545454545454,51.09781052849512L88.2,47.27294362675062L88.58181818181818,59.34820352901113L89.47272727272727,42.562404372475356L89.85454545454546,67.15957017378373L89.98181818181818,49.7791882428256L90.36363636363637,52.17133114554666L90.49090909090908,60.398749481547966L90.61818181818181,53.92292265458542L90.87272727272726,38.91249986128375L91,53.953555540605024L91.12727272727273,47.36567176472059L91.25454545454546,46.01558711312035L91.50909090909092,43.02278501337227L92.14545454545456,58.52138566970825L92.27272727272727,51.82545731284402L93.03636363636363,48.97333886406639L93.2909090909091,56.02279927513818L93.41818181818181,51.05668375708841L93.54545454545455,58.03762526945634L93.67272727272727,53.03321864388208L93.80000000000001,46.445334867997616L93.92727272727272,36.713857260617345L94.05454545454546,50.22785971381448L94.18181818181819,44.598198847337216L94.3090909090909,43.5895705656572L94.43636363636364,51.12360156666149L94.69090909090909,58.901133147153004L95.07272727272728,70.81472162766892L95.2,59.11598773436113L95.32727272727273,51.04701935161245L95.58181818181818,41.79486539147118L95.7090909090909,51.096595243974164L96.0909090909091,47.751051989468664L96.34545454545456,55.71361546082932L96.6,58.86000637574631L96.72727272727273,53.09932626377453L97.10909090909091,51.376766551624655L97.23636363636363,46.10106212442574L97.36363636363636,43.70124170996925L97.61818181818182,41.880726207386374L97.74545454545455,54.940810246901094L97.87272727272727,48.28963522477585L98.12727272727273,68.21495797417383L98.38181818181819,52.387015212665915L98.5090909090909,51.89841296456079L98.8909090909091,51.319127342917724L99.01818181818182,62.689310030503705L99.14545454545454,49.22287728569725L99.27272727272728,65.5813399661671L99.39999999999999,53.533491481434226L99.52727272727273,50.13231520219284L99.65454545454546,55.451982064680635L99.78181818181818,51.190924471074894L100.03636363636365,35.951545932076186L100.16363636363636,49.734840002926916L100.67272727272727,41.42761798338458L100.8,59.69448245655407L100.92727272727274,50.40282210436736L101.18181818181819,70.61678457260132L101.30909090909091,57.294256947257324L101.43636363636362,49.740492040460765L101.56363636363636,48.86811065673831L101.81818181818183,51.189323381944135L102.07272727272728,62.395423368974164L102.32727272727273,66.93059513785623L102.58181818181819,50.95429121364248L102.83636363636363,52.127388000488295L103.0909090909091,35.95839396390048L103.21818181818182,50.01138474724512L103.34545454545454,45.32584563168612L103.72727272727273,42.8292847113176L104.23636363636363,68.33347715031017L104.36363636363637,57.26605463027954L104.61818181818182,48.566585063934355L104.74545454545455,40.4661543152549L105,54.483265269886374L105.50909090909092,52.70547762784092L105.63636363636363,49.435725688934355L105.89090909090909,50.89302544160324L106.14545454545454,35.09206971255216L106.65454545454546,49.11080104654488L107.03636363636363,49.08257943933663L107.16363636363637,53.93783400275491L107.41818181818181,58.378271449695944L107.54545454545455,51.65211530165239L107.67272727272727,49.24222538687965L107.8,41.80130832845515L107.92727272727272,55.67449487339367L108.05454545454546,54.083764596418916L108.18181818181817,61.77622626044534L108.30909090909091,47.72645694559273L108.43636363636364,64.93108558654785L108.94545454545455,52.047584316947265L109.07272727272726,46.09784065593374L109.32727272727273,48.59197100726041L109.58181818181818,42.270543185147375L109.96363636363635,55.07827242937957L110.21818181818182,52.73530032417993L110.34545454545454,68.32057198611174L110.47272727272727,57.11044034090911L110.85454545454546,41.76905506307429L110.98181818181818,51.735159743915915L111.1090909090909,51.39532375335695L111.23636363636363,61.1896682219072L111.36363636363636,49.70218164270577L111.61818181818181,51.148196610537454L111.74545454545455,48.58674335479739L111.87272727272727,53.92735940759833L112.12727272727273,44.241831129247515L112.25454545454545,34.6143664446744L112.38181818181818,49.2140037796714L112.5090909090909,44.553850607438534L112.63636363636364,43.34608927640048L112.76363636363637,50.0299226587469L113.01818181818182,53.887447920712575L113.14545454545456,48.554084994576186L113.52727272727273,56.19776166569103L114.03636363636365,50.18472675843674L114.41818181818182,48.516584786501795L114.54545454545455,64.5319900079207L114.67272727272727,50.44958162307741L114.8,49.442978815598934L114.92727272727272,55.98250198364258L115.05454545454545,53.04652890292083L115.18181818181819,46.5682715069164L115.30909090909091,35.3968360640786L115.56363636363636,44.131375269456356L115.6909090909091,42.80347438292071L115.81818181818181,49.34743430397728L116.32727272727273,53.970897457816406L116.83636363636364,49.57802971926603L116.96363636363637,41.66585232994774L117.21818181818182,48.874572883952766L117.34545454545454,60.371723868630156L117.47272727272727,47.13386106491092L117.6,63.62012152238327L117.72727272727273,51.40620344335383L117.85454545454544,50.1085303479975L118.23636363636365,46.702126416293055L118.36363636363636,36.75739531083542L118.49090909090908,49.19425058364871L119.12727272727274,51.769824288108154L119.38181818181819,50.65236052599822L119.50909090909092,67.13619041442871L119.63636363636363,55.604760690168916L119.76363636363637,48.946332541379064L120.01818181818182,41.16920605572787L120.39999999999999,59.51952006600122L120.52727272727273,48.945927446538775L120.9090909090909,48.11829939755526L121.03636363636363,53.53067510778254L121.16363636363637,51.16713961687957L121.41818181818182,34.4116068319841L121.67272727272729,43.17959529703316L122.05454545454546,39.602665727788775L122.18181818181817,52.14069825952704L122.43636363636364,50.72853764620696L122.81818181818183,47.16611433029178L122.94545454545454,47.22336773438889L123.07272727272728,39.782450675964384L123.32727272727271,46.91134825619784L123.45454545454545,59.08657013286245L123.58181818181818,46.71460719542071L123.70909090909092,62.57925926555288L123.83636363636363,48.903180295770824L123.96363636363637,48.27148311788386L124.0909090909091,53.33192786303435L124.21818181818182,50.879310087724164L124.60000000000001,46.972614028237075L124.72727272727272,42.81234788894656L125.23636363636363,51.74322306026113L125.36363636363637,45.18516198071566L125.61818181818181,64.547325741161L125.87272727272726,46.89481652866712L126.12727272727273,39.36319680647418L126.25454545454546,47.03912674296987L126.38181818181818,45.777352766557186L126.50909090909092,58.300068855285645L126.63636363636364,47.36727285385135L126.76363636363635,61.73430858958852L127.01818181818182,47.8570710962469L127.27272727272727,50.135941765525146L127.52727272727273,34.16650516336617L127.90909090909092,42.88732901486483L128.03636363636363,48.55892684242943L128.16363636363636,39.27249414270577L128.29090909090908,51.3485449444164L128.4181818181818,45.41292173212227L128.67272727272726,65.98244172876532L128.92727272727274,48.044533556157916L129.1818181818182,39.969508041035056L129.3090909090909,48.2057805928317L129.56363636363636,58.92451290650803L129.94545454545454,48.727021910927505L130.20000000000002,52.70628781752153L130.3272727272727,49.46070653742012L130.45454545454544,44.947718533602625L130.83636363636364,42.48823343623769L131.21818181818182,39.28136764873159L131.34545454545454,51.25180443850432L131.6,50.47014500878076L131.85454545454544,54.48004380139439L132.1090909090909,46.43767664649269L132.23636363636365,38.53115129470828L132.74545454545455,46.52072108875623L133,49.42563689838758L133.12727272727273,47.724045666781336L133.25454545454545,51.746444528753116L133.38181818181818,48.77378142963758L133.63636363636365,33.15262993899259L133.76363636363635,46.94801898436114L133.8909090909091,42.859917597337216L134.01818181818183,42.04922637072477L134.52727272727273,46.85691122575241L134.78181818181818,64.56545855782251L134.9090909090909,53.72942235253076L135.03636363636363,46.61342993649569L135.16363636363636,46.08815696022728L135.29090909090908,38.81494916569105L135.79999999999998,45.778953855687945L136.05454545454546,48.48836317929354L136.1818181818182,48.38234407251534L136.56363636363636,45.05533872951162L136.6909090909091,34.57729062167081L136.8181818181818,47.485386935147375L136.94545454545454,42.35480291193184L137.07272727272726,41.67754220962527L137.32727272727274,38.172777392647475L137.45454545454547,51.080468611283735L137.5818181818182,45.722529931501924L137.70909090909092,48.89311079545456L137.96363636363637,53.59518163854426L138.34545454545454,39.60185553810814L138.6,48.136837309057086L138.72727272727275,57.00482632897119L138.98181818181817,61.17797834222968L139.10909090909092,47.90786227312955L139.23636363636362,46.27965107831088L139.4909090909091,49.177313761277645L139.61818181818182,43.932242220098345L139.87272727272727,46.84321516210383L140,41.331668376922636L140.63636363636365,45.503219301050365L140.89090909090908,64.99840849096125L141.01818181818183,53.342421748421415L141.14545454545456,45.62173847718674L141.27272727272725,45.48468138954857L141.4,38.46020182696256L141.52727272727273,46.18088509819725L141.65454545454543,46.02324533462527L141.9090909090909,45.62295376170766L142.03636363636366,60.97118707136674L142.16363636363636,48.47144564715299L142.54545454545453,49.05597821148959L142.67272727272726,44.31237550215289L142.8,33.51787116310814L142.92727272727274,46.43040422959763L143.1818181818182,41.70013106953016L143.94545454545454,64.88835772601043L144.07272727272726,54.21962568976663L144.20000000000002,47.00405710393733L144.45454545454544,38.602100762453944L144.96363636363637,45.11540850726041L145.34545454545454,48.24125532670456L145.72727272727275,45.414542111483485L146.10909090909092,41.98311875083229L146.23636363636362,41.09544021433052L146.61818181818182,51.35257660258901L146.74545454545452,45.74266893213448L146.87272727272727,49.23013041236183L147.12727272727275,54.369993036443546L147.25454545454545,47.397905739870936L147.38181818181818,46.60617680983111L147.63636363636363,46.89925328168002L147.76363636363635,46.18491675636986L147.8909090909091,56.6012939973311L148.01818181818183,47.09838633103806L148.14545454545453,63.512482036243796L148.4,48.69395845586604L148.5272727272727,51.19376013495706L148.78181818181818,44.02253978902644L149.03636363636363,46.384859995408505L149.16363636363636,41.42237104069105L149.41818181818184,47.01455098932442L149.6727272727273,50.932531833648696L149.8,46.1002519347451L149.9272727272727,49.64573842828926L150.05454545454546,65.70227042111485L150.43636363636364,46.39936624873769L150.56363636363636,39.305152502926916L150.6909090909091,48.88263620029798L150.81818181818184,46.81862011822787L151.07272727272726,45.73018815300682L151.20000000000002,63.14847538687967L152.2181818181818,42.61844249205157L152.60000000000002,38.991512645374655L152.72727272727272,50.76765823364259L152.9818181818182,49.68808048421687L153.23636363636362,54.423600586977884L153.36363636363637,47.39871592955157L153.74545454545455,46.925854509527056L153.87272727272727,45.857156450098216L154.12727272727273,46.42234091325241L154.25454545454545,61.474276282570585L154.38181818181818,48.35736322402957L154.5090909090909,47.90464080463758L154.8909090909091,43.99431818181819L155.9090909090909,45.175073190168916L156.03636363636363,48.936648845672636L156.16363636363636,63.497975782914594L156.4181818181818,46.592866550792365L156.6727272727273,38.9181518988176L156.8,46.872632763602525L156.9272727272727,46.24658762324941L157.1818181818182,46.105093782598345L157.43636363636364,47.19917778535324L157.56363636363636,46.72388579628685L157.69090909090912,52.285818663510426L158.0727272727273,33.61260548504916L158.2,46.291726762598216L158.3272727272727,43.082854791121065L158.96363636363637,45.097275690598934L159.21818181818182,65.53820701078935L159.34545454545454,53.75280211188577L159.6,45.724131020632655L159.72727272727272,38.95684810118243L159.9818181818182,46.491284197027056L160.74545454545455,52.37492023814809L160.87272727272727,50.46208169243555L161.12727272727273,33.76820048418912L161.3818181818182,41.420750661329805L161.89090909090908,51.805299021980986L162.0181818181818,46.26834700324318L162.14545454545456,50.495936046947136L162.27272727272728,64.38445832512598L162.39999999999998,54.548176895488396L162.65454545454546,46.36026495153254L162.9090909090909,46.87506333264437L163.03636363636363,45.96359994194725L163.16363636363639,55.98410307277334L163.29090909090908,45.586668838154196L163.4181818181818,59.586842970414594L163.54545454545456,47.33623487299141L163.6727272727273,46.50378426638517L164.18181818181816,33.340497493743925L164.43636363636364,41.11519341035324L164.56363636363636,40.71125598387286L165.3272727272727,63.45443773269653L165.58181818181816,45.09445931694725L165.83636363636364,38.537594231692225L165.96363636363637,45.66043467955157L166.0909090909091,45.91562513871628L166.34545454545454,44.286584463986486L166.85454545454547,50.18835332176904L167.23636363636365,33.82585898312655L167.49090909090907,41.154294707558364L167.87272727272725,37.48907375335696L168.25454545454548,48.35211628133601L168.38181818181818,62.95053833181208L168.63636363636365,45.84023891795766L168.76363636363638,45.48508648438889L168.89090909090908,39.337405768307775L169.01818181818183,44.730028282512336L169.14545454545456,43.79557093706998L169.27272727272725,54.151087500832304L169.4,44.20716658505526L169.65454545454546,45.73622599515048L169.78181818181818,46.051872036673814L169.9090909090909,50.983728105371654L170.29090909090908,33.31428207050672L170.4181818181818,46.09784065593374L170.67272727272726,40.02433087609032L171.6909090909091,45.056148919192225L171.8181818181818,44.7509774728255L171.94545454545457,37.56364978443494L172.07272727272726,44.44379984248769L172.2,43.968122048811495L172.45454545454547,45.146851582960664L172.58181818181816,59.397779421372846L172.70909090909092,46.32801168615168L172.83636363636364,46.323980027979076L173.0909090909091,48.21787556734952L173.21818181818182,42.49951822107491L173.34545454545457,32.37299598347059L173.6,40.765268629247515L173.72727272727275,39.99732455340299L173.98181818181817,37.66563723304054L175.25454545454545,44.04672973806208L175.63636363636365,59.417127522555276L175.76363636363635,45.44880156083542L175.89090909090908,45.22829493609342L176.01818181818183,49.04307304729116L176.27272727272725,42.11695436997849L176.4,32.214970415288775L176.52727272727273,44.76147135821256L176.78181818181818,40.44599602439186L177.16363636363636,48.924553871154814L177.29090909090908,42.646259004419505L177.41818181818184,47.222152449867934L177.54545454545453,62.37003742564809L177.67272727272726,51.93429279327394L177.8,45.476618073203355L177.92727272727274,44.02253978902644L178.05454545454543,36.94443338567561L178.3090909090909,43.186057524247616L178.56363636363636,44.685680042613654L178.6909090909091,59.21718428351663L178.94545454545454,46.24699271808973L179.20000000000002,48.028406923467486L179.45454545454544,31.921083753759234L179.5818181818182,44.88643347133291L179.70909090909092,40.75761040774259L179.83636363636361,41.06600332260135L179.96363636363637,45.72978305816653L180.0909090909091,37.90105520595205L180.6,63.44355804269965L181.23636363636362,45.19442129135135L181.36363636363635,43.64319740642202L181.61818181818182,44.13984368064186L181.74545454545452,58.616930181329906L181.87272727272727,45.615295540202766L182.25454545454545,48.24690736423841L182.38181818181818,42.84500624916771L182.50909090909093,31.987596468492L182.76363636363635,41.13010475852272L183.01818181818183,45.35607342286545L183.14545454545453,37.36611782420766L183.5272727272727,46.983088623393684L183.78181818181818,51.835121718319996L184.03636363636363,44.71712311831388L184.16363636363636,38.266701524907916L184.41818181818184,42.993348121643095L184.54545454545453,53.83503636446868L184.9272727272727,46.2949675213207L185.05454545454546,45.78298551386055L185.1818181818182,49.19988333095205L185.43636363636364,41.98755550384524L185.56363636363636,31.63850116729739L185.6909090909091,44.5707874298096L185.94545454545454,40.57782545956698L186.07272727272726,45.6539917425676L186.20000000000002,37.95387185703626L186.3272727272727,48.28560356660324L186.45454545454544,43.20619652488014L186.5818181818182,47.60593158548531L186.83636363636361,51.520285866477295L187.2181818181818,37.75068785927513L187.34545454545454,44.25595157796687L187.60000000000002,53.25131398981269L188.10909090909092,45.976890910755515L188.23636363636362,48.94793363050982L188.4909090909091,42.240315393968075L188.6181818181818,32.150868979367345L189,40.149292989210664L189.25454545454545,37.68176386573097L189.5090909090909,41.68238405747849L189.76363636363635,62.74210739135742L189.8909090909091,51.415482044219985L190.0181818181818,44.29867943850431L190.14545454545456,43.750836892561495L190.4,44.35915431109342L190.78181818181818,44.9356235590848L190.9090909090909,57.56113728609954L191.16363636363636,44.993667862632066L191.2909090909091,48.09007779034701L191.4181818181818,47.34026653116402L191.6727272727273,31.692918907512336L192.1818181818182,45.08437052640048L192.43636363636364,47.13870291276413L192.56363636363636,41.73479561372238L192.8181818181818,61.77501097592442L192.94545454545454,51.09377887032251L193.0727272727273,43.916520682248205L193.3272727272727,37.33789621699941L193.45454545454547,44.653426777232795L193.96363636363637,57.23420645973901L194.0909090909091,44.03826132687655L194.21818181818182,44.374065659262925L194.34545454545454,48.55005333640358L194.47272727272727,47.5007033781572L194.72727272727272,32.09604614431208L194.9818181818182,40.021514502438635L195.1090909090909,39.42045021057132L195.23636363636365,44.50628089904788L195.36363636363637,36.93677516417071L195.4909090909091,46.36751807819715L195.61818181818182,41.77027034759524L196,50.57817029953004L196.3818181818182,37.07988938418302L196.63636363636363,42.64425282044846L196.89090909090908,44.418818994001924L197.0181818181818,57.169699928977295L197.14545454545456,44.75541422583839L197.27272727272728,43.76212167739871L197.39999999999998,48.06710312583229L197.9090909090909,43.471051389520824L198.4181818181818,36.80052826621315L198.6727272727273,42.05125184492633L198.79999999999998,46.10468868775803L198.92727272727274,61.27151666988027L199.18181818181816,43.209032188762336L199.3090909090909,43.13364596800372L199.43636363636364,36.90573718331078L199.8181818181818,52.83850305730647L200.2,44.71471183950251L200.3272727272727,44.29827434366402L200.45454545454547,49.04951598427513L200.7090909090909,41.21033282713458L200.83636363636364,31.281323259527056L200.96363636363637,43.218291499397964L201.21818181818182,38.874208753759234L201.34545454545454,44.12171086398038L201.6,46.77186059951785L201.72727272727272,40.995458949695944L201.85454545454547,45.017047621987075L201.98181818181817,59.47316564213146L202.1090909090909,49.806194565512925L202.23636363636365,42.970778551968664L202.49090909090907,36.31233111294833L202.61818181818182,43.56136824867943L203,44.11686901612717L203.63636363636365,47.230620861053495L204.14545454545456,38.94394293698397L205.16363636363639,50.546727223829805L205.29090909090908,43.191285176710664L205.4181818181818,43.403342680497616L205.54545454545456,36.71869910847059L205.67272727272726,43.99753965031019L206.05454545454546,44.3394011150707L206.1818181818182,56.95845261487095L206.43636363636364,44.13743240183052L206.56363636363636,49.24342138117012L206.8181818181818,41.960549181157916L206.94545454545457,31.981558626348345L207.07272727272726,43.57749488136986L207.2,39.20920289646497L207.45454545454547,44.40832510861483L207.70909090909092,47.33864615180275L207.83636363636364,42.696259281852036L207.96363636363634,46.712601011449664L208.21818181818182,51.050240820104435L208.34545454545457,43.45010219920766L208.47272727272727,43.20500053058973L208.72727272727275,43.05463318391281L208.98181818181817,51.59729246659714L209.74545454545455,47.68212799592453L210,31.16683574156329L210.5090909090909,43.90079914439809L210.63636363636365,37.253231395374655L210.76363636363635,46.34735978733411L211.27272727272725,50.70153132351963L211.9090909090909,42.31288524107501L212.03636363636366,52.32775562459773L212.54545454545453,44.340192014520824L212.92727272727274,42.1435555978255L213.05454545454543,31.54939959265971L213.43636363636364,37.95749842036855L213.8181818181818,47.33542468331078L213.94545454545454,42.730113636363654L214.07272727272726,46.27722050926903L214.45454545454544,43.775412646206945L214.5818181818182,42.9941583113237L214.96363636363637,42.22378366643733L215.0909090909091,52.58936973051591L215.21818181818182,44.08945759859952L215.34545454545454,58.74470866810192L215.47272727272727,44.13824259151113L216.36363636363635,39.409956325184226L216.4909090909091,38.75084772976962L216.61818181818182,44.34462876753375L216.74545454545452,36.77996488050982L217,42.08429600975731L217.12727272727275,45.35647851770577L217.25454545454545,60.53983822735874L217.38181818181818,50.66445550051604L217.50909090909093,44.58812934702095L217.63636363636363,43.835887518796056L217.76363636363635,36.24784387241712L217.8909090909091,43.764938051050365L218.01818181818183,42.23668883063576L218.4,56.5218761183999L218.65454545454546,45.13919336145577L219.2909090909091,45.02188946984032L219.41818181818184,40.03924222425982L219.54545454545453,39.02619647979739L219.8,36.473597439852625L220.3090909090909,62.23217014832932L220.6909090909091,43.42388677597049L220.94545454545454,43.35293730822477L221.45454545454544,58.09325829419224L221.5818181818182,45.27424426512286L221.70909090909092,44.83967395262286L221.83636363636361,49.086611097509234L222.2181818181818,31.61027956008914L222.47272727272727,39.58088705756447L222.60000000000002,38.92903158881447L222.72727272727272,44.008419340307086L222.85454545454544,36.266381783918916L222.9818181818182,47.50797579505226L223.23636363636362,46.528765114870936L223.36363636363637,61.586757616563276L223.74545454545455,44.58490787852895L224.12727272727273,42.3197332728993L224.25454545454545,52.8582562533292L224.38181818181818,44.70099648562345L225.0181818181818,46.72710726477882L225.14545454545456,41.31110499121925L225.27272727272728,32.03919783505526L226.2909090909091,45.800327431071906L226.4181818181818,61.833865469152286L226.54545454545453,50.692272012883976L226.8,42.88451264121315L226.9272727272727,36.886389082128375L227.05454545454546,43.391247705979794L227.1818181818182,42.14517597718674L227.30909090909088,52.06812841242011L227.43636363636364,43.294893004677505L227.56363636363636,57.523637078025146L227.8181818181818,45.4028329415755L228.0727272727273,47.838128089904814L228.2,42.968772367997616L228.3272727272727,32.3246160853993L228.5818181818182,39.866710402748794L228.7090909090909,39.319253661415786L228.96363636363637,36.05071700703016L229.21818181818182,43.54724779996005L229.34545454545454,46.65818327123469L229.6,51.442083272066995L229.72727272727272,44.710680181329906L230.23636363636365,41.69247284802523L230.36363636363637,52.532945806329906L230.4909090909091,44.0547930544073L230.61818181818182,56.75004096464677L230.74545454545455,44.10355875708839L230.87272727272727,44.79735118692574L231,47.838128089904814L231.25454545454545,41.921852978793055L231.3818181818182,32.02187520807442L231.5090909090909,43.921343239870936L231.63636363636363,38.74884154579857L232.14545454545456,46.60777789896187L232.39999999999998,46.61221465197477L232.52727272727273,61.40656757354736L232.65454545454546,50.71443648771806L232.9090909090909,43.333589207042365L233.16363636363639,42.93289253928444L233.4181818181818,51.73353936455469L233.6727272727273,57.125756783918916L233.79999999999998,44.70462304895577L233.92727272727274,45.54957372492012L234.18181818181816,47.627690965479076L234.3090909090909,41.80775126543912L234.43636363636364,31.59938057986173L234.56363636363636,43.53233645179054L234.6909090909091,38.97941767085683L234.8181818181818,38.40657498619774L235.0727272727273,35.84350135109642L235.2,45.82532756978816L235.58181818181816,60.64545223929666L235.7090909090909,49.91746061498469L235.96363636363637,42.95949376713148L236.0909090909091,35.92533050883901L236.4727272727273,52.55713575536555L236.6,44.21119824322787L236.72727272727272,56.970952684229076L236.85454545454547,44.461141759699046L236.98181818181817,44.31237550215289L237.23636363636365,47.05002572319725L237.74545454545455,39.47164648229426L238,43.87338772687045L238.12727272727273,36.498173193498104L238.25454545454548,46.66906296123159L238.63636363636365,61.63432732495396L238.76363636363638,50.14321418242021L239.01818181818183,42.893386147239L239.14545454545456,36.75739531083542L239.27272727272725,42.93651910261676L239.52727272727273,51.3340386910872L239.65454545454546,43.05704446272418L239.78181818181818,56.09012217955156L239.9090909090909,44.06326146559283L240.16363636363639,48.159021074121654L240.4181818181818,41.83356159383601L240.67272727272726,42.70310731367633L240.79999999999998,39.59660859541461L241.05454545454546,44.899743730371654L241.1818181818182,36.945243575356216L241.3090909090909,46.738797144456356L241.43636363636364,41.92223878340289L241.6909090909091,60.86999052221125L242.07272727272726,42.75793014873159L242.2,37.09923748536545L242.32727272727274,42.76477818055588L242.45454545454547,41.29013651067561L242.58181818181816,51.86293823068793L242.83636363636364,56.75729409131138L242.96363636363634,44.242236224087804L243.0909090909091,44.522002436897964L243.34545454545457,47.43056410009211L243.47272727272727,42.610379175706356L243.6,31.440564112229794L243.72727272727275,42.9651458046653L243.98181818181817,39.486962925304084L244.10909090909092,44.062451275912196L244.23636363636365,35.853590141643195L244.74545454545455,60.34714811498469L245.12727272727273,43.61457070437345L245.25454545454545,36.24784387241712L245.38181818181818,43.350120934573084L245.76363636363635,42.616031213240205L245.89090909090908,55.89218512448399L246.01818181818183,43.423095876520335L246.14545454545456,43.44647563587537L246.27272727272725,47.40074140375313L246.52727272727273,41.114383220672636L246.65454545454543,31.161993893710047L246.78181818181818,42.87886060367933L247.16363636363636,44.52846466411245L247.29090909090908,36.66063551469284L247.54545454545453,41.59087120402944L247.67272727272726,45.10371862758291L247.8,60.79018683867021L248.1818181818182,42.694638902490794L248.43636363636364,41.80171342329547L248.56363636363636,40.83380681818184L248.6909090909091,50.92325323278254L248.8181818181818,42.33383443138817L248.94545454545454,55.59428609501232L249.32727272727274,47.21852588653567L249.70909090909092,31.232133171775132L249.83636363636361,42.8562910340049L250.21818181818182,43.26344992897728L250.34545454545454,35.20132957805288L250.85454545454544,61.2348266514865L251.23636363636362,42.979246963154196L251.36363636363635,36.24784387241712L251.61818181818182,41.71585260738027L251.74545454545452,52.41521752964367L251.87272727272727,44.0358307578347L252.12727272727275,43.91329921375623L252.25454545454545,43.590380755337804L252.38181818181818,46.77508206800982L252.50909090909093,45.59633324363014L253.01818181818183,38.1848723671653L253.14545454545453,38.24332176555288L253.27272727272728,43.70648865266281L253.5272727272727,46.84643663059583L253.65454545454546,41.764213215221076L253.78181818181818,45.519345933740794L254.2909090909091,42.10607467998159L254.41818181818184,36.41553384607491" style="fill: none;" fill="none"></path></g></g></g></g></g></g><g transform="translate(50, 178)" clip-path="url(#clip_1)"><clipPath id="clip_1"><rect width="280" height="22"></rect></clipPath><g><g><line x1="0" y1="0" x2="0" y2="5" style="visibility: inherit;" fill="rgb(0, 0, 0)" stroke="rgb(204, 204, 204)" stroke-width="1px"></line><line x1="25.454545454545457" y1="0" x2="25.454545454545457" y2="5" style="visibility: inherit;" fill="rgb(0, 0, 0)" stroke="rgb(204, 204, 204)" stroke-width="1px"></line><line x1="50.909090909090914" y1="0" x2="50.909090909090914" y2="5" style="visibility: inherit;" fill="rgb(0, 0, 0)" stroke="rgb(204, 204, 204)" stroke-width="1px"></line><line x1="76.36363636363636" y1="0" x2="76.36363636363636" y2="5" style="visibility: inherit;" fill="rgb(0, 0, 0)" stroke="rgb(204, 204, 204)" stroke-width="1px"></line><line x1="101.81818181818183" y1="0" x2="101.81818181818183" y2="5" style="visibility: inherit;" fill="rgb(0, 0, 0)" stroke="rgb(204, 204, 204)" stroke-width="1px"></line><line x1="127.27272727272727" y1="0" x2="127.27272727272727" y2="5" style="visibility: inherit;" fill="rgb(0, 0, 0)" stroke="rgb(204, 204, 204)" stroke-width="1px"></line><line x1="152.72727272727272" y1="0" x2="152.72727272727272" y2="5" style="visibility: inherit;" fill="rgb(0, 0, 0)" stroke="rgb(204, 204, 204)" stroke-width="1px"></line><line x1="178.1818181818182" y1="0" x2="178.1818181818182" y2="5" style="visibility: inherit;" fill="rgb(0, 0, 0)" stroke="rgb(204, 204, 204)" stroke-width="1px"></line><line x1="203.63636363636365" y1="0" x2="203.63636363636365" y2="5" style="visibility: inherit;" fill="rgb(0, 0, 0)" stroke="rgb(204, 204, 204)" stroke-width="1px"></line><line x1="229.0909090909091" y1="0" x2="229.0909090909091" y2="5" style="visibility: inherit;" fill="rgb(0, 0, 0)" stroke="rgb(204, 204, 204)" stroke-width="1px"></line><line x1="254.54545454545453" y1="0" x2="254.54545454545453" y2="5" style="visibility: inherit;" fill="rgb(0, 0, 0)" stroke="rgb(204, 204, 204)" stroke-width="1px"></line><line x1="280" y1="0" x2="280" y2="5" style="visibility: inherit;" fill="rgb(0, 0, 0)" stroke="rgb(204, 204, 204)" stroke-width="1px"></line></g><g transform="translate(0, 8)"><text x="0" y="0" dx="0em" dy="0.95em" style="text-anchor: middle; visibility: hidden; font-family: &quot;Helvetica Neue&quot;, sans-serif; font-size: 12px; font-weight: 200;" fill="rgb(50, 49, 63)" stroke="none" stroke-width="1px">-200</text><text x="25.454545454545457" y="0" dx="0em" dy="0.95em" style="text-anchor: middle; visibility: inherit; font-family: &quot;Helvetica Neue&quot;, sans-serif; font-size: 12px; font-weight: 200;" fill="rgb(50, 49, 63)" stroke="none" stroke-width="1px">0</text><text x="50.909090909090914" y="0" dx="0em" dy="0.95em" style="text-anchor: middle; visibility: hidden; font-family: &quot;Helvetica Neue&quot;, sans-serif; font-size: 12px; font-weight: 200;" fill="rgb(50, 49, 63)" stroke="none" stroke-width="1px">200</text><text x="76.36363636363636" y="0" dx="0em" dy="0.95em" style="text-anchor: middle; visibility: inherit; font-family: &quot;Helvetica Neue&quot;, sans-serif; font-size: 12px; font-weight: 200;" fill="rgb(50, 49, 63)" stroke="none" stroke-width="1px">400</text><text x="101.81818181818183" y="0" dx="0em" dy="0.95em" style="text-anchor: middle; visibility: hidden; font-family: &quot;Helvetica Neue&quot;, sans-serif; font-size: 12px; font-weight: 200;" fill="rgb(50, 49, 63)" stroke="none" stroke-width="1px">600</text><text x="127.27272727272727" y="0" dx="0em" dy="0.95em" style="text-anchor: middle; visibility: inherit; font-family: &quot;Helvetica Neue&quot;, sans-serif; font-size: 12px; font-weight: 200;" fill="rgb(50, 49, 63)" stroke="none" stroke-width="1px">800</text><text x="152.72727272727272" y="0" dx="0em" dy="0.95em" style="text-anchor: middle; visibility: hidden; font-family: &quot;Helvetica Neue&quot;, sans-serif; font-size: 12px; font-weight: 200;" fill="rgb(50, 49, 63)" stroke="none" stroke-width="1px">1k</text><text x="178.1818181818182" y="0" dx="0em" dy="0.95em" style="text-anchor: middle; visibility: inherit; font-family: &quot;Helvetica Neue&quot;, sans-serif; font-size: 12px; font-weight: 200;" fill="rgb(50, 49, 63)" stroke="none" stroke-width="1px">1.2k</text><text x="203.63636363636365" y="0" dx="0em" dy="0.95em" style="text-anchor: middle; visibility: hidden; font-family: &quot;Helvetica Neue&quot;, sans-serif; font-size: 12px; font-weight: 200;" fill="rgb(50, 49, 63)" stroke="none" stroke-width="1px">1.4k</text><text x="229.0909090909091" y="0" dx="0em" dy="0.95em" style="text-anchor: middle; visibility: inherit; font-family: &quot;Helvetica Neue&quot;, sans-serif; font-size: 12px; font-weight: 200;" fill="rgb(50, 49, 63)" stroke="none" stroke-width="1px">1.6k</text><text x="254.54545454545453" y="0" dx="0em" dy="0.95em" style="text-anchor: middle; visibility: hidden; font-family: &quot;Helvetica Neue&quot;, sans-serif; font-size: 12px; font-weight: 200;" fill="rgb(50, 49, 63)" stroke="none" stroke-width="1px">1.8k</text><text x="280" y="0" dx="0em" dy="0.95em" style="text-anchor: middle; visibility: hidden; font-family: &quot;Helvetica Neue&quot;, sans-serif; font-size: 12px; font-weight: 200;" fill="rgb(50, 49, 63)" stroke="none" stroke-width="1px">2k</text></g><line x1="0" y1="0" x2="280" y2="0" fill="rgb(0, 0, 0)" stroke="rgb(204, 204, 204)" stroke-width="1px"></line></g></g></g></g></svg>